<svg xmlns="http://www.w3.org/2000/svg" width="1000" height="1000"><path fill="#FFF" d="m324.073 500.612 2.495-.016a958.41 958.41 0 0 1 8.194.006 2618.35 2618.35 0 0 1 17.756.007c5.098.017 10.195.007 15.293-.01 3.95-.012 7.899-.008 11.848 0 1.876.002 3.753 0 5.629-.008 16.223-.047 33.352.076 46.587 10.721 6.138 7.764 7.204 14.924 6.382 24.68C436.862 546.886 430.99 554.807 423 562c-2.613 1.931-5.13 3.458-8 5l2.125 1.066c10.512 5.47 18.485 11.472 22.984 22.704 3.23 11.714.852 23.518-4.582 34.097C426.122 640.921 410.475 649.218 393 654c-12.515 3.083-24.567 3.43-37.398 3.363-2.013 0-4.026 0-6.038.002-4.18 0-8.36-.01-12.54-.029-5.365-.023-10.73-.023-16.094-.016-4.138.003-8.276-.004-12.415-.013-1.98-.004-3.96-.005-5.94-.004-2.75 0-5.499-.012-8.248-.028l-2.48.007c-5.618-.053-5.618-.053-7.847-2.282-.338-4.987-.338-4.987 1-8 2.42-1.83 4.838-3.232 7.555-4.578 2.79-2.764 3.079-4.117 3.953-7.874l.767-3.27a676.162 676.162 0 0 0 3.04-14.475l.638-3.173c.683-3.416 1.362-6.834 2.04-10.251l.704-3.558a14329.1 14329.1 0 0 0 3.666-18.594 3966.249 3966.249 0 0 1 3.056-15.366 3673.648 3673.648 0 0 0 3.687-18.618c.464-2.361.936-4.721 1.414-7.08a1113.82 1113.82 0 0 0 1.94-9.872l.614-2.948c1.028-5.277 1.028-5.277-.337-10.369-1.723-2.06-1.723-2.06-3.987-3.849C312 511 312 511 312.062 507.437c1.9-6.962 5.355-6.877 12.011-6.825ZM371 517c-2.134 8.945-4.043 17.923-5.79 26.95-.403 2.077-.813 4.151-1.224 6.226l-.779 4.011-.704 3.606c-.44 2.81-.606 5.371-.503 8.207 7.541.5 7.541.5 14-3 7.434-6.898 12.464-16.598 13.203-26.805.112-7.34-.32-11.875-5.266-17.57-4.29-2.374-8.152-1.902-12.937-1.625Zm-13 64c-.724 2.467-.724 2.467-1.253 5.396l-.676 3.419-.708 3.708-.738 3.797c-.514 2.654-1.025 5.309-1.53 7.964-.648 3.4-1.311 6.798-1.978 10.195-.635 3.243-1.256 6.487-1.879 9.732l-.725 3.697-.648 3.437-.581 3.023c-.276 2.56-.098 4.213.716 6.632 12.543-.352 19.712-2.152 28.895-10.75 7.77-8.303 12.01-19.73 12.605-31.063-.357-6.388-2.873-11.486-7.25-16.062-6.191-4.048-18.057-9.318-24.25-3.125ZM158.492 293.707l3.976.013c3.436.011 6.871.04 10.307.074 3.527.031 7.054.044 10.58.06 6.882.031 13.764.082 20.645.146.286 3.379.42 6.629 0 10-2.148 2.246-2.148 2.246-4.93 3.992-5.045 4.548-5.777 8.063-6.182 14.776-.143 5.79-.105 11.566-.013 17.357.002 2.411 0 4.823-.008 7.234-.016 5.884.06 11.755.133 17.641l44-1c.092-6.727.172-13.451.22-20.178.02-2.287.047-4.575.082-6.862.048-3.291.071-6.582.089-9.874l.062-3.088c.002-6.014-.48-9.398-4.453-13.998-1.587-1.597-1.587-1.597-3.188-2.75C227 305 227 305 226 303c-.187-2.69-.086-5.297 0-8 1.706-1.706 3.907-1.128 6.238-1.13l3.388-.009 3.686.006 3.756-.003c2.626 0 5.252.001 7.878.006 3.373.005 6.746.002 10.12-.004 3.207-.004 6.414-.001 9.622.001l3.686-.006 3.388.01 2.998.002C283 294 283 294 284 295c.506 4.972.686 7-2.188 11.188L274 314c-1.175 2.35-1.133 3.756-1.147 6.376l-.022 2.787-.008 3.066-.02 3.223c-.02 3.532-.031 7.063-.041 10.595l-.013 3.65c-.02 6.373-.035 12.747-.044 19.121-.011 6.59-.046 13.178-.085 19.766-.026 5.062-.035 10.123-.038 15.185-.005 2.428-.017 4.857-.035 7.286-.025 3.4-.024 6.798-.017 10.198l-.039 3.042c.044 5.902.633 9.18 4.509 13.705 1.81 1.696 3.673 3.251 5.61 4.8C284 439 284 439 284 448h-58c0-8 0-8 1.426-10.426l1.887-1.887 1.863-1.925a223.82 223.82 0 0 1 3.492-3.305c2.522-2.759 2.458-5.644 2.461-9.188l.01-2.902-.006-3.125.003-3.208c0-2.238-.001-4.476-.006-6.713-.005-3.44 0-6.878.007-10.317 0-2.17-.002-4.341-.004-6.512l.006-3.137-.01-2.883-.002-2.55c.085-1.93.085-1.93-1.127-2.922a270.491 270.491 0 0 0-9.285-.098l-2.82.005c-2.986.005-5.972.018-8.958.03A7811.269 7811.269 0 0 0 194 377c-.228 7.08-.385 14.158-.493 21.24a524.184 524.184 0 0 1-.185 7.216c-1.208 15.634-1.208 15.634 5.152 29.114 2.349 2.027 2.349 2.027 4.527 3.43 1 1 1 1 1.098 3.066l-.036 2.497-.027 2.503L204 448c-7.415.023-14.83.04-22.244.052-3.442.005-6.885.012-10.328.023-3.954.013-7.908.018-11.862.023l-3.762.015h-3.458l-3.062.007C147 448 147 448 146 447c-.585-3.583-.683-6.008 1.422-9.066a120.86 120.86 0 0 1 3.656-3.942L153 432l2.09-1.956c2.824-4.5 2.454-8.525 2.396-13.738l.011-3.263c.008-3.558-.014-7.114-.036-10.672a6327.61 6327.61 0 0 1-.003-7.416c-.003-5.179-.02-10.358-.046-15.537-.034-6.644-.042-13.287-.04-19.93-.001-5.104-.012-10.208-.026-15.311-.007-2.45-.01-4.9-.012-7.35a2059.95 2059.95 0 0 0-.043-10.263l.002-3.078-.026-2.825-.01-2.45c-.42-3.618-1.54-5.642-4.382-7.899-6.525-2.978-11.768-2.633-18.414-.394-7.515 3.304-13.275 8.686-16.336 16.332-1.485 4.957-1.37 9.046.875 13.75 4.263 5.222 9.235 7.502 15.867 8.379 9.477 1.286 9.477 1.286 12.32 4.121 3.005 4.145 3.322 7.46 2.813 12.5-1.859 5.266-4.603 7.794-9 11-7.219 2.406-15.7 2.11-22.563-1.188-3.71-2.155-6.643-4.524-9.437-7.812l-2.063-2.25c-6.91-9.807-8.83-21.6-7.437-33.438 2.168-11.112 7.462-20.418 16.5-27.312 13.306-8.335 26.944-10.487 42.492-10.293ZM657 491c1.309 7.663-.65 15.709-2.223 23.195l-.68 3.376c-.71 3.52-1.433 7.037-2.16 10.554-.727 3.553-1.452 7.106-2.17 10.66-.446 2.205-.898 4.407-1.356 6.608l-.607 2.986-.545 2.639L647 553l1 1 2.16-1.46 2.903-1.915 2.847-1.898c9.253-5.17 21.568-5.426 31.719-2.782 10.46 4.164 17.026 10.495 21.601 20.836 1.916 5.035 3.377 9.818 3.77 15.219l.156 2.086c.719 18.027-5.795 35.775-17.336 49.508-14.448 15.348-35.119 24.801-56.168 25.687-15.232.373-30.794-.657-42.527-11.593-5.887-6.346-8.368-13.386-8.273-21.93.24-4.46 1.087-8.736 2-13.101l.596-2.97c.424-2.11.853-4.219 1.286-6.327a2273.65 2273.65 0 0 0 2.029-10.011c1.422-7.077 2.86-14.15 4.3-21.224 1.671-8.22 3.337-16.44 4.988-24.664.664-3.29 1.338-6.578 2.013-9.865l1.214-6.03.577-2.77.506-2.548.45-2.206c.213-2.304.003-3.879-.811-6.042-2.304-1.358-2.304-1.358-5.063-2.25l-2.785-1.016L598 514c-.425-3.652-.388-5.446 1.75-8.5 10.511-9.038 44.755-22.83 57.25-14.5Zm-9 80c-9.789 16.55-18.488 44.802-13.785 63.895 1.274 3.416 2.734 5.139 5.785 7.105 4.27.155 6.461-.66 10.063-2.938 14.278-13.483 18.254-39.73 18.937-58.382 0-6.244-.713-11.296-3.688-16.805-2.269-2.1-2.269-2.1-5.562-2.75-5.882 1.372-8.415 5.013-11.75 9.875ZM825.625 540.063c6.687 3.838 10.326 9.26 12.676 16.566 7.376 35.562-13.356 82.817-32.445 112.127-13.71 20.593-30.535 37.588-55.168 43.83-14.002 2.157-28.516.818-40.56-6.973-4.105-3.11-7.168-6.812-9.128-11.613-.88-6.999-.99-13.609 3.395-19.406 3.606-3.58 7.08-5.375 12.168-5.817 4.506.168 6.79.662 10.25 3.66 1.91 2.742 3.182 5.716 4.562 8.75 1.724 3.55 2.427 4.68 5.813 6.938 10.971 2.518 20.917.119 30.527-5.559C778.125 675.43 785.924 665.948 792 655l-3 1.46c-1.333.64-2.666 1.277-4 1.915l-1.965.96c-12.8 6.084-26.756 6.643-40.129 1.927-9.3-4.038-16.277-9.844-20.281-19.262-5.862-18.078 1.92-37.249 7.645-54.359 1.735-5.233 3.208-10.145 3.73-15.641l-2.336-.586-3.039-.789-3.023-.773C723 569 723 569 721 567c-.438-2.813-.438-2.813 0-6 3.809-4.657 8.036-6.768 13.438-9.063l2.41-1.04c25.765-10.88 25.765-10.88 36.402-6.585 3.072 4.718 2.168 10.198 1.261 15.602a308.277 308.277 0 0 1-2.198 9.399l-.82 3.435a1846.542 1846.542 0 0 1-3.934 16.053c-6.793 25.856-6.793 25.856-1.008 51.14 2.423 3.443 4.65 4.844 8.699 5.934 6.392.213 10.831-1.88 15.813-5.813 13.289-12.535 19.41-36.083 20.375-53.875-.252-6.11-3.073-11.523-5.817-16.878-3.568-7.146-5.345-13.536-2.992-21.414 2.042-4.295 5.01-6.424 9.226-8.239 4.874-1.491 8.858-1.033 13.77.407ZM737 345c10.948 8.823 15 19.763 18 33l2.676-1.828c16.096-10.804 32.848-15.648 52.261-12.047 14.823 3.5 26.194 11.532 34.536 24.29 9.883 16.733 12.085 35.487 7.5 54.276-5.971 20.312-18.353 35.877-36.715 46.298-18.002 9.756-37.07 12.217-57.258 12.199l-2.416.002c-11.915-.001-23.668-.51-35.525-1.752-9.739-1.114-9.739-1.114-19.121.812-3.243 2.929-3.922 5.655-4.813 9.813-.635 2.59-1.01 3.799-2.75 5.875-3.421 1.53-6.62 2.19-10.375 2.062-3.638-1.536-6.22-3.439-8-7 0-4.657.95-8.03 4.145-11.516 8.046-6.437 16.592-8.673 26.656-8.511l4.654.037c2.41.024 4.821.052 7.232.086 14.591.192 28.715-.542 42.813-4.721l2.67-.78c8.46-2.59 16.173-6.194 23.83-10.595l3.113-1.785c15.126-9.184 26.153-22.14 32.2-38.84 2.585-12.377.901-23.674-5.125-34.688-6.09-7.48-13.571-12.189-23.188-13.687-16.478-1.082-30.333 2.889-44 12-3.125.188-3.125.188-6 0-1.787-1.787-1.512-4.576-1.813-7-1.478-9.877-5.172-18.99-13.035-25.54-6.593-4.482-14.231-6.252-22.152-5.46-11.576 2.51-19.913 7.174-26.723 16.965-8.365 13.328-9.728 27.798-6.277 43.035 3.396 11.999 9.127 22.053 16.258 32.219C692 455 692 455 691.75 457.375L691 459c-7.54.607-11.44-3.375-17-8-12.975-11.31-22.875-28.041-24.185-45.454-.912-18.2 1.405-35.562 13.955-49.816 19.064-20.4 49.203-27.056 73.23-10.73ZM551.621 547.055c3.588.818 7.074 1.28 10.754 1.508 3.928.261 6.515.829 9.625 3.437 3.714 5.571 2.095 12.053.898 18.327-.499 2.406-1.007 4.81-1.523 7.212l-1.22 5.869c-.711 3.407-1.434 6.812-2.155 10.217-.861 4.075-1.72 8.15-2.568 12.228-.527 2.531-1.061 5.061-1.602 7.59-2.417 9.368-2.417 9.368-.83 18.557 4.052-.296 6.434-1.148 9.563-3.625 3.097-2.39 3.097-2.39 6.312-2.25C581 627 581 627 582 628c.608 4.953.506 7.894-2.438 12-8.792 10.48-18.822 17.345-32.562 19l-2.055.254c-6.511.405-12.912-1.602-17.843-5.914-3.9-4.632-5.018-9.182-5.778-15.117-.093-2.192-.093-2.192-1.324-3.223l-1.652 2.598c-6.59 10.1-14.02 18.678-26.348 21.402-11.433 1.095-23.077.69-32.883-5.953C452.346 647.4 448.922 641.508 447 633c-1.4-22.125 4.232-42.082 19-59l1.418-1.813c11.87-14.895 31.986-25.102 50.637-27.902 11.846-1.147 22.051.093 33.566 2.77ZM513 565c-14.365 16.483-22.99 44.402-21.875 66.125.417 3.29.814 4.779 2.625 7.625 2.177 1.483 2.177 1.483 4.672 1.045 5.9-1.82 9.387-8.113 12.168-13.326.8-1.648 1.582-3.305 2.348-4.969l1.271-2.719c12.336-26.93 12.336-26.93 14.791-55.781-1.525-2.782-1.525-2.782-4-4-5.574 0-8.016 2.278-12 6Zm8 65 1 3ZM500 287c2.888 2.888 2.253 4.94 2.258 8.987l.011 2.204c.01 2.451.006 4.902.002 7.353l.016 5.258c.012 3.782.017 7.565.018 11.347.002 5.99.02 11.98.04 17.97.05 14.887.08 29.776.102 44.664.017 11.55.04 23.1.083 34.65.022 5.943.03 11.887.028 17.831.001 3.717.015 7.433.033 11.15.005 1.712.006 3.424 0 5.136-.452 16.962-.452 16.962 5.846 32.137 3.654 3.297 6.442 4.627 11.375 4.813l2.458.156c5.648-1.357 9.35-5.749 12.355-10.531A265.468 265.468 0 0 0 537 476c3.651-6.474 7.652-12.55 15-15 5.235-.395 8.6.066 13 3 4.039 4.585 5.234 9.01 5 15-1.152 6.55-4.82 11.01-10 15-15.198 9.554-34.998 11.15-52.313 7.813-13.225-3.229-24.146-10.482-31.378-22.243-6.915-13.582-8.618-27.36-8.549-42.43 0-1.343-.003-2.686-.006-4.03-.004-2.865-.003-5.732.002-8.598.008-4.535-.003-9.07-.017-13.604-.038-12.886-.056-25.772-.044-38.657.006-7.137-.006-14.274-.037-21.411-.018-4.507-.015-9.012.004-13.519.009-3.456-.015-6.912-.034-10.368l.035-3.77c.023-6.66.023-6.66-3.03-12.383-2.498-1.708-4.988-3.33-7.633-4.8l-1-1c0-3.375 0-3.375 1-7 6.331-3.402 13.519-5.131 20.375-7.188l3.578-1.115c6.553-1.966 12.198-3.356 19.047-2.697Z"/><path fill="#FFF" d="M609.125 350.625c12.183 12.838 15.485 28.328 15.278 45.448-.513 16.688-6.258 30.301-18.403 41.927-10.201 9.227-23.486 12.575-37.05 12.246-13.196-1.101-25.758-5.344-34.95-15.246-13.08-15.797-15.678-34.13-14-54 2.24-14.144 9.78-27.087 21-36 22.003-13.368 49.013-12.022 68.125 5.625ZM564 355c-10.898 16.153-9.494 42.656-6 61 1.893 8.108 4.031 15.031 10 21 3.585.478 5.465.306 8.625-1.5 10.563-11.119 10.568-28.718 10.625-43.063l.063-3.884c.049-12.198-1.156-25.233-8.313-35.553-2.476-2.178-3.646-2.94-6.938-3.5-4.218.689-5.425 2.169-8.062 5.5ZM374.582 344.04c5.18 4.2 9.118 9.33 10.418 15.96.717 7.276.24 12.92-4 19-8.364 10.036-20.356 14.277-33 16-3.502.275-7.01.438-10.518.605-3.54-.12-3.54-.12-6.482 1.395-.75 7.055 1.295 13.418 5.578 19.09 5.563 5.926 11.753 8.376 19.797 8.976 7.175-.181 12.144-2.65 17.625-7.066 3.125-.5 3.125-.5 6 0 1.938 1.563 1.938 1.563 3 4 .233 5.938-2.261 9.421-5.918 13.793-7.748 8.214-17.119 13.45-28.484 14.41-16.02.296-29.569-4.485-41.239-15.523-6.954-7.898-11.405-17.345-13.359-27.68-.182-.96-.364-1.92-.55-2.91-2.525-17.363 1.196-34.775 11.655-48.942 17.073-20.003 47.064-26.439 69.477-11.109ZM337 353c-5.754 8.39-7.498 19.037-7 29 8.486-1.165 15.144-3.463 20.875-10.063 3.648-5.042 4.932-8.589 4.125-14.937-1.385-3.496-2.805-6.87-6-9-5.4-.96-8.55 1.002-12 5ZM439 287c1 1 1 1 1.114 3.263l-.016 3.06-.01 3.5-.026 3.876a7580.582 7580.582 0 0 1-.047 12.813 3159.254 3159.254 0 0 0-.016 16.235l.005 7.214c.007 9.96.002 19.918-.055 29.877-.042 7.258-.051 14.514-.024 21.772.013 3.84.01 7.677-.031 11.515-.04 3.62-.035 7.239 0 10.86.008 1.945-.028 3.89-.066 5.836.156 9.558 3.461 14.52 10.172 21.179 1 1 1 1 1.133 3.031l-.008 2.469.008 2.469C451 448 451 448 450 449a83.47 83.47 0 0 1-4.931.145l-3.186.02-3.469.003-3.539.01c-2.476.005-4.953.007-7.43.007-3.797.002-7.593.02-11.39.04-2.401.003-4.802.005-7.203.005l-3.457.022-3.205-.01-2.824.005C397 449 397 449 394 447c-.71-3.373-.973-4.798 0-8 2.103-2.542 4.346-4.663 6.836-6.824 5.064-5.092 4.455-11.007 4.439-17.762l.015-3.229c.014-3.52.013-7.04.01-10.56l.014-7.341c.007-5.128.007-10.256.002-15.384-.006-6.574.01-13.148.034-19.722.015-5.053.016-10.105.013-15.158 0-2.424.005-4.849.015-7.273.013-3.387.006-6.774-.006-10.161l.023-3.039c-.037-4.97-.07-8.553-3.395-12.547-1.733-1.165-1.733-1.165-3.625-1.75C395 307 395 307 394 306c-.313-3.375-.313-3.375 0-7 4.427-4.405 11.159-5.39 16.997-7.072a555.77 555.77 0 0 0 6.3-1.875c7.146-2.11 14.176-4.14 21.703-3.053ZM860 443c2.778 1.29 5.03 2.699 7.355 4.688.62.528 1.238 1.057 1.875 1.603 18.775 16.396 18.775 16.396 19.957 22.709-.187 3-.187 3-2.187 5-5.082.375-9.358-.407-14.246-1.75l-1.988-.538a1057.35 1057.35 0 0 1-6.203-1.712c-1.414-.386-2.827-.772-4.24-1.156-3.444-.939-6.884-1.888-10.323-2.844.667-3.618 1.561-6.383 3.313-9.625 2.743-5.295 4.768-10.736 6.687-16.375ZM861 409c7.016.78 12.842 1.831 19.5 3.75l2.684.727c6.127 1.745 11.386 4.198 16.816 7.523v6c-4.16 2.249-7.949 3.63-12.57 4.605l-3.715.791c-1.267.262-2.534.523-3.84.791l-3.863.827C866.563 436 866.563 436 862 436l-1-27ZM881.188 372.875l3.167-.008C887 373 887 373 889 374c-.093 4.57-.635 7.073-3.875 10.375-3.966 3.64-8.2 6.97-12.398 10.336-3.283 2.756-6.24 5.731-9.168 8.855C862 405 862 405 860 405l-1.39-3.254-1.86-4.308-.91-2.135c-1.526-3.522-3.128-6.895-5.074-10.205C849 382 849 382 849 380c3.395-.982 6.791-1.96 10.188-2.938l2.908-.841 2.822-.81 2.587-.747c4.648-1.237 8.865-1.801 13.683-1.789ZM845 473h3c13.219 31.17 13.219 31.17 11.273 38.879C858 514 858 514 855 515c-5.416-1.805-8.638-5.51-12.484-9.52-3.506-3.456-7.338-6.431-11.23-9.437-2.186-1.954-3.226-3.347-4.286-6.043l1.688-1.25c9.37-6.763 9.37-6.763 16.312-15.75ZM855 336c1 1 1 1 1.305 4.238-.081 6.261-2.269 12.047-4.18 17.95l-1.105 3.521c-1.53 4.834-3.087 9.601-5.02 14.291-3.321-1.455-5.571-3.32-8.188-5.813-4.259-3.884-8.654-6.65-13.812-9.187 1.623-3.907 4.278-6.76 7.125-9.813l1.487-1.605C847.64 333.547 847.64 333.547 855 336ZM806.375 319.688c2.625.312 2.625.312 4.216 1.935 1.743 2.94 2.118 5.332 2.577 8.717l.518 3.72.501 3.877.538 3.866C815.422 346.939 816 351.806 816 357l-26-2c.87-6.09 2.139-10.782 4.25-16.438l.871-2.447c5.798-15.71 5.798-15.71 11.254-16.428ZM819 495h3c-.768 29.923-.768 29.923-5.45 35.828C815 532 815 532 812.564 532.125c-5.729-2.515-8.058-11.33-10.313-16.875l-.957-2.285-.902-2.2-.812-1.975C799 507 799 507 799 504l1.728-.719c2.571-1.07 5.14-2.144 7.71-3.219l2.72-1.13 2.588-1.084 2.396-1c1.832-.705 1.832-.705 2.858-1.848Z"/></svg>