<svg xmlns="http://www.w3.org/2000/svg" width="2892" height="1390"><path fill="#FFF" d="m530 369 3.298.52c15.924 2.609 31.362 6.493 46.702 11.48l2.779.901C622.417 395.003 657.405 416.83 688 445l2.805 2.492c4.8 4.28 9.35 8.563 13.484 13.492a104.795 104.795 0 0 0 3.61 4.032c54.647 58.1 79.095 142.348 77.21 220.734C782.717 756.842 759.293 825.161 715 881l-2.133 2.723C706.35 891.887 699.207 899.448 692 907c-.755.798-1.51 1.596-2.29 2.418-4.321 4.455-8.981 8.375-13.827 12.25a189.44 189.44 0 0 0-5.516 4.633C632.204 959.517 581.006 980.466 531 986l-2.347.281c-9.05.97-18.123.963-27.216.969l-2.612.002c-14.78-.018-29.223-.811-43.825-3.252l-2.98-.488c-42.648-7.254-81.742-26.1-113.598-55.336-2.744-2.465-5.589-4.815-8.422-7.176l-1 317H175c-.06-67.17-.06-67.17-.077-87.966l-.002-2.247c-.02-24.992-.035-49.983-.048-74.975l-.001-2.474a694325.809 694325.809 0 0 1-.037-79.347l-.001-2.625c-.013-28.018-.035-56.036-.063-84.055a111738.429 111738.429 0 0 1-.056-98.695v-2.433c-.004-12.87-.018-25.74-.035-38.611-.018-12.973-.025-25.945-.02-38.918.002-7.015-.001-14.03-.018-21.045C174.482 633.665 183.23 566.367 222 505l1.977-3.14c8.67-13.345 18.493-25.938 29.023-37.86l1.404-1.596C266.367 448.9 279.5 436.737 294 426l1.943-1.444C322.512 404.966 351.58 390.146 383 380c.893-.29 1.787-.58 2.708-.877C431.464 364.573 482.6 361.505 530 369Zm-86 145-1.968.535c-37.633 10.43-69.972 37.852-89.22 71.465a541.585 541.585 0 0 0-3.812 7l-1.805 3.254c-21.306 40.103-23.531 90.12-10.972 133.226C344.58 756.57 358.166 780.706 378 801l2.605 2.793c25.87 27.092 62.743 41.639 99.895 42.582 42.257-1.116 77.294-18.833 106.726-48.503C612.736 770.944 626.44 734.3 631 698l.398-2.855c5.125-43.558-6.752-91.044-33.336-126.02-22.52-28.052-49.451-46.25-84.062-56.125l-2.199-.634c-20.818-5.65-47.276-4.248-67.801 1.634ZM1121.563 365.75l2.743-.002c73.373.086 143.996 27.538 197.78 77.56 2.665 2.462 5.375 4.861 8.101 7.255 4.996 4.494 9.428 9.353 13.813 14.437l2.516 2.855C1389.376 516.98 1413.559 578.682 1421 643l.317 2.712c1.038 10.392.927 20.855.933 31.288l.002 3.099c-.017 16.48-.644 32.597-3.252 48.901l-.52 3.273C1406.878 802.702 1372 870.58 1317 917l-1.532 1.319c-17.205 14.76-36.298 27.349-56.468 37.681l-2.357 1.224C1225.182 973.405 1191.025 982.715 1156 987l-2.429.313c-9.993 1.106-20.092.93-30.133.937l-3.043.002c-15.659-.017-30.935-.545-46.395-3.252l-3.002-.52C1002.968 972.286 935.29 935.774 893 880a2261.25 2261.25 0 0 0-3.031-3.844c-52.546-66.961-73.66-153.215-64.448-237.337C832.1 585.551 850.41 533.656 882 490l2.309-3.207c13.734-18.68 29.742-37.142 47.914-51.566a167.164 167.164 0 0 0 5.398-4.516c50.019-43.562 118.422-64.917 183.942-64.961ZM1041 534l-1.653 1.3c-36.463 28.815-55.95 72.438-61.523 117.912-4.83 46.431 2.694 98.755 32.266 136.464L1012 792l2.066 2.668c23.656 30.004 56.76 48.604 94.724 53.134 33.944 3.048 68.148-5.808 95.21-26.802l2.809-2.14c35.029-27.626 54.746-69.571 60.366-113.308 5.54-51.214-4.813-105.49-37.567-146.286-3.117-3.835-6.327-7.571-9.608-11.266l-1.758-1.98c-23.102-24.438-57.098-38.822-90.445-40.305-31.417-.813-62.169 8.501-86.797 28.285ZM2464 369l3.065.504c29.783 5.043 58.37 14.468 85.101 28.538 1.793.937 3.602 1.84 5.412 2.743 16.666 8.413 32.069 19.324 46.422 31.215l1.623 1.315c15.113 12.259 29.635 26.138 41.377 41.685 1.007 1.281 2.017 2.561 3.027 3.84 7.6 9.683 14.567 19.648 20.973 30.16l1.138 1.866C2716.518 584.64 2727.543 674.71 2708 758c-2.018 8.103-4.4 16.066-7 24l-.865 2.692C2688.026 821.887 2667.793 856.686 2642 886l-1.516 1.777c-4.989 5.81-10.322 11.244-15.734 16.66l-2.66 2.698c-6.047 6.06-12.377 11.557-19.09 16.865l-3.215 2.61C2556.328 960.775 2504.54 980.137 2450 987l-2.46.317c-9.82 1.08-19.736.927-29.602.933l-2.971.002c-31.242-.034-61.165-4.747-90.967-14.252l-2.581-.822c-28.912-9.414-56.162-23.898-80.419-42.178l-1.765-1.328c-7.479-5.665-14.577-11.624-21.419-18.043-2.668-2.49-5.388-4.907-8.128-7.317a101.271 101.271 0 0 1-9.934-10.25c-1.897-2.23-3.884-4.356-5.879-6.5C2154.637 843.98 2132.073 788.19 2122 731l-.548-3.08c-5.442-32.523-5.18-69.464.548-101.92l.52-3.152c5.209-31.285 14.7-61.29 28.48-89.848l1.213-2.525c9.635-19.805 21.815-38.447 35.787-55.475l2.5-3.113c6.409-7.823 13.438-15.033 20.563-22.2l2.756-2.784c6.086-6.058 12.443-11.585 19.181-16.903l1.842-1.477c39.027-31.188 85.935-51.404 135.158-59.523l2.726-.458c29.683-4.749 61.646-4.54 91.274.458Zm-150 185c-33.274 38.492-45.525 91.106-42.375 140.938 2.574 33.914 12.957 67.559 33.375 95.062l2.066 2.8c10.367 13.28 22.632 25.26 36.934 34.2l1.857 1.174c29.109 18.117 65.97 24.909 99.587 17.46 40.791-10.114 71.966-34.667 93.642-70.426 13.006-22.02 19.666-47.02 22.914-72.208l.402-3.05c4.946-46.811-6.148-97.89-34.402-135.95l-2.063-2.793c-22.933-29.406-54.287-48.706-91.187-54.457-46.624-5.436-89.454 12.852-120.75 47.25ZM1839 230h153v151h107v135h-107c.09 40.189.09 40.189.209 80.377l.053 16.309.007 2.064c.035 10.954.06 21.909.081 32.863.022 11.268.056 22.535.099 33.803.024 6.318.042 12.636.049 18.954.006 5.963.026 11.926.056 17.889.009 2.173.013 4.346.011 6.519-.017 29.92 3.5 62.643 25.435 85.222 23.892 23.265 56.49 24 88 24v139c-6.949 3.474-17.596 2.169-25.266 2.203l-3.139.017c-2.181.01-4.363.016-6.544.02-3.252.01-6.503.04-9.754.072-53.044.268-105.905-15.144-146.297-50.312l-1.695-1.47c-48.477-42.358-69.418-106.962-74.096-169.527-.502-8.42-.342-16.876-.33-25.308 0-2.156 0-4.312-.002-6.468-.002-5.9.002-11.799.007-17.698.004-6.372.003-12.743.002-19.114 0-11.03.003-22.061.008-33.091.006-11.564.01-23.128.011-34.692v-2.182l.001-10.97c.002-25.876.01-51.753.019-77.629.009-25.132.016-50.265.02-75.397v-2.35a2454439.56 2454439.56 0 0 0 .013-70.929v-2.21c.004-22.338.01-44.677.016-67.016l.001-3.792L1839 230ZM1785 369v144l-20-2c-5.536-.196-11.03-.343-16.563-.313l-2.14.006c-33.74.146-65.885 10.257-90.367 34.252-26.614 27.165-32.06 63.634-32.088 100.039l-.015 4.298c-.014 3.886-.021 7.772-.028 11.658-.008 4.21-.021 8.42-.034 12.629-.022 7.277-.04 14.553-.056 21.83-.023 10.52-.05 21.041-.08 31.562-.048 17.073-.091 34.146-.132 51.219-.04 16.575-.08 33.15-.125 49.726l-.008 3.133-.065 24.257c-.106 39.568-.202 79.136-.299 118.704h-152a187691.486 187691.486 0 0 1-.165-156.226l-.002-3.323c-.013-17.71-.037-35.42-.064-53.131-.029-18.2-.045-36.4-.051-54.6-.004-11.213-.017-22.424-.042-33.636-.016-7.71-.02-15.42-.017-23.13.002-4.434 0-8.869-.017-13.303-.225-64.577 13.804-129.483 55.358-180.651l1.48-1.826C1537.8 441.56 1549.044 429.93 1562 420l1.614-1.255C1625.62 370.715 1708.7 358.1 1785 369Z"/></svg>