<svg xmlns="http://www.w3.org/2000/svg" width="2276" height="1428"><path fill="#FFF" d="M1007 400c191.667 0 191.667 0 222.25 29.688 22.214 22.59 29.073 55.393 29.05 86.074l.014 4.096c.007 2.84.007 5.68.002 8.519-.005 2.865.002 5.73.02 8.594.225 35.574-3.205 69.184-28.445 96.295C1224.153 638.745 1213.202 648 1205 648v2l3.813 1.125c20.811 6.992 36.07 23.101 45.906 42.215 10.174 22.242 12.437 46.527 12.449 70.695l.01 4.588c.006 3.19.008 6.382.007 9.573 0 3.232.007 6.464.02 9.695.178 42.579.178 42.579-4.455 60.859l-.65 2.636c-6.898 26.852-22.095 50.159-46.1 64.614-8.226 4.84-16.696 8.493-25.813 11.313l-2.218.697C1129.999 944.775 1067.346 933 1007 933V400Zm85 77v140c36.894 2.128 36.894 2.128 69.438-12.688 13.42-14.672 12.749-36.695 12.747-55.298.002-2.613.02-5.225.04-7.838.242-28.56.242-28.56-12.198-53.375C1143.307 469.939 1116.097 477 1092 477Zm0 217v162c40.572 4.322 40.572 4.322 78.133-9.938 12.045-12.445 12.185-29.714 12.168-46.097l.013-4.588c.007-3.19.007-6.382.002-9.573-.005-3.232.002-6.463.02-9.695 1.503-37.31 1.503-37.31-13.941-69.843C1148.91 687.465 1114.877 694 1092 694ZM1660 400h115c2.516 13.21 4.963 26.386 7.115 39.653l.867 5.302c.782 4.777 1.56 9.554 2.337 14.33.838 5.15 1.68 10.297 2.521 15.445 1.635 10.007 3.266 20.014 4.897 30.022 1.905 11.692 3.813 23.384 5.722 35.076 4.294 26.305 8.582 52.61 12.87 78.917 1.762 10.816 3.526 21.633 5.29 32.449 6.692 41.038 13.379 82.076 20.059 123.116 3.22 19.791 6.445 39.582 9.674 59.372l.384 2.353.382 2.338 4.689 28.76c1.101 6.76 2.204 13.521 3.309 20.282.997 6.102 1.992 12.205 2.985 18.308.358 2.199.717 4.397 1.077 6.595.484 2.958.966 5.917 1.446 8.875l.43 2.607c.5 3.1.946 6.054.946 9.2h-85c-5.77-35.772-5.77-35.772-7.676-49.234l-.651-4.554c-.443-3.098-.883-6.195-1.323-9.293-.562-3.967-1.13-7.932-1.698-11.898-.443-3.097-.884-6.194-1.325-9.29l-.628-4.398c-.289-2.019-.575-4.039-.86-6.059l-.493-3.464C1762 832 1762 832 1762 829l-94 1-15 103h-79c1.149-13.783 1.149-13.783 2.254-20.37l.373-2.297c.409-2.506.824-5.01 1.24-7.515l.895-5.476c.814-4.976 1.634-9.951 2.455-14.927.88-5.34 1.754-10.68 2.629-16.02 1.507-9.196 3.017-18.39 4.53-27.585 2.392-14.54 4.778-29.082 7.162-43.623l2.423-14.78.608-3.706 4.29-26.153c7.09-43.203 14.141-86.412 21.175-129.623l3.123-19.184.443-2.72a9618005.919 9618005.919 0 0 1 8.946-54.945l5.735-35.227.408-2.51 3.136-19.26c4.726-29.026 9.45-58.052 14.175-87.079Zm54 94a3016.596 3016.596 0 0 0-7.392 49.97l-.947 6.78c-.845 6.044-1.687 12.088-2.528 18.132l-1.582 11.353c-1.75 12.543-3.497 25.087-5.242 37.63l-.283 2.033-.283 2.035a63117.06 63117.06 0 0 1-4.577 32.827c-1.577 11.285-3.15 22.57-4.72 33.855-.878 6.317-1.759 12.634-2.642 18.95-.828 5.92-1.652 11.84-2.472 17.76a4923.81 4923.81 0 0 1-.91 6.513c-.415 2.961-.825 5.922-1.234 8.884l-.37 2.605-.33 2.415-.287 2.068c-.25 2.72-.201 5.46-.201 8.19h74c-4.383-32.776-8.865-65.532-13.533-98.268l-2.373-16.68c-1.317-9.268-2.637-18.536-3.957-27.803-1.524-10.694-3.045-21.388-4.566-32.082a257411.527 257411.527 0 0 0-10.397-73.05l-.319-2.246A436.236 436.236 0 0 0 1715 494h-1ZM766 400h115c2.516 13.21 4.963 26.386 7.115 39.653l.867 5.302c.782 4.777 1.56 9.554 2.337 14.33.838 5.15 1.68 10.297 2.521 15.445 1.635 10.007 3.266 20.014 4.897 30.022 1.905 11.692 3.813 23.384 5.722 35.076 4.294 26.305 8.582 52.61 12.87 78.917 1.762 10.816 3.526 21.633 5.29 32.449 6.692 41.038 13.379 82.076 20.059 123.116 3.22 19.791 6.445 39.582 9.674 59.372l.384 2.353.382 2.338 4.689 28.76c1.101 6.76 2.204 13.521 3.309 20.282.997 6.102 1.992 12.205 2.985 18.308.358 2.199.717 4.397 1.077 6.595.484 2.958.966 5.917 1.446 8.875l.43 2.607c.5 3.1.946 6.054.946 9.2h-85c-5.77-35.772-5.77-35.772-7.676-49.234l-.651-4.554c-.443-3.098-.883-6.195-1.323-9.293-.562-3.967-1.13-7.932-1.698-11.898-.443-3.097-.884-6.194-1.325-9.29l-.628-4.398c-.289-2.019-.575-4.039-.86-6.059l-.493-3.464C868 832 868 832 868 829l-94 1-15 103h-79c1.149-13.783 1.149-13.783 2.254-20.37l.373-2.297c.409-2.506.824-5.01 1.24-7.515l.895-5.476c.814-4.976 1.634-9.951 2.455-14.927.88-5.34 1.754-10.68 2.629-16.02 1.507-9.196 3.017-18.39 4.53-27.585 2.392-14.54 4.778-29.082 7.162-43.623l2.423-14.78.608-3.706 4.29-26.153c7.09-43.203 14.141-86.412 21.175-129.623l3.123-19.184.443-2.72a9618005.919 9618005.919 0 0 1 8.946-54.945l5.735-35.227.408-2.51 3.136-19.26c4.726-29.026 9.45-58.052 14.175-87.079Zm54 94a3016.596 3016.596 0 0 0-7.392 49.97l-.947 6.78c-.845 6.044-1.687 12.088-2.528 18.132l-1.582 11.353c-1.75 12.543-3.497 25.087-5.242 37.63l-.283 2.033-.283 2.035a63117.06 63117.06 0 0 1-4.577 32.827c-1.577 11.285-3.15 22.57-4.72 33.855-.878 6.317-1.759 12.634-2.642 18.95-.828 5.92-1.652 11.84-2.472 17.76a4923.81 4923.81 0 0 1-.91 6.513c-.415 2.961-.825 5.922-1.234 8.884l-.37 2.605-.33 2.415-.287 2.068c-.25 2.72-.201 5.46-.201 8.19h74c-4.383-32.776-8.865-65.532-13.533-98.268l-2.373-16.68c-1.317-9.268-2.637-18.536-3.957-27.803-1.524-10.694-3.045-21.388-4.566-32.082a257411.527 257411.527 0 0 0-10.397-73.05l-.319-2.246A436.236 436.236 0 0 0 821 494h-1ZM1512.378 419.575c13.73 12.06 22.719 28.312 28.622 45.425l1.105 2.977c2.467 7.163 3.807 14.444 5.082 21.898l.507 2.933c3.02 18.69 2.306 37.258 2.306 56.192h-81c-.25-20-.25-20-.298-26.203-.218-15.14-1.28-30.834-11.702-42.797-8.635-7.672-19.82-10.381-31.16-10.21-10.45.775-20.577 3.532-27.871 11.401-11.627 15.347-11.725 36.115-9.669 54.493.805 4.926 2.127 9.583 3.7 14.316l.633 1.917c5.001 14.722 13.11 27.467 23.367 39.083l2.18 2.477A834.367 834.367 0 0 0 1425 601l2.59 2.906c5.967 6.67 12.244 12.813 18.924 18.765 2.43 2.173 4.83 4.38 7.236 6.579a541.298 541.298 0 0 0 9.187 8.188c8.88 7.763 17.421 15.803 25.79 24.113a1887.29 1887.29 0 0 0 4.268 4.217c6.106 6.098 11.657 12.462 17.005 19.232l1.742 2.152c21.061 26.065 33.705 55.652 38.258 88.848l.29 2.081c1.039 8.685.954 17.435.96 26.169l.002 2.562c-.044 35.13-7.052 68.135-29.252 96.188l-1.523 1.996c-17.603 22.03-47.302 32.3-74.391 35.5-37.196 3.561-75.788-.75-105.852-24.7-26.117-22.615-37.063-56.31-39.78-89.858-.687-9.93-.56-19.864-.517-29.813L1300 776h81c.312 24.75.312 24.75.388 32.487.032 2.062.066 4.123.1 6.185l.02 3.15c.24 12.52 2.99 25.504 11.68 34.99 9.682 8.906 21.348 10.65 34.027 10.434 11.291-.734 20.38-4.191 28.097-12.621 8.975-11.43 10.246-25.616 10.125-39.75l-.022-3.813c-.696-39.794-22.472-68.71-49.415-96.062a126.533 126.533 0 0 0-5.813-5.133c-3.153-2.692-6.16-5.535-9.187-8.367-5.401-5.043-5.401-5.043-10.938-9.937-9.179-7.947-17.96-16.374-26.562-24.938l-1.668-1.655c-4.142-4.157-8.016-8.513-11.832-12.97l-1.704-1.986c-8.153-9.578-15.666-19.322-22.296-30.014l-2.11-3.344c-9.243-15.334-15.113-32.21-18.89-49.656l-.496-2.179c-5.217-23.81-4.66-52.066.496-75.821l.504-2.407c6.141-28.425 21.175-55.144 45.883-71.359 46.522-29.372 118.616-27.765 160.99 8.341ZM437 400h85v456h137v77H437V400ZM680 966l16.5-.25 5.158-.11c7.604-.095 13.893-.167 20.342 4.36 3.252 3.777 4 8.098 4 13-.945 5.068-2.54 8.194-6 12l1.75.688c2.948 1.719 4.357 3.466 6.25 6.312 1.012 5.904 1.35 12.847-1.875 18.125-5.22 5.378-11.822 7.053-19.171 7.252-3.696.024-7.384-.045-11.079-.127L680 1027v-61Zm12 10v15c2.563.081 5.124.14 7.688.188l2.185.076c4.588.063 7.496-.397 11.127-3.264 1.4-2.799 1.253-4.905 1-8-1.375-1.994-2.35-2.772-4.625-3.57-3.372-.61-6.712-.534-10.125-.492L692 976Zm0 25v16l7.563.188 2.338.082c5.1.06 8.595-.833 13.099-3.27 2.324-2.884 2.324-2.884 2-6.5-.638-3.638-.638-3.638-3.477-5.207-4.457-1.636-8.2-1.627-12.898-1.48l-2.52.04c-2.035.036-4.07.09-6.105.147ZM1680 966c13 0 13 0 16.954 3.672a111.963 111.963 0 0 1 3.222 5.078l1.76 2.69c1.836 2.828 3.606 5.691 5.377 8.56 1.237 1.93 2.478 3.857 3.724 5.781 3.046 4.707 5.998 9.457 8.963 14.219l1-40h12v61c-13 0-13 0-16.954-3.672a111.963 111.963 0 0 1-3.222-5.078l-1.76-2.69c-1.836-2.828-3.606-5.691-5.377-8.56-1.237-1.93-2.478-3.857-3.724-5.781-3.046-4.707-5.998-9.457-8.963-14.219l-1 40h-12v-61ZM1478 966c13 0 13 0 16.954 3.672a111.963 111.963 0 0 1 3.222 5.078l1.76 2.69c1.836 2.828 3.606 5.691 5.377 8.56 1.237 1.93 2.478 3.857 3.724 5.781 3.046 4.707 5.998 9.457 8.963 14.219l1-40h12v61c-13 0-13 0-16.954-3.672a111.963 111.963 0 0 1-3.222-5.078l-1.76-2.69c-1.836-2.828-3.606-5.691-5.377-8.56-1.237-1.93-2.478-3.857-3.724-5.781-3.046-4.707-5.998-9.457-8.963-14.219l-1 40h-12v-61ZM1457.152 969.406c6.212 4.905 10.417 11.755 11.848 19.594.822 11.332.103 21.284-7.25 30.438-5.176 5.431-11.432 8.282-18.887 8.765-10.56.14-18.181-.689-26.07-8.105-7.562-8.848-8.498-18.89-7.793-30.098 1.345-8.14 4.719-14.851 11.438-19.793 10.94-6.854 25.556-8.091 36.714-.8Zm-31.902 12.469c-4.842 6.725-5.034 13.025-4.25 21.125 1.683 5.995 5.032 9.436 10 13 4.593 2.296 11.37 1.773 16.207.352 5.63-2.87 7.864-7.566 9.793-13.352.64-7.67.873-14.697-4-21-3.28-3.418-6.417-5.769-11.27-6.203-7.165-.132-11.35.715-16.48 6.078ZM1166.152 969.406c6.212 4.905 10.417 11.755 11.848 19.594.822 11.332.103 21.284-7.25 30.438-5.176 5.431-11.432 8.282-18.887 8.765-10.56.14-18.181-.689-26.07-8.105-7.562-8.848-8.498-18.89-7.793-30.098 1.345-8.14 4.719-14.851 11.438-19.793 10.94-6.854 25.556-8.091 36.714-.8Zm-31.902 12.469c-4.842 6.725-5.034 13.025-4.25 21.125 1.683 5.995 5.032 9.436 10 13 4.593 2.296 11.37 1.773 16.207.352 5.63-2.87 7.864-7.566 9.793-13.352.64-7.67.873-14.697-4-21-3.28-3.418-6.417-5.769-11.27-6.203-7.165-.132-11.35.715-16.48 6.078ZM1017.152 969.406c6.212 4.905 10.417 11.755 11.848 19.594.822 11.332.103 21.284-7.25 30.438-5.176 5.431-11.432 8.282-18.887 8.765-10.56.14-18.181-.689-26.07-8.105-7.562-8.848-8.498-18.89-7.793-30.098 1.345-8.14 4.719-14.851 11.438-19.793 10.94-6.854 25.556-8.091 36.714-.8Zm-31.902 12.469C980.408 988.6 980.216 994.9 981 1003c1.683 5.995 5.032 9.436 10 13 4.593 2.296 11.37 1.773 16.207.352 5.63-2.87 7.864-7.566 9.793-13.352.64-7.67.873-14.697-4-21-3.28-3.418-6.417-5.769-11.27-6.203-7.165-.132-11.35.715-16.48 6.078ZM782.152 969.406C788.364 974.311 792.57 981.161 794 989c.822 11.332.103 21.284-7.25 30.438-5.176 5.431-11.432 8.282-18.887 8.765-10.56.14-18.181-.689-26.07-8.105-7.562-8.848-8.498-18.89-7.793-30.098 1.345-8.14 4.719-14.851 11.438-19.793 10.94-6.854 25.556-8.091 36.714-.8Zm-31.902 12.469C745.408 988.6 745.216 994.9 746 1003c1.683 5.995 5.032 9.436 10 13 4.593 2.296 11.37 1.773 16.207.352 5.63-2.87 7.864-7.566 9.793-13.352.64-7.67.873-14.697-4-21-3.28-3.418-6.417-5.769-11.27-6.203-7.165-.132-11.35.715-16.48 6.078ZM1211 966l14.938-.188 4.656-.082c10.628-.065 18.689.8 26.68 8.297 7.55 8.627 7.335 18.86 6.914 29.705-.54 6.522-3.436 12.772-8.188 17.268-6.993 4.537-12.028 6.13-20.39 6.098l-3.908-.008-4.952-.027L1211 1027v-61Zm12 10v41c14.564.854 14.564.854 25.875-5.688 3.688-5.748 4.723-11.495 4.125-18.312-1.309-5.92-3.026-10.242-8-14-7.786-4.105-12.218-3-22-3ZM1039 966l16-.188 5-.082c15.81-.156 15.81-.156 22.059 4.954l1.379 1.754 1.433 1.746c3.094 4.978 2.565 11.168 2.129 16.816-1.733 5.402-5.375 8.857-10 12h-2l1.102 2.02c1.055 1.935 2.11 3.871 3.164 5.808a851.992 851.992 0 0 0 3.468 6.281l1.641 2.953 1.523 2.723C1087 1025 1087 1025 1087 1027h-13a3969.53 3969.53 0 0 1-5.5-9.875l-1.59-2.84-1.504-2.715-1.396-2.507C1063 1007 1063 1007 1063 1005h-12v22h-12v-61Zm12 10v19l8.188.188 2.551.082c4.61.051 7.49-.336 11.261-3.27 2.425-2.425 2.686-3.62 3-7-.973-3.406-2.127-5.872-5-8-4.249-1.152-8.446-1.116-12.813-1.063L1051 976ZM804 966l16-.188 5-.082c15.81-.156 15.81-.156 22.059 4.954l1.379 1.754 1.433 1.746c3.094 4.978 2.565 11.168 2.129 16.816-1.733 5.402-5.375 8.857-10 12h-2l1.102 2.02c1.055 1.935 2.11 3.871 3.164 5.808a851.992 851.992 0 0 0 3.468 6.281l1.641 2.953 1.523 2.723C852 1025 852 1025 852 1027h-13a3969.53 3969.53 0 0 1-5.5-9.875l-1.59-2.84-1.504-2.715-1.396-2.507C828 1007 828 1007 828 1005h-12v22h-12v-61Zm12 10v19l8.188.188 2.551.082c4.61.051 7.49-.336 11.261-3.27 2.425-2.425 2.686-3.62 3-7-.973-3.406-2.127-5.872-5-8-4.249-1.152-8.446-1.116-12.813-1.063L816 976ZM1274 966h44v10h-32v16h28v10h-28v15h32v10h-44v-61ZM1814 966h14a2418.91 2418.91 0 0 1 16.241 41.135c.59 1.536 1.18 3.072 1.773 4.607.834 2.166 1.665 4.335 2.494 6.504l.765 1.982c1.727 4.543 1.727 4.543 1.727 6.772h-13l-3-11h-28l-3 11h-13c2-6.93 4.285-13.64 6.906-20.355l1.11-2.867a3598.77 3598.77 0 0 1 2.309-5.947 4599.38 4599.38 0 0 0 3.515-9.063c.75-1.937 1.502-3.874 2.254-5.811l1.051-2.712A384.96 384.96 0 0 1 1814 966Zm6 14a13129.48 13129.48 0 0 0-4.5 12.438l-1.3 3.587-1.231 3.409-1.143 3.158c-.88 2.141-.88 2.141-.826 3.408h20c-1.123-3.396-2.248-6.792-3.375-10.188l-.96-2.908c-.31-.931-.62-1.862-.938-2.822l-.857-2.587c-.883-2.532-1.855-5.013-2.87-7.495h-2ZM1636 966h14a2418.91 2418.91 0 0 1 16.241 41.135c.59 1.536 1.18 3.072 1.773 4.607.834 2.166 1.665 4.335 2.494 6.504l.765 1.982c1.727 4.543 1.727 4.543 1.727 6.772h-13l-3-11h-28l-3 11h-13c2-6.93 4.285-13.64 6.906-20.355l1.11-2.867a3598.77 3598.77 0 0 1 2.309-5.947 4599.38 4599.38 0 0 0 3.515-9.063c.75-1.937 1.502-3.874 2.254-5.811l1.051-2.712A384.96 384.96 0 0 1 1636 966Zm6 14a13129.48 13129.48 0 0 0-4.5 12.438l-1.3 3.587-1.231 3.409-1.143 3.158c-.88 2.141-.88 2.141-.826 3.408h20c-1.123-3.396-2.248-6.792-3.375-10.188l-.96-2.908c-.31-.931-.62-1.862-.938-2.822l-.857-2.587c-.883-2.532-1.855-5.013-2.87-7.495h-2ZM879 966h14a2418.91 2418.91 0 0 1 16.241 41.135c.59 1.536 1.18 3.072 1.773 4.607.834 2.166 1.665 4.335 2.494 6.504l.765 1.982C916 1024.771 916 1024.771 916 1027h-13l-3-11h-28l-3 11h-13c2-6.93 4.285-13.64 6.906-20.355l1.11-2.867a3598.77 3598.77 0 0 1 2.309-5.947 4599.38 4599.38 0 0 0 3.515-9.063c.75-1.937 1.502-3.874 2.254-5.811l1.051-2.712A384.96 384.96 0 0 1 879 966Zm6 14a13129.48 13129.48 0 0 0-4.5 12.438l-1.3 3.587-1.231 3.409-1.143 3.158c-.88 2.141-.88 2.141-.826 3.408h20c-1.123-3.396-2.248-6.792-3.375-10.188l-.96-2.908c-.31-.931-.62-1.862-.938-2.822l-.857-2.587c-.883-2.532-1.855-5.013-2.87-7.495h-2ZM637 966h14a2418.91 2418.91 0 0 1 16.241 41.135c.59 1.536 1.18 3.072 1.773 4.607.834 2.166 1.665 4.335 2.494 6.504l.765 1.982C674 1024.771 674 1024.771 674 1027h-13l-3-11h-28l-3 11h-13c2-6.93 4.285-13.64 6.906-20.355l1.11-2.867a3598.77 3598.77 0 0 1 2.309-5.947 4599.38 4599.38 0 0 0 3.515-9.063c.75-1.937 1.502-3.874 2.254-5.811l1.051-2.712A384.96 384.96 0 0 1 637 966Zm6 14a13129.48 13129.48 0 0 0-4.5 12.438l-1.3 3.587-1.231 3.409-1.143 3.158c-.88 2.141-.88 2.141-.826 3.408h20c-1.123-3.396-2.248-6.792-3.375-10.188l-.96-2.908c-.31-.931-.62-1.862-.938-2.822l-.857-2.587c-.883-2.532-1.855-5.013-2.87-7.495h-2ZM481 966h11l.06 3.07c.077 3.797.165 7.593.257 11.39.038 1.635.073 3.271.105 4.907-.424 16.026-.424 16.026 6.578 29.633 2.573 1.287 4.502 1.168 7.375 1.188l2.898.042c2.812-.237 4.388-.683 6.727-2.23 3.973-6.474 4.152-13.041 4.316-20.46l.063-2.397c.065-2.506.125-5.012.183-7.518l.131-5.121c.107-4.168.208-8.336.307-12.504h11c.1 5.78.172 11.56.22 17.34.02 1.962.047 3.924.082 5.886.423 24.445.423 24.445-6.258 31.98-5.62 5.436-11.133 7.08-18.919 7.106-8.575-.153-14.292-1.798-20.652-7.636-5.706-6.492-5.619-14.977-5.57-23.133 0-.903.002-1.806.004-2.736.005-2.873.018-5.746.03-8.62A7151.666 7151.666 0 0 1 481 966ZM1394.004 969.324c5.426 4.316 7.737 8.888 8.996 15.676-4.055.344-7.958.54-12 0-2.5-2.875-2.5-2.875-4-6-4.556-3.03-9.751-2.572-15-2-3.654.997-6.076 2.7-8.313 5.848-3.498 6.694-3.974 14.315-2.039 21.59.701 1.887 1.519 3.73 2.352 5.562l1 3c5.742 3.445 11.478 3.513 18 3 3.489-.991 3.489-.991 6-3l1.27-2.594c1.73-2.406 1.73-2.406 4.648-2.894l3.27.176 3.292.136 2.52.176c-1.816 6.644-3.79 12.384-9.96 16.219-8.41 4.376-17.726 5.387-27.005 3.027-7.26-2.784-12.202-6.346-16.035-13.246-4.34-10.053-4.544-21.584-.906-31.89 2.86-6.66 7.48-11.837 13.937-15.153 9.63-3.716 21.243-3.402 29.973 2.367ZM1743 966h46c0 8.446-.116 10.448-5 16.25l-3.277 4.125-1.8 2.223c-3.586 4.48-7.021 9.077-10.486 13.652a7947.01 7947.01 0 0 1-4.066 5.328A1200.316 1200.316 0 0 0 1758 1016l30 1v10h-46c0-9.678.372-11.864 6.125-18.438 1.281-1.55 2.56-3.102 3.836-4.656l2.01-2.414c3.415-4.195 6.592-8.56 9.779-12.93l1.805-2.456c2.204-3.005 4.377-6.004 6.445-9.106l-29-1v-10ZM1543 966h44v10h-32v18h27v10h-27v23h-12v-61ZM916 966h50v10h-19v51h-12v-51h-19v-10ZM424 966h50v10h-19v51h-12v-51h-19v-10ZM568 966h12v51h32v10h-44v-61ZM1595 966h12v61h-12v-61ZM1097 966h12v61h-12v-61Z"/></svg>