<svg xmlns="http://www.w3.org/2000/svg" width="387" height="347"><path fill="#B21515" d="m194.188 149.438 2.342.118c5.345.319 5.345.319 6.47 1.444.253 2.466.433 4.901.563 7.375l.126 2.412c.828 17.85.366 35.734-.126 53.588l-.06 2.26c-.057 2.13-.12 4.259-.187 6.388l-.11 3.717A49.182 49.182 0 0 1 202 235c-5.887.092-11.701.101-17.563-.5-8.364-.846-16.354-.625-24.668.568-14.171 1.988-28.228 2.242-42.519 2.244l-2.998.01c-11.587.023-22.813-.37-34.252-2.322-1.252-3.722-.869-6.936-.531-10.816.993-13.683.34-27.42.031-41.121-.092-4.145-.182-8.29-.265-12.435-.052-2.564-.108-5.127-.17-7.69l-.07-3.473-.07-3.061C79 154 79 154 80 152l3.49.032c29.605.272 29.605.272 59.117-1.788 17.097-1.741 34.437-1.697 51.58-.806Z"/><path fill="#F1EDE4" d="m194.188 149.438 2.342.118c5.345.319 5.345.319 6.47 1.444.253 2.466.433 4.901.563 7.375l.126 2.412c.828 17.85.366 35.734-.126 53.588l-.06 2.26c-.057 2.13-.12 4.259-.187 6.388l-.11 3.717A49.182 49.182 0 0 1 202 235c-5.887.092-11.701.101-17.563-.5-8.364-.846-16.354-.625-24.668.568-14.171 1.988-28.228 2.242-42.519 2.244l-2.998.01c-11.587.023-22.813-.37-34.252-2.322-1.252-3.722-.869-6.936-.531-10.816.993-13.683.34-27.42.031-41.121-.092-4.145-.182-8.29-.265-12.435-.052-2.564-.108-5.127-.17-7.69l-.07-3.473-.07-3.061C79 154 79 154 80 152l3.49.032c29.605.272 29.605.272 59.117-1.788 17.097-1.741 34.437-1.697 51.58-.806Zm-60.644 4.276c-17.21 1.45-34.285 1.588-51.544 1.286v26c7.253 3.626 17.945 2.149 25.813 2.125l3.966.012 3.803-.004 3.445-.004c2.883-.025 2.883-.025 5.25-.7C126 182 126 182 128 183l2-1-1.063 1.75c-1.097 2.172-1.097 2.172-.812 4.375 1.149 2.461 2.44 2.81 4.875 3.875l1 2-5 1-1 6h6l1 5 5-1-.563 3.438L139 212l1 1c-6.75-.875-6.75-.875-9-2a79.677 79.677 0 0 0-4.633-.205l-2.912-.06-3.15-.051-3.22-.063a5113.51 5113.51 0 0 0-10.21-.184l-6.91-.13c-5.655-.108-11.31-.21-16.965-.307-.196 3.645-.38 7.291-.563 10.938l-.17 3.154-.146 2.998-.143 2.777c-.227 2.117-.227 2.117 1.022 3.133 21.515 2.994 43.225 2.889 64.7.072 12.763-1.512 25.528-1.287 38.36-1.136l2.577.027c1.613.02 3.227.043 4.84.074 1.841.025 3.683 0 5.523-.037 1.24-1.016 1.24-1.016 1.114-3.133l-.016-2.777-.01-2.998-.025-3.155-.014-3.166c-.012-2.59-.028-5.18-.049-7.771-7.518-1.613-14.631-2.292-22.313-2.188l-3.016.02A274.89 274.89 0 0 0 152 208h-1l-1-3-2 1 1-6h-5v-5l1 4h8l1-5-5 1v-5l-5-2v-5l-5 1v4h2v2h-7v-6l15-2v5h5v-5h-3v-2h-3l2-5v4l4 1 3-6-2.75-.875C151 172 151 172 148.875 170.75c-1.935-1.021-1.935-1.021-4.125.125L143 172v-2c4.19-.952 6.288-1.176 10 1h3l1 7c4.016.146 8.032.288 12.048.427 2.02.071 4.038.144 6.057.218 8.639.297 17.252.416 25.895.355.027-2.833.047-5.667.063-8.5l.025-2.398c.02-5.13-.349-10.025-1.088-15.102-8.564-.951-17.075-1.237-25.688-1.25l-2.123-.007c-12.947-.016-25.75.875-38.645 1.971Z"/><path fill="#FFF" d="M40 137h6v139h306v-64h6c.023 8.98.04 17.958.052 26.938.005 4.169.012 8.338.023 12.507.011 4.02.017 8.04.02 12.06.002 1.537.005 3.074.01 4.61.008 2.146.009 4.292.009 6.437l.006 3.708C358 281 358 281 357 282c-1.683.098-3.37.126-5.055.126l-3.34.008-3.715-.007-3.91.005c-3.6.004-7.198.002-10.797-.001-3.875-.003-7.75 0-11.624.004-7.597.004-15.194.003-22.79 0a34165.458 34165.458 0 0 0-26.512 0c-16.716.003-33.432 0-50.149-.006-14.359-.004-28.718-.003-43.078.001a98827.826 98827.826 0 0 1-57.93.003c-6.168 0-12.335 0-18.503.003-7.51.003-15.022.002-22.533-.003-3.836-.003-7.672-.004-11.508 0-4.148.003-8.297-.001-12.446-.006l-3.715.007-3.34-.008H43.15C41 282 41 282 40 281c-.097-1.86-.122-3.724-.12-5.587l-.004-3.676.01-4.07v-4.256c0-3.863.006-7.727.013-11.59.006-4.033.006-8.067.008-12.1.003-7.643.011-15.285.021-22.928.011-8.699.017-17.398.022-26.096.01-17.9.028-35.798.05-53.697ZM40 0h318v117h-5l-1-1V6H46v54l-1 1h-5V0Z"/><path fill="#033F7B" d="M168.708 206.942c2.993-.06 5.986-.1 8.98-.13l2.877-.04c6.673-.006 12.914.829 19.435 2.228.029 3.646.047 7.292.063 10.938l.025 3.154.01 2.998.016 2.777C200 231 200 231 199 232c-2.642.052-5.258.042-7.898-.008-1.68-.02-3.361-.039-5.042-.056l-2.687-.032c-13.087-.138-25.94-.109-38.935 1.596-20.636 2.684-40.768 1.377-61.438-.5-.881-2.978-1.067-5.453-.879-8.547l.147-2.558.17-2.645.158-2.691c.129-2.187.264-4.373.404-6.559 6.763.092 13.526.2 20.288.317 2.3.039 4.602.074 6.902.105 3.307.046 6.613.104 9.92.164l3.118.035 2.912.06 2.557.04c2.501.303 4.11 1.075 6.303 2.279 3.775.674 7.483.88 10.871-1.086l1.817-1.351c6.29-4.333 13.681-3.464 21.02-3.62Z"/><path fill="#F0EDE3" d="m125 180 3 2h2l-1 7 2.438 1.313C134 192 134 192 135 195h-6l-1 6 6-1 1 5h3l2-2 1 3-1 1c-.25 2.458-.25 2.458 0 5l2 2c-6.504.25-6.504.25-8.963-.99-2.308-1.144-3.813-1.272-6.375-1.297l-2.569-.04-2.75-.017-2.846-.044c-2.999-.047-5.998-.08-8.997-.112-3.948-.041-7.896-.095-11.844-.156l-2.75-.016-2.568-.04-2.251-.023c-2.773-.352-5.09-1.267-7.087-3.265-.088-2-.107-4.002-.098-6.004l.01-3.682.025-3.876.014-3.89c.012-3.182.028-6.365.049-9.548l3.96.496c7.542.754 15.096.611 22.665.566 1.496-.005 2.992-.01 4.488-.013 3.63-.011 7.258-.028 10.887-.049v-2Z"/><path fill="#FAFAFA" d="m194.188 149.438 2.342.118c5.345.319 5.345.319 6.47 1.444.253 2.466.433 4.901.563 7.375l.126 2.412c.828 17.85.366 35.734-.126 53.588l-.06 2.26c-.057 2.13-.12 4.259-.187 6.388l-.11 3.717A49.182 49.182 0 0 1 202 235c-5.887.092-11.701.101-17.563-.5-8.364-.846-16.354-.625-24.668.568-14.171 1.988-28.228 2.242-42.519 2.244l-2.998.01c-11.587.023-22.813-.37-34.252-2.322-1.252-3.722-.869-6.936-.531-10.816.993-13.683.34-27.42.031-41.121-.092-4.145-.182-8.29-.265-12.435-.052-2.564-.108-5.127-.17-7.69l-.07-3.473-.07-3.061C79 154 79 154 80 152l3.49.032c29.605.272 29.605.272 59.117-1.788 17.097-1.741 34.437-1.697 51.58-.806Zm-60.644 4.276C116.339 155.164 99.254 155.33 82 155a975.434 975.434 0 0 0 .908 50.707c.125 3.112.004 6.157-.162 9.266l-.15 2.974c-.106 2.081-.215 4.162-.328 6.242l-.147 2.971-.143 2.739c-.223 2.089-.223 2.089 1.022 3.101 21.515 2.994 43.225 2.889 64.7.072 12.763-1.512 25.528-1.287 38.36-1.136l2.577.027c1.613.02 3.227.043 4.84.074 1.841.025 3.683 0 5.523-.037 1.24-1.016 1.24-1.016 1.114-3.133l-.016-2.777-.01-2.998-.025-3.155-.014-3.166c-.012-2.59-.028-5.18-.049-7.771l-4-1 4-1c.805-5.649 1.148-11.11 1.133-16.813l.003-2.464c0-1.707-.001-3.415-.006-5.122-.005-2.594 0-5.187.007-7.78 0-1.67-.002-3.34-.004-5.008l.006-2.318c-.021-4.913-.446-9.63-1.139-14.495-8.564-.951-17.075-1.237-25.688-1.25l-2.123-.007c-12.947-.016-25.75.875-38.645 1.971Z"/><path fill="#D68C89" d="m136.066 169.902 2.496.036 2.504.027L143 170v2l6-2 2 2c1.984.714 3.983 1.386 6 2l-3 6-4-2v-3l-2 5h3v2h3v5h-5v-5l-15 2v6h7v-2h-2l1-5h4v5l5 2v5l5-1-1 5h-8l-1-5v6h5l-1 6 3-1v3l-2 2-1.375 1.563c-1.91 1.688-3.093 2.2-5.625 2.437l-3-2c-.188-2.5-.188-2.5 0-5v-2l-4 1-1-5h-6l1-6 5-1c-2.007-3.01-2.839-3.63-6-5a84.76 84.76 0 0 1 2-7l-3 1-1-3h-2l1-7c2.06-.515 4.118-1.027 6.188-1.5 2.249-.62 2.475-1.484 4.878-1.598Z"/><path fill="#FFF" d="m115 74 1 38 3 1v3h-9l-1-2-1.727.973c-3.735 1.688-7.26 1.702-11.273 1.027-3.567-1.757-5.594-4.224-7.438-7.75-.845-4.884-1.035-9.662 1.485-14.09C92.287 91.333 94.52 89.023 98 88c4.4-.314 7.167-.118 11 2-.06-1.626-.149-3.251-.25-4.875l-.14-2.742c-.366-2.554-.366-2.554-2.657-3.703L104 78l1-3c3.537-.808 6.278-1 10-1ZM97.187 93.313C94.475 97.166 94.54 101.472 95 106c.934 3.454.934 3.454 3 6 2.897 1.247 2.897 1.247 6 1 3.167-1.712 3.846-2.537 5-6 .5-4.84.648-8.753-1.625-13.125-2.283-2.114-2.283-2.114-5.438-2.375-2.902.271-2.902.271-4.75 1.813ZM175 74l.076 3.165c.094 3.875.194 7.75.296 11.624.044 1.677.085 3.354.125 5.031.058 2.41.122 4.82.187 7.23l.05 2.274c.043 5.654.043 5.654 2.828 10.364L180 115c-1.899 1.899-4.572 1.124-7.09 1.133C171 116 171 116 169 115l-2 1c-4.054.51-8.177.893-11.922-.941-3.227-2.549-5.153-5.081-6.078-9.059-.62-6.41.132-9.81 4-15 4.34-2.99 7.79-3.482 13-3l4 2-1-11-5-1v-2c3.877-1.193 6.916-2 11-2Zm-16.813 19.375c-3.057 4.184-2.612 8.621-2.187 13.625.902 3.094.902 3.094 3 5 2.897 1.247 2.897 1.247 6 1 2.537-1.198 2.537-1.198 4-4 1.203-5.215 1.83-10.233-1-15-1.88-2.298-1.88-2.298-4.938-2.313-3.03.041-3.03.041-4.875 1.688ZM28.117 77.605c2.095.604 2.095.604 4.883-.605l1 12c-4-1-4-1-5.5-3.438L27 83c-3.42-2.566-6.848-2.437-11-2-3.797 1.985-5.349 4.24-6.875 8.125-1.882 6.527-1.406 12.314 1.625 18.375 2.506 2.784 3.567 3.845 7.25 4.5 3.257-.134 6.037-.612 9-2 1.951-2.257 2.811-4.21 4-7l4 1v11h-7l-3 1c-7.063.676-13.556 1.041-19.41-3.402C1.009 107.994-.24 103.422-.5 97c.237-6.27 1.641-10.86 5.89-15.527 6.782-6.157 14.27-6.286 22.727-3.868ZM250 146l4-1 1 11h-4c-2.125-2.938-2.125-2.938-4-6-3.136-1.568-6.572-1.382-10-1-2.669.927-3.748 1.614-5.3 3.996-2.725 6.573-3.436 12.038-1.7 19.004 1.399 3.088 2.883 5.442 6 7 4.54.544 7.954.623 11.938-1.75 1.89-2.063 2.864-3.768 4.062-6.25l3-1v14l-3-1v-2l-2.813 1.5c-5.61 2.374-11.697 2.53-17.53.809-4.729-2.109-7.188-4.667-9.657-9.309-2.11-6.328-2.19-14.349.563-20.5 6.139-10.371 17.012-11.136 27.437-7.5ZM218 88l1 3 2.438-1.563c4.35-1.755 8.086-1.997 12.562-.437 2.17 1.822 2.895 3.316 3.324 6.108.196 2.55.297 5.086.363 7.642l.104 2.691c.082 2.186.152 4.372.209 6.559l3 1-1 3h-12v-3l2-1V93c-5.629-.545-5.629-.545-8.348 1.527-2.294 3.433-2.15 5.94-2.09 10.035l-.021 2.038c.039 3.022.1 4.937 1.986 7.365L223 115c-1 1-1 1-3.723 1.098l-3.34-.035-3.347-.028L210 116v-3l2-1c.08-2.959.14-5.916.188-8.875l.076-2.55.029-2.442.048-2.254L212 94l-3-2v-2c6.75-2 6.75-2 9-2ZM54 89h10l.148 3.797.227 4.953c.03.825.062 1.65.094 2.5l.117 2.422.095 2.222c.357 2.355 1.156 4.04 2.319 6.106 2.94-.184 2.94-.184 6-1 2.47-3.38 2.206-6.686 2.125-10.75l-.055-3.547L75 93l-3-1v-3h10l1 23 3 1-1 3h-8l-1-3-1.438 1.5c-3.78 2.213-7.279 2.083-11.562 1.5-2.52-1.26-3.624-1.945-4.57-4.602-.751-4.192-.754-8.478-.86-12.73-.073-2.361-.073-2.361-.57-5.668l-3-2v-2ZM302 156c3.86 2.001 6.994 4.094 9 8 1.103 4.471 1.367 7.918-.125 12.313-2.427 3.478-5.083 5.79-8.875 7.687-4.21.43-7.887.47-11.813-1.188-4.047-3.353-6.303-5.995-7.125-11.25-.382-5.476 1.38-8.76 4.938-12.875 4.051-3.418 8.947-3.318 14-2.687Zm-8.813 4.688c-3.315 3.505-3.48 6.576-3.402 11.312.322 2.995 1.272 4.722 3.215 7 2.292 1.65 2.292 1.65 5 2 2.797-1.171 4.451-2.294 6.313-4.688 1.383-4.654 1.306-8.731-.438-13.187-3.322-3.764-6.237-5.108-10.688-2.438ZM277.938 88.875C280 90 280 90 281 92c.15 1.447.249 2.899.316 4.352l.127 2.578.12 2.695.13 2.719c.107 2.218.209 4.437.307 6.656l4 1v3c-3.013 1.507-5.683 1.178-9 1l-2-2-3 2c-2.156.3-2.156.3-4.5.313l-2.344.05c-2.68-.451-3.542-1.208-5.156-3.363-.502-3.367-.534-5.2 1.375-8.063 3.917-2.89 8.223-4.887 12.625-6.937v-6c-2.373-.418-2.373-.418-5 0-1.862 2.409-1.862 2.409-3 5l-4-1c-.688-1.813-.688-1.813-1-4 3.963-5.35 11.13-4.855 16.938-3.125ZM267 106c-1.133 2.016-1.133 2.016-1 4l2 2c2.54-.091 2.54-.091 5-1 2.29-3.435 2.178-4.985 2-9-3.387 0-5.39 2.001-8 4ZM199.938 89.375C202 91 202 91 203 93c.15 1.373.248 2.753.316 4.133l.127 2.441.12 2.551.13 2.574c.107 2.1.207 4.2.307 6.301l4 1v3c-2.957 1.478-5.742 1.06-9 1l-1-3-1.438 1.5c-3.668 2.147-7.398 2.282-11.562 1.5-2.52-1.94-2.942-2.666-3.5-5.875.688-4.299 2.072-5.467 5.5-8.125 2.937-1.508 5.925-2.8 9-4v-6c-2.373-.418-2.373-.418-5 0-1.862 2.409-1.862 2.409-3 5l-5-1c.188-2.875.188-2.875 1-6 4.712-3.141 10.956-2.957 15.938-.625ZM189 106c-1.052 2.577-1.052 2.577-1 5 1.05 1.247 1.05 1.247 3.375 1.375 2.812-.102 2.812-.102 4.438-2.563 1.217-2.884 1.452-4.722 1.187-7.812-3.425 0-5.388 1.944-8 4ZM139.73 89.031C142 91 142 91 142.707 94.617c.06 1.419.094 2.838.106 4.258l.076 2.145c.119 3.659.133 7.32.111 10.98h5l-2 4c-6.625.25-6.625.25-10-2l-3 2c-3.065.527-5.937.551-9 0-2.188-2.125-2.188-2.125-3-5 .355-3.41 1.059-5.235 3.75-7.422 3.573-2.301 7.22-4.193 11.25-5.578l-2-6c-3.796.542-5.472 2.201-8 5l-3-1c-.313-2.313-.313-2.313 0-5 4.62-4.321 11.1-4.095 16.73-1.969ZM129 106c-.962 2.628-.962 2.628-1 5 2.345.77 2.345.77 5 1 1.913-.91 1.913-.91 3-3 .73-3.61.73-3.61 1-7-3.425 0-5.388 1.944-8 4ZM371.938 155.813l2.59-.043c2.648.246 4.238.806 6.472 2.23 1.175 2.35 1.2 3.95 1.316 6.57l.127 2.715.12 2.84.13 2.863c.107 2.337.209 4.675.307 7.012h4v3c-2.799 1.4-4.905 1.253-8 1-1.875-1.5-1.875-1.5-3-3l-1.563 1.5c-3.36 2.069-5.557 1.985-9.437 1.5-2.5-1.563-2.5-1.563-4-4-.25-3.438-.25-3.438 1-7 3.727-3.295 8.32-5.392 13-7v-5l-5-1-2 4h-5c-.625-1.813-.625-1.813-1-4 2.796-4.194 5.194-4.152 9.938-4.188ZM368 174c-1.133 2.016-1.133 2.016-1 4l2 2c2.54-.091 2.54-.091 5-1 2.29-3.435 2.178-4.985 2-9-3.387 0-5.39 2.001-8 4ZM326.5 155.688l2.844-.051c3.16.432 4.359 1.175 6.656 3.363.546 2.268.546 2.268.61 4.887l.097 2.842.043 2.958.09 2.995c.07 2.44.123 4.878.16 7.318h4v3c-2.771 1.386-4.933 1.188-8 1l-3-2-1.563 1c-3.351 1.375-5.847 1.385-9.437 1-2.5-1.625-2.5-1.625-4-4 0-3.433.52-5.321 2.5-8.125 3.539-2.654 7.412-4.233 11.5-5.875v-5l-5-1-2 4h-5v-6c3.248-1.923 5.744-2.297 9.5-2.313ZM322 174l-1 3 2 3c2.437-.27 2.437-.27 5-1 2.29-3.435 2.178-4.985 2-9-3.351 0-5.39 2.056-8 4ZM221 317h8l6 13c2.32-3.093 3.717-5.302 5.188-8.75l1.042-2.422L242 317h7l-1 3a73.19 73.19 0 0 0-.316 4.012l-.127 2.295-.12 2.38-.13 2.417c-.106 1.965-.207 3.93-.307 5.896l3 1v2h-10l2-4c.24-2.592.24-2.592.125-5.25L242 326l-6 14c-3-1-3-1-4.387-3.504l-1.3-3.058-1.325-3.067L228 328a559.991 559.991 0 0 0-.063 4.313l-.035 2.425c.001 2.43.001 2.43 1.098 5.262h-8l.992-1.484c1.426-3.559 1.22-6.998 1.133-10.766l-.027-2.258c-.024-1.83-.06-3.661-.098-5.492l-2-1v-2ZM281 156v6l-3.313-.25c-3.62-.141-3.62-.141-5.394 1.824-1.743 3.271-1.691 5.798-1.668 9.488l-.023 3.723c.114 3.198.114 3.198 1.921 5.149L274 183c-1 1-1 1-3.941 1.098l-3.622-.036-3.628-.027L260 184v-3l3-1c.027-2.25.046-4.5.063-6.75l.035-3.797c-.1-5.073-.1-5.073-2.66-9.203L259 159c3.402-2.094 6.053-2.18 10-2l1 3 2.125-2c3.31-2.302 4.937-2.366 8.875-2Z"/><path fill="#F1EDEF" d="m136.066 169.902 2.496.036 2.504.027L143 170v2l6-2 2 2c1.984.714 3.983 1.386 6 2l-3 6-4-2v-3l-2 5h-13l1-3-1-2-2 1 1 5-7 2-1-3h-2l1-7c2.06-.515 4.118-1.027 6.188-1.5 2.249-.62 2.475-1.484 4.878-1.598Z"/><path fill="#FFF" d="m157.531 323.867 3.395-.004 3.574.012 3.574-.012 3.395.004 3.138.004C177 324 177 324 178 325c.285 2.776.448 5.551.621 8.336.215 2.886.215 2.886 2.379 5.664-1 1-1 1-4.563 1.063L173 340l-1-2h2c.027-1.458.046-2.917.063-4.375l.035-2.46c.047-2.214.047-2.214-1.098-4.165l-4 1v12c-2.875.125-2.875.125-6 0l-2-2 2-1v-9h-4c-1.386 2.771-1.188 4.933-1 8l2 3c-1 1-1 1-4.563 1.063L152 340l-1-2h2c.054-1.604.093-3.208.125-4.813l.07-2.707c-.012-2.734-.012-2.734-2.195-5.48 1.745-1.745 4.161-1.13 6.531-1.133ZM349 151h2v6h6v4h-6l1 19 7-1c-.375 1.938-.375 1.938-1 4-3.092 1.546-5.594 1.294-9 1-2.188-1.418-2.188-1.418-4-4-.582-3.203-.606-6.375-.625-9.625a518.018 518.018 0 0 0-.102-5.164l-.018-2.303c-.09-2.148-.09-2.148-2.255-3.908a563.897 563.897 0 0 1 3.375-4l1.898-2.25L349 151Z"/><path fill="#FBFAF8" d="M144 195v5h5l-1 6 3-1v3l-2 2-1.375 1.563c-1.91 1.688-3.093 2.2-5.625 2.437l-3-2c-.188-2.5-.188-2.5 0-5v-2l-4 1-1-5h-6l1-6c5.235-.756 9.773-1.206 15 0Z"/><path fill="#FFF" d="M49 88v24l4 1v3H39l-1-3 4-2V93h-4v-3c7.625-2 7.625-2 11-2ZM253 88l.076 1.772c.116 2.66.239 5.319.362 7.978l.119 2.79.127 2.694.11 2.476c.202 2.246.407 4.178 1.206 6.29l3 1v3h-15v-3l4-1c.027-2.25.046-4.5.063-6.75l.035-3.797c-.055-3.84-.055-3.84-1.098-7.453l-3-1v-3c1.29-.336 2.583-.669 3.875-1l2.18-.563C251 88 251 88 253 88ZM28 317h9v2h-2v18l8-1 2-3h2c.043 2 .04 4 0 6-1 1-1 1-2.766 1.114l-2.27-.016-2.45-.01-2.577-.026-2.587-.013c-2.117-.012-4.233-.03-6.35-.049l-1-2 2-1c.027-2.77.047-5.542.063-8.313l.025-2.38.01-2.295.016-2.11c-.045-2.127-.045-2.127-1.114-4.902ZM115 317h9l-1 3c-.07 2.739-.094 5.45-.063 8.188l.014 2.271c.012 1.847.03 3.694.049 5.541 3.416.25 3.416.25 7 0l2-3h2c.043 2 .04 4 0 6-1 1-1 1-2.766 1.114l-2.27-.016-2.45-.01-2.576-.026-2.588-.013c-2.117-.012-4.233-.03-6.35-.049l.992-1.484c1.426-3.559 1.22-6.998 1.133-10.766l-.027-2.258c-.024-1.83-.06-3.661-.098-5.492l-2-1v-2ZM93 324c1.458-.054 2.916-.093 4.375-.125l2.46-.07C102 324 102 324 104 326c.195 2.602.195 2.602.125 5.625l-.055 3.04L104 337h2l-1 3c-1.958.054-3.916.093-5.875.125l-3.305.07C93 340 93 340 91 338c-.063-2.375-.063-2.375 1-5 2.239-1.666 4.475-2.76 7-4v-2l-3-1-1 3-3-1 1-4Zm5 8-2 2v3l4-2v-3h-2ZM47 324h6l1 13c4.034-1.447 4.034-1.447 4.68-3.84l.195-2.098.242-2.09c.03-2.298.03-2.298-2.117-4.972h6l.148 2.773.227 3.602c.07 1.183.14 2.367.21 3.586.117 3.145.117 3.145 2.415 5.039-1 1-1 1-3.438 1.063L60 340c-2.16-.035-2.16-.035-4.938.313C52 340 52 340 50.188 338.063c-1.327-3.42-1.72-6.436-1.977-10.075-.101-2.06-.101-2.06-1.211-3.988ZM254 324h9c1.322 2.645 1.097 4.678 1.063 7.625l-.028 3.04L264 337h3v2c-4.75 1.125-4.75 1.125-7 0-2.34.282-4.675.613-7 1l-2-5c2.49-2.667 4.634-4.557 8-6v-2l-3-1-1 3-3-1 2-4Zm2.938 10L255 336h4l1-4c-1.36-.116-1.36-.116-3.063 2ZM298 324c1.48-.027 2.958-.046 4.438-.063l2.496-.035C307 324 307 324 308 325c.072 2.02.084 4.042.063 6.063l-.028 3.347L308 337h3l-1 3-2.938-.563L304 339l-1 1a176.79 176.79 0 0 1-7-1c-.313-2.25-.313-2.25 0-5 2.313-2.313 2.313-2.313 5-4h3v-4c-3.118.646-3.118.646-4 3l-4-1 2-4Zm2 10v3h3l1-5c-1.462-.092-1.462-.092-4 2ZM194 324c2.5 1.5 2.5 1.5 4 4 .604 2.81.66 5.198 0 8-2.55 3-4.129 3.855-8 4.5-3.871-.645-5.45-1.5-8-4.5-.942-3.999-.611-6.981 1.5-10.5 3.536-2.122 6.479-2.291 10.5-1.5Zm-6 2c-2.302 3.452-2.345 4.947-2 9l2 2c3.307-.29 3.307-.29 6-2 .263-4.032.294-5.559-2-9h-4ZM334.977 323.531C337 324 337 324 339 327l-1 4h-10c.991 2.627.991 2.627 3 5 3.626.417 3.626.417 7 0-1 3-1 3-3 4-4.053.54-5.537.342-8.875-2.125C324 335 324 335 323.437 332c1.354-7.218 4.79-8.558 11.54-8.469ZM331 326l-1 2 4-1-3-1ZM145.977 323.531C148 324 148 324 150 327l-1 4-9 1 2 4h7c-1 3-1 3-3 4-3.17.276-5.376.27-8.313-1-2.575-3.052-2.978-6.063-2.687-10 2.473-5.396 5.548-5.54 10.977-5.469ZM142 326l-1 2h4v-2h-3ZM339 324h9l-1 4c.858 2.218.858 2.218 2 4l3-6h-2v-2h7l-7 15h-4l-1.277-2.773-1.66-3.602-1.653-3.586A191.286 191.286 0 0 0 339 324Z"/><path fill="#7F8AA6" d="M140 170h3v2l6-2 2 2c1.984.714 3.983 1.386 6 2l-3 6-4-2v-3l-2 5h-9l3-2h-4v-3l2-1-2-2 2-2Z"/><path fill="#FFF" d="M202 324c1.945-.293 1.945-.293 4.125-.188L210 324v5h-2v-2l-3 1 3 2.188c2.93 2.431 2.93 2.431 3.5 5.5C211 338 211 338 209 340c-2.715.328-5.252.13-8 0-1-1-1-1-1.063-3.563L200 334l3 1v2h3v-2l-2.438-1.875C201 331 201 331 200.063 328.937 200 327 200 327 202 324Z"/><path fill="#EFE0DA" d="m149 200-1 6 3-1v3l-2 2-1.375 1.563c-1.91 1.688-3.093 2.2-5.625 2.437l-3-2c-.28-2.806-.267-4.466 1-7v-4c3.073-.91 5.801-1.089 9-1Z"/><path fill="#FFF" d="M317.625 323.875 321 324v5l-5-3 2.375 2.313C321 331 321 331 323 334c-.25 2.625-.25 2.625-1 5-3.215 1.607-6.436 1.057-10 1v-6h2l2 3h2l1-2-2.375-.875C314 333 314 333 312 331c-.25-2.5-.25-2.5 0-5 2-2 2-2 5.625-2.125Z"/><path fill="#B92A2A" d="M133 174c2.063.438 2.063.438 4 1v4l14 1v2h3v5h-5v-5l-15 2-1 5h-5c1.63-6.753 1.63-6.753 5-9l-.563-2.438L132 175l1-1Z"/><path fill="#FFF" d="M290.625 323.875 293 324c.087 3.27.14 6.541.188 9.813l.076 2.814.029 2.705.048 2.491c-.424 2.707-1.155 3.568-3.341 5.177-3.063.375-3.063.375-6 0l-2-3 1-2 5 2 1-17-3-1c2-2 2-2 4.625-2.125ZM375.625 323.938l2.477.027L380 324l1 4-8-1c-.934 4.531-.934 4.531 0 9h8c-1 3-1 3-3 4-3.375.375-3.375.375-7 0-2.981-2.599-3.894-4.133-4.375-8.063.361-2.83.801-4.576 2.375-6.937 2.405-1.203 3.95-1.1 6.625-1.063ZM74.688 323.813l2.449.082L79 324l1 4-3.438-.563L73 327c-1.416 1.184-1.416 1.184-1.063 4.563L72 335c2.763.597 5.16 1 8 1-1 3-1 3-3 4-3.229.28-5.302.387-8.168-1.203C67 337 67 337 66.504 334.625l.058-2.625.004-2.625C67 327 67 327 68.234 325.199c2.292-1.557 3.709-1.506 6.454-1.387ZM272 321l1 2 3 1v3l-3 1v9h4l-1 3c-2 .043-4 .04-6 0-1.7-1.7-1.327-3.986-1.5-6.313-.297-4.01-.297-4.01-1.113-7.933L267 324c1.616-2.154 2.255-3 5-3Z"/><path fill="#FFF" d="M278 324h6l.148 2.773.227 3.602.21 3.586c.117 3.145.117 3.145 2.415 5.039-1 1-1 1-2.848 1.098L278 340l2-13-3-1 1-2ZM358 324h6c.168 2.104.334 4.208.5 6.313l.281 3.55A88.24 88.24 0 0 1 365 340h-7l-1-2 2-1c.468-2.356.468-2.356.625-5.063l.227-2.785L360 327l-3-1 1-2ZM82 324h6l.184 2.738.254 3.575c.08 1.171.162 2.343.246 3.55.203 3.163.203 3.163 1.316 6.137h-8l2-13-3-1 1-2Z"/><path fill="#FBF8F6" d="m127 185 .688 1.813c1.649 2.748 3.586 3.58 6.312 5.187l1 3h-6l-1 6 3 1h-2v4l3 1-4 1c-2.658-7.642-2.667-15.083-1-23Z"/><path fill="#134B83" d="M126 172h3v2h2l1 6-5 3-1-3h-2c.875-6.875.875-6.875 2-8Z"/><path fill="#FCFBFB" d="m143 193 3 2-1 4 2.313-.625C150 198 150 198 153 200h-3v4l4-3-1 6h8v1l-1.828.184-2.422.254c-.789.08-1.578.162-2.39.246-2.184.292-4.237.737-6.36 1.316l1-2h2l-1-2h-2l1-6h-5v-5h-5l4-2Z"/><path fill="#FFF" d="M256.375 75.188 258 76c-.258 1.86-.258 1.86-1 4-1.742 1.266-1.742 1.266-3.875 2.25l-2.117 1.016C249 84 249 84 246 84c1.599-4.316 5.44-9.202 10.375-8.813Z"/><path fill="#F7F5F5" d="m139 203 2 3-1 1c-.25 2.458-.25 2.458 0 5l2 2c-6.523.37-6.523.37-8.938-1.5L132 211h2l-1-5 2.438-.375L138 205l1-2Z"/><path fill="#D68E89" d="M145 200h4l-1 6 3-1v3c-3.333 3-3.333 3-6 3v-11Z"/><path fill="#FFF" d="M44 75c2.625.375 2.625.375 5 1 .043 1.666.04 3.334 0 5-1 1-1 1-3.563 1.063L43 82c-.625-2.375-.625-2.375-1-5l2-2Z"/><path fill="#EEDED6" d="M146 193h2l1 2 5-1-1 5h-8l1-6Z"/><path fill="#E6D8DC" d="m153 170 2.313.438L157 171l1 3-8-1-1-3-6 2v-2l-3-1c5.082-1.016 8.197-.921 13 1Z"/><path fill="#CFCED8" d="m140 170-4 1v3l-3 2 1 5-4 1 .5-2.313c.591-2.723.591-2.723.5-5.687l-2-1c3.833-2.706 6.325-3.326 11-3Z"/><path fill="#1D5086" d="m149 170 2 2c1.984.714 3.983 1.386 6 2l-1 2-2.125-.438c-2.95-.577-5.908-1.079-8.875-1.562v-3c2-1 2-1 4-1Z"/><path fill="#FFF" d="M312 317h10c-2 4-2 4-3.875 4.938-2.125.062-2.125.062-4.375-1.25L312 319v-2Z"/><path fill="#BA2F2F" d="M129 196h5l-1 5h-5l1-5Z"/><path fill="#DACECF" d="m126 172 3 1-2 1 3 1-1 4-3-1-2 2c.875-6.875.875-6.875 2-8Z"/><path fill="#B41C1C" d="M140 206h3v6h-4a99.984 99.984 0 0 1 0-5l1-1Z"/><path fill="#F0ECE1" d="M128 191h5l2 4h-7v-4Z"/><path fill="#B62121" d="M140 183h4v5h-5l1-5Z"/><path fill="#EFE5DD" d="M150 187h3l1 7-4-1v-6Z"/><path fill="#FFF" d="M90 316c-.188 1.875-.188 1.875-1 4-2.563 1.25-2.563 1.25-5 2 0-3 0-3 1.313-4.688C87 316 87 316 90 316Z"/><path fill="#BC3434" d="M135 201h4l-1 5-4-1 1-4Z"/><path fill="#FFF" d="M380 316c-.125 1.875-.125 1.875-1 4-3.063 1.25-3.063 1.25-6 2 1.475-3.403 2.856-6 7-6Z"/><path fill="#F1EBE2" d="M134 183c2.063.438 2.063.438 4 1l-1 5-3-1c-.75-2-.75-2-1-4l1-1Z"/><path fill="#9E616F" d="M133 174c2.063.438 2.063.438 4 1v4l-4 1a88.406 88.406 0 0 1-1-5l1-1Z"/><path fill="#DDA5A6" d="m130 207 4 1v3l-3 1-2-1 1-4Z"/><path fill="#F0EDE2" d="M135 207h3v5h-4l1-5Z"/><path fill="#BA2E2E" d="M140 195h4v4h-5l1-4Z"/><path fill="#B31A1A" d="M150 194h4l-1 5h-3v-5Z"/><path fill="#FDFDFC" d="M136 183h3v5h2v2h-7l1-2h2l1-4-2-1Z"/><path fill="#B11414" d="M129 185h4v4h-5l1-4Z"/><path fill="#E3C7C9" d="M143 206h1v5l5-1c-2.174 2.5-3.73 3.436-7 4l1-8Z"/><path fill="#EDDED6" d="M135 196h3v3h5v1h-8v-4Z"/><path fill="#FAF4F2" d="m148 187 3 1-1 5 2 1-4 2v-9Z"/><path fill="#8F4D5E" d="m151 175 4 1-1 4-4-2 1-3Z"/><path fill="#FFF" d="m361 316 3 1v3h-4l1-4ZM290 316l3 1-1 4-3-2 1-3ZM281 316l3 1-2 4-2-1 1-4Z"/></svg>