<svg xmlns="http://www.w3.org/2000/svg" width="1484" height="1034"><path fill="#FFF" d="M332 194h32c3.853 13.404 7.62 26.824 11.254 40.29l1.482 5.478c1.057 3.905 2.112 7.81 3.167 11.715 1.704 6.309 3.41 12.617 5.118 18.925l6.355 23.497c6.286 23.241 12.578 46.481 18.874 69.72l.894 3.3a71465.51 71465.51 0 0 0 32.619 119.96 59326.98 59326.98 0 0 0 6.458 23.682 19122.153 19122.153 0 0 0 3.073 11.268c.842 3.08 1.696 6.135 2.706 9.165l1.73-3.348c4.68-9 9.496-17.902 14.52-26.715a1102.39 1102.39 0 0 0 13.938-25.25c4.625-8.632 9.303-17.23 14.078-25.78 3.476-6.228 6.916-12.474 10.359-18.72a257947.295 257947.295 0 0 1 6.278-11.385c3.033-5.5 6.068-11 9.103-16.5L531 394.25l2-3.625 1-1.813 35-63.437 1-1.812a332576.988 332576.988 0 0 1 6.993-12.677c3.026-5.485 6.053-10.97 9.084-16.452l5.11-9.247 1.012-1.83c4.54-8.22 9.033-16.465 13.489-24.732 4.67-8.665 9.47-17.248 14.345-25.8 4.95-8.717 9.692-17.542 14.387-26.399l1.682-3.156 1.479-2.794c2.586-4.511 2.586-4.511 4.419-6.476 2.449-.481 2.449-.481 5.39-.454l3.382.001 3.552.062 3.267.013c3.165.016 6.33.053 9.494.096 5.74.07 11.48.115 17.219.166l7.262.066 3.17.03L697 194c-9.537 71.932-19.245 143.84-28.97 215.747l-1.397 10.333-.35 2.59a167536.35 167536.35 0 0 0-5.71 42.258c-1.976 14.645-3.955 29.289-5.937 43.933-1.103 8.153-2.204 16.305-3.304 24.458-.926 6.87-1.855 13.738-2.786 20.606-.473 3.495-.946 6.989-1.416 10.484-.508 3.778-1.02 7.555-1.534 11.333l-.45 3.36-.416 3.048-.357 2.638C644 587 644 587 643 590h-46c1.166-11.075 2.334-22.092 3.835-33.116l.525-3.906c.472-3.51.947-7.021 1.423-10.531.516-3.811 1.029-7.622 1.542-11.433.886-6.581 1.775-13.162 2.665-19.743 1.286-9.516 2.57-19.033 3.853-28.55 2.082-15.449 4.166-30.897 6.252-46.345l.377-2.794a317031879.267 317031879.267 0 0 0 6.072-44.98c2.08-15.416 4.16-30.832 6.238-46.248 1.281-9.5 2.563-19.001 3.847-28.502l2.63-19.48c.505-3.75 1.01-7.5 1.518-11.248.549-4.055 1.096-8.111 1.642-12.167l.491-3.621.44-3.27.383-2.839c.307-2.184.307-2.184.267-4.227l-1.262 2.389c-14.008 26.473-14.008 26.473-21.176 38.986-5.668 9.905-11.033 19.957-16.363 30.046-4.452 8.424-8.936 16.822-13.6 25.13-3.372 6.01-6.644 12.07-9.912 18.137A1082.078 1082.078 0 0 1 565.75 395c-5.662 9.922-11.024 19.987-16.352 30.09a921.52 921.52 0 0 1-15.445 28.11c-4.659 8.176-9.063 16.477-13.453 24.8-5.36 10.162-10.834 20.23-16.547 30.2-5.046 8.855-9.794 17.862-14.548 26.877a979.3 979.3 0 0 1-15.988 29.129 568.273 568.273 0 0 0-10.792 19.835c-2.533 4.867-2.533 4.867-3.625 5.959a233.75 233.75 0 0 1-8.629.098l-2.619-.005c-2.771-.005-5.543-.018-8.315-.03A6730.23 6730.23 0 0 1 420 590l-.863-3.267c-12.773-48.318-25.557-96.634-38.449-144.92a48134.11 48134.11 0 0 1-30.158-113.51 3724.8 3724.8 0 0 0-5.927-22.172l-1.69-6.257c-.522-1.927-1.05-3.853-1.577-5.78l-.937-3.468-.822-3.017C339 285 339 285 339 281h-2l-.285 2.535c-.82 3.975-2.32 7.318-4.152 10.902l-1.074 2.11c-9.983 19.157-24.054 35.601-40.4 49.648-3.215 2.777-6.358 5.633-9.51 8.48a1028.873 1028.873 0 0 1-5.157 4.618c-8.01 7.138-15.46 14.545-22.422 22.707l-2.355 2.691c-39.586 45.527-52.99 96.392-49.329 156.2.913 11.927 3.006 23.68 5.235 35.423.593 3.545 1.003 7.12 1.449 10.686l-17 4c-5.906-19.196-8.6-39.931-9-60l-.062-2.6c-1.055-50.894 9.14-98.913 41.062-139.4l1.632-2.073c6.304-7.97 12.803-15.69 19.743-23.115 2.648-2.837 5.23-5.727 7.813-8.625 3.343-3.678 6.75-7.047 10.55-10.246 2.994-2.57 5.873-5.255 8.762-7.941 3.495-3.246 6.997-6.464 10.625-9.563 30.897-27.01 43.96-62.466 46.752-102.833.26-5.508.204-11.028.05-16.54l-.052-2.49-.07-2.169C330 201 330 201 332 194ZM763 194c14.858-.07 29.715-.123 44.573-.155 6.901-.016 13.803-.037 20.704-.071 6.679-.034 13.357-.05 20.036-.059 2.529-.005 5.058-.016 7.587-.032 32.012-.199 68.92 1.901 93.788 24.88 1.794 1.789 3.567 3.6 5.312 5.437l2.223 2.168c15.59 16.01 19.25 37.768 18.992 59.266C975.56 309 967.512 330.23 952 348l-2.34 2.742c-7.814 8.913-16.554 15.968-26.347 22.57l-1.835 1.239c-4.337 2.857-8.8 5.195-13.478 7.449l1.57.623c22.525 9.017 42.727 21.339 53.053 44.387 9.124 21.714 9.044 47.294 3.377 69.99l-.504 2.038C960.506 518.382 950.687 534.55 937 549l-2.223 2.383c-26.128 27.189-68.151 37.605-104.77 38.707-3.244.032-6.487.034-9.73.024h-3.7c-3.311 0-6.622-.006-9.933-.013-3.474-.006-6.948-.006-10.422-.008-6.563-.003-13.125-.01-19.687-.021-7.478-.011-14.956-.017-22.433-.022-15.368-.01-30.735-.028-46.102-.05.604-8.255 1.523-16.42 2.685-24.613l.514-3.677c.466-3.334.935-6.668 1.406-10.002.509-3.612 1.014-7.225 1.52-10.838.877-6.265 1.757-12.53 2.639-18.793 1.285-9.135 2.567-18.27 3.847-27.407 2.093-14.928 4.189-29.857 6.287-44.785 2.011-14.316 4.022-28.632 6.031-42.948l.371-2.646a1070583.524 1070583.524 0 0 0 5.871-41.846 173100.285 173100.285 0 0 1 7.443-53.005l.951-6.775a27502.813 27502.813 0 0 0 7.97-57.167c1.013-7.306 2.024-14.611 3.031-21.917l1.226-8.86.565-4.103c.257-1.87.516-3.741.776-5.612l.437-3.168c.399-2.634.883-5.231 1.43-7.838Zm43 28a13542.07 13542.07 0 0 0-13.51 94.18c-.79 5.65-1.583 11.297-2.377 16.945-.62 4.414-1.238 8.827-1.855 13.241-.292 2.088-.585 4.176-.88 6.264-.403 2.87-.804 5.74-1.204 8.611l-.363 2.573c-.429 3.087-.811 6.065-.811 9.186 9.633.093 19.265.164 28.899.207 4.474.021 8.949.049 13.423.095 4.332.044 8.663.067 12.994.078 1.64.007 3.278.021 4.917.043 14.153.18 27.878-1.382 40.455-8.486l2.12-1.168c19.615-11.211 32.678-29.082 39.567-50.457 5.149-20.045 6.355-44.224-4.188-62.687A130.555 130.555 0 0 0 920 246l-1.52-2.11C907.176 229.699 889.345 224.218 872 222c-5.342-.35-10.652-.355-16-.293a1921.326 1921.326 0 0 0-15.694.087c-3.875.031-7.75.044-11.626.06-7.56.031-15.12.082-22.68.146Zm-25 177c-4.914 33.388-9.68 66.796-14.364 100.217a32626.44 32626.44 0 0 1-2.185 15.563 49842.062 49842.062 0 0 0-3.702 26.363c-.465 3.309-.928 6.618-1.391 9.927l-.42 2.98-.378 2.705-.33 2.353c-.27 1.905-.27 1.905-.23 3.892 7.165.047 14.33.082 21.495.104 3.33.01 6.66.025 9.99.047 38.928.25 78.442-1.085 108.14-29.678C914.919 515.519 921.877 491.427 923 467l.125-2.469c.47-18.127-4.363-35.18-16.688-48.719-12.738-11.952-29.931-17.003-47.104-16.926h-2.575c-2.791 0-5.583.008-8.375.016l-5.826.005c-5.1.003-10.2.013-15.299.024-5.208.01-10.417.015-15.625.02-10.211.01-20.422.028-30.633.049ZM1038 194h266c-1.844 25.813-1.844 25.813-11.479 37.17-2.788 3.354-5.389 6.853-8.021 10.33-1.11 1.454-2.22 2.907-3.332 4.36l-1.624 2.122c-3.838 5.014-7.692 10.015-11.544 15.018l-5 6.5-2.5 3.25-1.25 1.625-5 6.499-2.507 3.26c-2.045 2.659-4.09 5.317-6.138 7.975A6512.404 6512.404 0 0 0 1231.5 310.5 7355.61 7355.61 0 0 1 1215 332l-5 6.5-2.5 3.25-1.25 1.625-15 19.499-2.507 3.26c-2.045 2.659-4.09 5.317-6.138 7.975A6512.404 6512.404 0 0 0 1168.5 392.5 7355.61 7355.61 0 0 1 1152 414l-5 6.5-2.5 3.25-1.25 1.625-15 19.499-2.507 3.26c-2.045 2.659-4.09 5.317-6.138 7.975A6512.404 6512.404 0 0 0 1105.5 474.5 7355.61 7355.61 0 0 1 1089 496l-5 6.5-2.5 3.25-1.25 1.625-15 19.5-2.496 3.246a2862.69 2862.69 0 0 1-6.324 8.2l-1.297 1.677a5434.66 5434.66 0 0 1-3.516 4.541c-3.607 4.77-7.1 9.625-10.617 14.461l212 1c-1 13-1 13-4 30H977c4.49-29.182 4.49-29.182 14.38-39.268 2.778-2.97 5.107-6.26 7.495-9.544 4.296-5.793 8.683-11.507 13.125-17.188a925.43 925.43 0 0 0 13-17c4.842-6.5 9.798-12.903 14.79-19.29A834.302 834.302 0 0 0 1051 473c4.842-6.5 9.798-12.903 14.79-19.29A834.302 834.302 0 0 0 1077 439c4.842-6.5 9.798-12.903 14.79-19.29A834.362 834.362 0 0 0 1103 405a897.435 897.435 0 0 1 12.813-16.75c4.973-6.36 9.859-12.779 14.687-19.25a1222.894 1222.894 0 0 1 16.369-21.42c5.56-7.117 11.046-14.29 16.522-21.471 2.7-3.539 5.405-7.074 8.109-10.609l3.25-4.25 19.5-25.5 1.626-2.126 3.242-4.24c2.747-3.591 5.492-7.183 8.237-10.775a7380.52 7380.52 0 0 1 17.016-22.187c2.04-2.652 4.072-5.31 6.102-7.969l1.802-2.361c1.176-1.54 2.35-3.08 3.524-4.621l1.611-2.112 1.442-1.891C1240 226 1240 226 1241 225l-206-1c0-9 0-9 3-30ZM449 653h6v129h-6l-1-16-2.563 4.125c-4.091 6.094-8.766 11.073-15.949 13.402-9.7 1.843-19.791 1.365-28.488-3.527-9.598-6.599-15.073-15.365-17.375-26.75-1.682-12.19-.328-24.622 6.652-35.066C396.75 709.978 404.731 705.728 415 704c8.387-.81 16.252.826 23.25 5.625C442 713 442 713 448 722l1-69Zm-52.504 67.629c-7.39 9.509-7.61 20.807-6.496 32.371 1.557 8.252 5.588 14.604 12 20 7.795 5.258 15.776 6.18 25 5 7.416-2.033 12.94-7.46 16.734-13.98 5.238-10.238 7.16-19.764 4.204-31.207-3.093-8.887-8.846-16.041-16.938-20.813-12.114-5.793-25.858-.735-34.504 8.629ZM229 707c3.052 2.758 5.579 6.123 7 10v4h2l.5-2.5c2.602-6.07 7.348-10.935 13.5-13.5 6.316-1.9 12.094-1.593 18.18.96 5.383 3.074 7.815 8.426 9.82 14.04.798 3.989 1.123 7.758 1.114 11.822v3.396l-.016 3.618-.005 3.74c-.005 3.934-.018 7.866-.03 11.799-.006 2.67-.01 5.341-.014 8.012-.011 6.537-.028 13.075-.049 19.613h-6l-.018-2.02c-.064-6.977-.148-13.953-.244-20.93-.034-2.598-.062-5.198-.084-7.797-.034-3.749-.087-7.497-.142-11.245l-.02-3.49c-.147-8.187-.662-16.05-5.992-22.58-3.59-2.783-6.727-3.366-11.25-3.266-5.495.801-9.738 3.37-13.117 7.746-3.515 5.693-5.225 10.117-5.338 16.81l-.06 3.153-.051 3.385-.063 3.48c-.066 3.668-.125 7.336-.184 11.004l-.13 7.46c-.107 6.097-.21 12.194-.307 18.29h-6l-.011-2.052c-.042-7.09-.112-14.18-.197-21.27-.028-2.64-.049-5.281-.063-7.922-.022-3.811-.068-7.621-.12-11.432l-.003-3.54c-.13-7.38-.954-14.237-4.606-20.784-3.214-2.869-5.874-3.89-10.188-4.313-6.272.515-10.815 2.914-15.125 7.5-5.712 7.512-6.144 15.693-6.199 24.848l-.054 3.392c-.054 3.545-.088 7.09-.121 10.635a6666.99 6666.99 0 0 1-.104 7.249c-.085 5.896-.153 11.792-.209 17.689h-6v-76h6l1 12 2.688-3.75c7.558-10.019 18.977-13.78 30.312-7.25ZM1064.688 709.625c8.267 5.912 12.713 13.542 15 23.313.409 4.012.6 8.034.312 12.062-1 1-1 1-3.512 1.12l-3.385-.006h-3.822l-4.16-.016a5747.432 5747.432 0 0 1-15.394-.029c-3.794-.01-7.588-.015-11.381-.02-7.449-.01-14.897-.028-22.346-.049.43 2.23.875 4.457 1.324 6.684l.745 3.76c2.351 8.983 8.174 14.62 15.869 19.369 7.203 2.791 16.968 2.475 24.062-.438 6.544-3.5 11.224-8.03 15-14.375l5 2c-.865 6.917-5.75 11.401-11.027 15.621-9.162 6.114-19.326 6.209-29.973 5.379-9.667-2.028-16.986-8.554-22.375-16.625-6.399-11.518-7.045-24.88-3.625-37.375 3.536-10.252 9.286-17.963 19-23 11.812-4.992 23.742-4.053 34.688 2.625ZM1022 721c-4.89 6.545-5.125 10.254-6 19h57c0-9.622-2.456-16.26-9.063-23.309-6.1-5.325-13.02-7.07-20.96-6.964-8.503.78-15.367 4.964-20.977 11.273ZM883.895 711.203c7.672 6.548 12.079 14.742 13.105 24.797.116 3.004.215 6 0 9-1 1-1 1-3.512 1.12l-3.385-.006h-3.822l-4.16-.016a5747.432 5747.432 0 0 1-15.394-.029c-3.794-.01-7.588-.015-11.381-.02-7.449-.01-14.897-.028-22.346-.049.31 1.771.623 3.541.937 5.312l.527 2.987c1.715 8.64 6.41 14.73 13.536 19.701 6.503 4.032 13.521 3.749 21 3 9.786-2.437 15.514-7.77 21-16l5 2c-.705 6.923-5.922 10.74-11 15-9.905 6.294-21.442 7.9-32.922 5.352-9.597-3.488-16.307-10.466-21.078-19.352-5.347-12.449-4.99-25.212-1-38 5.111-10.605 12.02-17.006 23-21 11.015-3.39 22.741-.342 31.895 6.203ZM839 721c-4.347 6.515-5.1 10.9-6 19h57c0-9.622-2.456-16.26-9.063-23.309-6.39-5.579-13.52-7.064-21.804-6.964-8.149.71-14.817 5.204-20.133 11.273ZM357.895 711.203c7.672 6.548 12.079 14.742 13.105 24.797.116 3.004.215 6 0 9-1 1-1 1-3.512 1.12l-3.385-.006h-3.822l-4.16-.016a5747.432 5747.432 0 0 1-15.394-.029c-3.794-.01-7.588-.015-11.381-.02-7.449-.01-14.897-.028-22.346-.049.31 1.771.623 3.541.937 5.312l.527 2.987c1.715 8.64 6.41 14.73 13.536 19.701 6.503 4.032 13.521 3.749 21 3 9.786-2.437 15.514-7.77 21-16l5 2c-.705 6.923-5.922 10.74-11 15-9.905 6.294-21.442 7.9-32.922 5.352-9.597-3.488-16.307-10.466-21.078-19.352-5.347-12.449-4.99-25.212-1-38 5.111-10.605 12.02-17.006 23-21 11.015-3.39 22.741-.342 31.895 6.203ZM313 721c-4.347 6.515-5.1 10.9-6 19h57c0-9.622-2.456-16.26-9.063-23.309-6.39-5.579-13.52-7.064-21.804-6.964-8.149.71-14.817 5.204-20.133 11.273ZM1289.395 708.664c4.07 3.387 6.58 8.195 7.605 13.336.087 1.986.118 3.974.114 5.962v3.64l-.016 3.914-.005 4.018c-.003 3.518-.013 7.036-.024 10.554-.01 3.593-.015 7.186-.02 10.78-.01 7.043-.028 14.088-.049 21.132h-6l-1-11-3 3.75c-4.663 5.355-10.598 8.873-17.785 9.488-9.018.204-16.137-.767-23.152-6.738-6.68-8.095-6.947-15.296-6.063-25.5 2.14-6.271 7.026-10.885 12.82-13.969 10.45-4.29 22.643-2.91 32.922.996A82.53 82.53 0 0 1 1290 741c.082-2.688.14-5.374.188-8.063l.076-2.279c.069-5.332-.756-8.93-3.264-13.658-4.806-4.68-9.484-6.293-16.125-6.375-8.818.13-16.216 3.235-23.875 7.375l-3-5c13.347-9.124 30.784-13.229 45.395-4.336ZM1249 748c-3.93 5.422-3.788 11.566-3 18 2.88 6.094 7.435 10.06 13.75 12.375 6.523 1.282 12.767.82 18.563-2.563 6.822-4.832 10.542-10.772 12.687-18.812.29-3.368.258-6.631 0-10a803.12 803.12 0 0 0-5.625-2.438l-3.164-1.37c-10.505-3.898-25.03-3.869-33.211 4.808ZM752.395 708.664c4.07 3.387 6.58 8.195 7.605 13.336.087 1.986.118 3.974.114 5.962v3.64l-.016 3.914-.005 4.018c-.003 3.518-.013 7.036-.024 10.554-.01 3.593-.015 7.186-.02 10.78-.01 7.043-.028 14.088-.049 21.132h-6l-1-11-3 3.75c-4.663 5.355-10.598 8.873-17.785 9.488-9.018.204-16.137-.767-23.153-6.738-6.678-8.095-6.946-15.296-6.062-25.5 2.14-6.271 7.026-10.885 12.82-13.969 10.45-4.29 22.643-2.91 32.922.996A82.53 82.53 0 0 1 753 741c.082-2.688.14-5.374.188-8.063l.076-2.279c.069-5.332-.756-8.93-3.264-13.658-4.806-4.68-9.484-6.293-16.125-6.375-8.818.13-16.216 3.235-23.875 7.375l-3-5c13.347-9.124 30.784-13.229 45.395-4.336ZM712 748c-3.93 5.422-3.788 11.566-3 18 2.88 6.094 7.435 10.06 13.75 12.375 6.523 1.282 12.767.82 18.563-2.563C748.135 770.98 751.855 765.04 754 757c.29-3.368.258-6.631 0-10a803.12 803.12 0 0 0-5.625-2.438l-3.164-1.37c-10.505-3.898-25.03-3.869-33.211 4.808ZM674 707c5.834 4.734 8.841 11.42 9.812 18.793.416 4.89.308 9.8.286 14.703l-.005 3.602c-.005 3.78-.018 7.56-.03 11.34-.006 2.57-.01 5.139-.014 7.708-.011 6.285-.028 12.57-.049 18.854h-7l-.018-2.155a4573.14 4573.14 0 0 0-.218-20.17c-.044-3.455-.084-6.91-.11-10.367-.032-3.979-.086-7.958-.142-11.937l-.02-3.735c-.127-7.486-.522-12.973-5.367-18.948-4.987-3.96-9.952-4.358-16.125-3.688-5.916 1.45-10.97 3.883-14.379 9.117-3.142 5.461-4.717 9.689-4.826 16.019l-.06 3.093-.051 3.318-.063 3.413c-.066 3.597-.125 7.193-.183 10.79l-.131 7.316c-.107 5.978-.21 11.956-.307 17.934h-6v-76h6l1 12 1.758-2.082 2.367-2.73 2.32-2.708c8.472-8.226 21.263-8.359 31.555-3.48ZM953 710c3.211 3.349 5.53 6.592 7 11-3.75 3-3.75 3-6 3-1.332-1.863-1.332-1.863-2.813-4.313C947.9 714.591 944.93 712.28 939 711c-6.32-.725-11.86.006-17 4-2.663 4.146-2.615 8.228-2 13 1.457 3.788 2.91 5.436 6.516 7.3 3.132 1.325 6.293 2.523 9.484 3.7 9.298 3.674 16.909 6.82 23 15 1.962 5.886 2.017 12.602-.563 18.313-3.622 6.234-8.517 9.826-15.437 11.687-8.43.86-16.725.732-24-4-4.517-4.075-8.099-8.153-10-14v-3l5-2 .848 1.758c3.384 6.594 6.656 11.775 13.953 14.156 6.697 1.413 12.097 1.35 18.199-1.914 3.318-2.552 4.877-4.975 6-9 .48-4.4.398-7.897-2.371-11.535-4.874-4.383-11.501-6.66-17.54-9l-1.996-.776a433.532 433.532 0 0 0-5.648-2.1c-4.763-2.197-8.189-4.872-11.32-9.152-2.036-6.222-2.036-12.652 0-18.875C923.493 701.76 940.494 701.058 953 710ZM1223.16 711.238c1.84 1.762 1.84 1.762 2.461 3.93.004 2.207.004 2.207-.621 5.832-2.742-1.206-4.733-2.572-7.125-4.438-7.309-5.255-16.05-6.636-24.875-5.562-8.22 1.808-14.546 5.572-20 12-6.106 9.86-7.905 20.649-5.316 31.996 3.35 8.911 8.626 15.883 17.316 20.004 8.21 3.256 18.065 3.5 26.375.375 4.866-2.27 9.285-5.23 13.625-8.375.238 2.853.41 5.2 0 8-4.119 4.783-11.798 7.865-18 9-14.036.806-24.957-.46-36-10-8.55-8.665-11.377-18.001-11.563-29.938.092-11.18 2.794-20.105 10.68-28.316 15.175-14.073 35.371-15.591 53.043-4.508ZM571.16 711.238C573 713 573 713 573.621 715.168c.004 2.207.004 2.207-.621 5.832-2.742-1.206-4.733-2.572-7.125-4.438-7.309-5.255-16.05-6.636-24.875-5.562-8.22 1.808-14.546 5.572-20 12-6.106 9.86-7.905 20.649-5.316 31.996 3.35 8.911 8.626 15.883 17.316 20.004 8.21 3.256 18.065 3.5 26.375.375 4.866-2.27 9.285-5.23 13.625-8.375.238 2.853.41 5.2 0 8-4.119 4.783-11.798 7.865-18 9-14.036.806-24.957-.46-36-10-8.55-8.665-11.377-18.001-11.563-29.938.092-11.18 2.794-20.105 10.68-28.316 15.175-14.073 35.371-15.591 53.043-4.508ZM1100 680h6v26h12v6h-12v70h-6v-70h-13v-6h13v-26ZM983 680h6v26h12v6h-12v70h-6v-70h-13v-6h13v-26ZM1134 706h6v76h-6v-76ZM596 706h6v76h-6v-76ZM481 706h6v76h-6v-76ZM1066.8 666.219l2.2.781c0 4 0 4-2.676 6.918a252.095 252.095 0 0 1-3.637 3.27l-1.915 1.73C1045.676 692.45 1045.676 692.45 1040 695l-2-4c4.458-4.564 8.99-8.928 13.855-13.055 3.471-3.148 6.597-6.637 9.75-10.101C1064 666 1064 666 1066.801 666.219ZM1137.063 665.938 1140 666c1.125 2.313 1.125 2.313 2 5l-2 3c-2.5.313-2.5.313-5 0-2-2-2-2-2.188-4.563.28-3.635.523-3.423 4.25-3.5ZM599.063 665.938 602 666c1.125 2.313 1.125 2.313 2 5l-2 3c-2.5.313-2.5.313-5 0-2-2-2-2-2.188-4.563.28-3.635.523-3.423 4.25-3.5ZM484.063 665.938 487 666c1.125 2.313 1.125 2.313 2 5l-2 3c-2.5.313-2.5.313-5 0-2-2-2-2-2.188-4.563.28-3.635.523-3.423 4.25-3.5Z"/></svg>