<svg xmlns="http://www.w3.org/2000/svg" width="870" height="286"><path fill="#FFF" d="M844.84 205.77h2.473c13.484.027 13.484.027 14.687 1.23.54 3.954.365 5.513-2.063 8.75-5.118 3.92-10.983 4.52-17.266 5.224l-2.123.243c-2.312.263-4.625.517-6.939.771l-4.932.556c-4.397.495-8.795.981-13.193 1.466-2.741.303-5.482.609-8.222.916-21.531 2.41-43.064 4.692-64.637 6.699-16.914 1.579-33.738 3.586-50.563 5.938l-3.113.43A579.642 579.642 0 0 0 649 245c13.858.286 27.574-.486 41.394-1.482 3.836-.276 7.673-.541 11.51-.806 11.762-.823 23.51-1.705 35.244-2.868 23.981-2.345 47.709-3.203 71.79-3.156l2.272.003c4.981.009 9.962.034 14.942.07l3.897.024 3.54.038 3.108.03C839 237 839 237 840 238c.188 2.938.188 2.938 0 6-2.232 2.232-3.054 2.412-6.062 3.004l-2.527.499-2.743.505-2.854.532c-8.891 1.589-17.774 2.452-26.774 3.128-17.895 1.358-35.721 3.21-53.54 5.332l-3.116.363c-10.742 1.255-21.41 2.702-32.04 4.7l-2.634.491c-4.102.804-7.886 1.692-11.71 3.446 10.685.122 21.274-.232 31.938-.875l4.672-.269c7.509-.44 14.991-.971 22.477-1.713 11.683-1.149 23.308-1.36 35.038-1.393l2.557-.016c2.421-.011 4.842-.008 7.263 0l2.194-.012c4.323.04 7.84.694 11.861 2.278.313 3.25.313 3.25 0 7-2.83 3.25-5.235 4.244-9.402 4.617-1.845.098-3.69.183-5.535.258-11.392.702-22.55 2.268-33.813 4.063l-2.471.386c-8.58 1.346-17.01 2.791-25.38 5.158-3.44.743-6.011.365-9.399-.482l-2-5c1.249-.482 2.5-.96 3.75-1.438l2.11-.808c2.03-.715 4.044-1.268 6.14-1.754a64.728 64.728 0 0 0-12.176-1.133l-3.51-.004-3.626.012-3.592-.012c-5.655.007-11.146.182-16.752.901-5.14.517-10.308.463-15.469.486l-3.457.063c-6.232.028-10.97-.154-16.418-3.313-1.43-2.523-1.052-3.733-.5-6.563 3.06-4.972 10.065-5.976 15.468-7.276l2.595-.599 2.72-.639c10.17-2.338 20.433-4.168 30.717-5.923-10.712-.198-21.215.297-31.88 1.283-45.271 4.143-45.271 4.143-52.854-1.595-2.25-3-1.445-6.056-1.266-9.688 6.924-2.966 13.815-5.2 21.125-7 .898-.235 1.797-.47 2.723-.71 22.07-5.51 44.743-7.587 67.322-9.81 3.944-.39 7.887-.789 11.83-1.187 7.666-.773 15.333-1.536 23-2.293-6.051-.065-11.989-.046-18.008.664l-3.915.454-4.202.507-4.499.527c-9.258 1.088-18.508 2.232-27.759 3.38l-3.223.398c-5.242.648-10.483 1.3-15.723 1.963-19.146 2.4-38.232 4.473-57.546 4.357l-4.082.023c-17.002-.033-17.002-.033-21.84-3.596C592 228 592 228 592.118 225.977c1.577-3.531 4.597-5.13 7.883-6.977 5.498-1.95 11.276-2.914 17-4l3.413-.658c41.135-7.794 41.135-7.794 49.587-2.342-.25 1.896-.25 1.896-1 4-5.29 3.015-12.011 3.653-17.973 4.387l-2.45.323c-2.545.334-5.092.656-7.64.977l-5.224.682c-4.237.553-8.474 1.095-12.713 1.631 14.484-.515 28.823-1.785 43.228-3.353 3.766-.41 7.532-.811 11.299-1.211 11.232-1.198 22.46-2.422 33.68-3.733 23.892-2.773 47.824-4.9 71.798-6.81 2.5-.2 5-.407 7.5-.615 18.123-1.5 36.144-2.525 54.335-2.508ZM767 219v1h6v-1h-6ZM755.69 2.357C757 4 757 4 758 7l-1 2 3.621-.105c15.68-.317 15.68-.317 23.379 3.105l1 5c-3.146 1.8-5.787 2.388-9.378 2.772l-3.306.365-3.612.375-3.814.415c-3.448.374-6.896.74-10.344 1.103-3.606.381-7.21.772-10.815 1.16-6.824.737-13.648 1.464-20.473 2.19-7.771.825-15.541 1.66-23.311 2.495A42073.277 42073.277 0 0 1 652 33c10.109.089 20.107.045 30.184-.875l6.517-.547 3.337-.288c15.98-1.365 31.835-2.682 47.882-2.352 9.445.172 18.772-.512 28.186-1.225a289.641 289.641 0 0 1 26.335-.727l2.508.041 2.167.055c2.112-.005 2.112-.005 4.884-1.082 6.541-.23 6.541-.23 9 1 .362 5.437.362 5.437-1.061 7.646-2.857 1.995-5.773 1.999-9.15 2.198l-2.22.164c-2.433.177-4.866.334-7.3.492a3114.228 3114.228 0 0 1-18.698 1.313c-31.116 2.114-61.472 4.304-91.884 11.625-3.056.723-6.112 1.443-9.17 2.163-1.981.466-3.962.934-5.944 1.404-9.158 2.16-18.355 4.11-27.573 5.995a186468.564 186468.564 0 0 0 10.434-.926c4.897-.435 9.793-.871 14.69-1.312 9.86-.884 19.72-1.757 29.589-2.56 21.734-1.77 43.41-3.753 65.04-6.522l2.416-.31a3261.823 3261.823 0 0 0 23.686-3.119c39.687-5.378 39.687-5.378 45.121-2.035 1.44 2.508.67 4.05.024 6.784-8.311 1.613-16.642 2.813-25.04 3.883l-4.129.531c-3.71.476-7.423.948-11.135 1.417l-7.003.889c-30.49 3.866-61.025 7.278-91.584 10.553l-2.09.225-6.131.657-3.974.426c-2.609.28-5.217.558-7.826.836-3.687.393-7.374.792-11.06 1.192l-3.252.344c-13.882 1.519-27.078 4.516-40.26 9.094-3.691 1-6.71 1.215-10.516.953-2-1.25-2-1.25-3-3 .437-2.11.437-2.11 1-4l-2.055.035c-13.332.13-13.332.13-18.945-1.035-2-2-2-2-2.125-4.625L582 66c10.076-5.939 19.372-8.435 30.797-10.42 5.761-1.044 11.49-2.252 17.221-3.442 2.17-.45 4.341-.898 6.512-1.345C652.034 47.597 667.518 44.305 683 41l-1.996.212c-10.625.98-21.238.974-31.9.973-3.256.003-6.512.02-9.768.04-2.073.003-4.146.005-6.219.005l-2.945.022-2.723-.01-2.391.005C623 42 623 42 620 40c-.188-2.625-.188-2.625 0-5 8.089-3.779 14.987-6.316 24-6v-2l-2.375-.312C639 26 639 26 637 23c.375-2.687.375-2.687 1-5 9.686-3.686 19.468-5.136 29.708-6.429C674.262 10.68 679.3 9.311 685 6c4.326-2.437 7.606-3.423 12.559-3.695l3.825-.23 4.053-.2 4.17-.234c3.478-.193 6.956-.37 10.435-.542 2.933-.148 5.865-.314 8.798-.478 2.011-.104 4.023-.207 6.035-.308.9-.049 1.8-.098 2.728-.147 14.55-.648 14.55-.648 18.088 2.19ZM739 10v1h9v-1h-9Zm-8 1 4 1ZM628 61l4 1ZM487.171 85.823l3.35-.039 3.659-.022 3.75-.025c2.632-.014 5.263-.025 7.894-.032 4-.013 7.998-.061 11.996-.105 2.558-.01 5.115-.019 7.672-.026l3.597-.053c11.506.03 20.306 2.807 28.677 10.83 8.016 9.502 9.965 19.692 9.409 31.693-.728 8.147-5.566 15.246-11.175 20.956a56.1 56.1 0 0 1-8 5c.624 3.961 2.616 6.553 4.875 9.812 4.32 6.46 7.777 13.245 11.125 20.25l1.457 3.03c3.935 8.362 3.935 8.362 4.543 12.908-1 1-1 1-4.051 1.114-1.349 0-2.698-.006-4.047-.016l-2.148-.005c-2.272-.005-4.544-.018-6.817-.03-1.537-.006-3.074-.01-4.61-.014-3.776-.011-7.552-.028-11.327-.049-6.85-13.658-6.85-13.658-9.152-18.445C521.993 170.09 521.993 170.09 514 159h-4l.016 3.748c.018 4.571.03 9.143.039 13.714.005 1.982.012 3.964.02 5.945.013 2.843.018 5.685.023 8.527l.015 2.702c0 2.121-.05 4.243-.113 6.364-1.803 1.803-4.54 1.13-6.969 1.133l-3.668.004-3.863-.012-3.863.012-3.668-.004-3.393-.004C482 201 482 201 481 200a66.57 66.57 0 0 1-.127-4.403l-.009-2.881.007-3.187-.006-3.335c-.004-3.659-.001-7.317.002-10.975l-.003-7.59c-.001-5.309 0-10.619.006-15.928.005-6.147.003-12.294-.002-18.44-.005-5.903-.005-11.806-.002-17.708 0-2.517 0-5.034-.002-7.55-.003-3.511.001-7.022.007-10.532l-.007-3.187.009-2.88.001-2.519c.262-3.922 2.972-3.029 6.297-3.062ZM510 116a97.709 97.709 0 0 0-.125 5.5l-.008 3.031c-.146 2.413-.146 2.413 1.133 3.469 3.784.28 7.582.232 11.375.25l3.234.062 3.102.016 2.853.028c2.476-.167 2.476-.167 4.247-1.689 1.828-2.562 1.507-4.61 1.189-7.667-1.722-3.248-1.722-3.248-5-4a86.59 86.59 0 0 0-4.852-.133l-2.828-.004-2.945.012-2.969-.012-2.82.004-2.592.004C511 114.78 511 114.78 510 116ZM283 86c6.047-.075 12.093-.129 18.14-.165 2.052-.015 4.104-.035 6.156-.061C329.335 85.5 329.335 85.5 339 89l3.375 1.219c14.94 7.292 24.939 18.997 30.898 34.492 5.039 15.873 2.292 33.583-5.086 48.102C359.798 187.165 346.9 195.77 331 200c-5.495.958-10.807 1.16-16.363 1.168l-2.646.01c-1.833.005-3.666.007-5.5.007-2.812.003-5.625.02-8.438.04-1.785.003-3.57.005-5.354.005l-2.553.022c-5.917-.023-5.917-.023-8.146-2.252-.249-1.974-.249-1.974-.247-4.441l-.013-2.83.017-3.114-.006-3.272c-.003-3.583.007-7.166.019-10.75v-7.442c.003-5.873.014-11.746.03-17.62.014-6.017.015-12.035.014-18.053 0-5.124.006-10.25.013-15.374.003-2.466.005-4.931.006-7.397.002-3.44.011-6.881.022-10.322l-.002-3.114.013-2.83.005-2.467C282 88 282 88 283 86Zm29 30a91.131 91.131 0 0 0-.114 5.162v3.337l.016 3.63.005 3.695c.005 3.913.018 7.826.03 11.738.006 2.646.01 5.29.014 7.936.011 6.5.028 13.001.049 19.502 2.062.046 4.125.078 6.188.105l3.48.06c6.125-.303 10.456-2.587 15.082-6.477 6.54-7.812 9.887-13.958 9.691-24.454-.968-7.095-4.456-13.762-9.628-18.734-4.866-3.63-19.363-10.95-24.813-5.5ZM45.706 85.773c1.12.01 2.24.02 3.396.032l3.671.02 3.852.05 3.875.027c3.167.024 6.333.057 9.5.098 4.076 8.469 7.396 17.151 10.647 25.958 1.614 4.37 3.243 8.736 4.873 13.1l1.06 2.839c5.495 14.686 11.163 29.306 16.805 43.937l1.264 3.279 2.345 6.074c.69 1.789 1.377 3.578 2.06 5.37.616 1.59 1.25 3.172 1.904 4.746 1.513 3.714 2.279 5.868 1.042 9.697-4.075.099-8.15.171-12.225.22-1.387.02-2.773.047-4.159.082-1.992.048-3.986.069-5.98.089l-3.633.063C83 201 83 201 81.145 199.105c-1.467-2.697-2.646-5.454-3.79-8.3-2.02-2.691-4.134-2.942-7.355-3.805-4.65-.358-9.298-.33-13.96-.316-2.232.004-4.462-.02-6.694-.045-1.422-.003-2.843-.003-4.264-.002l-3.9-.01c-3.135.103-3.135.103-5.056 1.743-1.48 2.143-2.307 4.307-3.189 6.755-1.72 4.766-1.72 4.766-3.937 5.875-2.093.097-4.19.13-6.285.133l-3.795.004-3.983-.012-3.994.012-3.79-.004-3.5-.004C1 201 1 201 0 200c.452-5.698 2.129-10.572 4.184-15.875l.991-2.612c1.08-2.84 2.172-5.677 3.262-8.513l2.277-5.97a7994.398 7994.398 0 0 1 6.042-15.785c2.072-5.403 4.136-10.809 6.201-16.214a12716.73 12716.73 0 0 1 10.24-26.727c1.468-3.813 2.929-7.628 4.356-11.456l1.338-3.567L40 90.283c1.405-3.21 2.145-4.211 5.705-4.51ZM55 134c-1.177 3.08-2.34 6.164-3.5 9.25l-1.012 2.645-.957 2.558-.888 2.349c-.83 2.456-.83 2.456-.643 6.198h17c-.702-3.509-1.348-6.188-2.629-9.426l-.947-2.412-.987-2.475-.998-2.533C58.63 138.101 57.817 136.05 57 134h-2ZM408.82 85.432l3.38.08 3.661.049 3.826.126 3.862.069c3.151.059 6.3.141 9.451.244a146.861 146.861 0 0 1 7.371 16.691l.955 2.542c1.04 2.775 2.076 5.552 3.111 8.33a13645.64 13645.64 0 0 0 5.731 15.278c2.918 7.763 5.875 15.51 8.854 23.249l2.184 5.68c2.851 7.42 2.851 7.42 5.713 14.837 1.334 3.45 2.661 6.904 3.987 10.358l1.213 3.12c3.52 9.2 3.52 9.2 3.881 13.915-2.632 2.632-9.732 1.319-13.3 1.35-1.38.017-2.76.044-4.138.082-1.987.055-3.974.074-5.96.091l-3.615.06C446 201 446 201 444.193 198.768c-1.082-2.511-2.063-4.972-2.88-7.58l-.762-2.395L440 187c-5.357-.025-10.714-.043-16.07-.055-1.823-.005-3.646-.012-5.468-.02-2.62-.013-5.238-.018-7.857-.023l-2.471-.015c-3.304 0-5.977.06-9.134 1.113-1.123 2.467-1.908 4.977-2.742 7.555-1.624 3.157-3.077 3.905-6.258 5.445-3.046.34-3.046.34-6.395.293l-3.642-.03-3.776-.076-3.833-.04c-3.119-.036-6.236-.085-9.354-.147.53-5.947 1.82-10.846 4.043-16.367l.959-2.45c1.054-2.69 2.12-5.374 3.185-8.058 1.543-3.924 3.078-7.85 4.614-11.777l1.24-3.164c3.355-8.581 6.628-17.191 9.877-25.813l1.502-3.98a8977.203 8977.203 0 0 0 5.92-15.733 5743.9 5743.9 0 0 1 4.152-11.03l1.248-3.342 1.17-3.092 1.008-2.687c3.159-7.321 3.159-7.321 6.901-8.075ZM419 134c-3.517 7.187-6.147 14.213-8 22 1.189 1.418 1.189 1.418 4.598 1.098 1.488-.007 2.976-.019 4.464-.036l2.3-.013c1.879-.012 3.758-.03 5.638-.049-.649-5.086-2.13-9.551-3.938-14.313l-.802-2.205c-1.237-3.961-1.237-3.961-4.26-6.482ZM191 86h28c1.166 3.499 1.132 6.253 1.142 9.947l.01 2.13c.008 1.525.013 3.05.017 4.576.007 2.417.023 4.835.041 7.252.052 6.873.1 13.745.116 20.618.01 4.205.04 8.41.081 12.615.013 1.6.018 3.2.015 4.8-.002 2.243.02 4.485.048 6.727l.018 3.862c.681 4.621 2.564 7.943 6.262 10.848 5.128 1.425 8.863 1.306 13.563-1 3.908-3.454 5.495-6.665 6.079-11.861l.025-3.88.026-2.156c.024-2.333.029-4.665.034-6.998.014-1.625.03-3.251.047-4.877.042-4.265.067-8.53.087-12.797.036-6.845.097-13.69.159-20.535.019-2.394.03-4.788.041-7.182l.031-4.37.02-3.868C247 87 247 87 248 86c1.988-.1 3.979-.13 5.969-.133l3.668-.004 3.863.012 3.863-.012a598133927.816 598133927.816 0 0 1 7.06.008C275 86 275 86 276 87c.116 2.436.168 4.845.177 7.283l.02 2.311c.02 2.54.031 5.078.041 7.617l.013 2.63c.02 4.603.035 9.207.044 13.81.011 4.735.045 9.47.085 14.205.027 3.655.035 7.31.038 10.965.005 1.743.017 3.487.035 5.23.147 14.671-1.833 26.734-12.265 37.887-9.053 8.468-20.322 12.68-32.711 12.308-12.648-1.257-22.881-5.623-31.657-14.914-9.627-12.334-10.121-25.647-10.05-40.547v-4.991c.002-3.47.01-6.938.024-10.407.017-4.45.021-8.902.02-13.353 0-3.427.006-6.854.013-10.281.003-1.642.005-3.285.006-4.927.002-2.286.011-4.571.022-6.857l.011-3.942C190 88 190 88 191 86ZM827 87l2.237.22c2.531.263 5.052.575 7.576.905l2.427.28c5.95.898 9.77 3.057 13.76 7.595 2.488 4.562 3.706 8.808 4 14-.988 2.207-.988 2.207-2 4l-3.326-.095c-4.152-.11-8.304-.178-12.458-.235-1.782-.03-3.564-.07-5.346-.123-11.333-.325-20.458.542-30.895 5.154C800 120 800 120 798 120l1 2c2.525.43 4.97.732 7.516.965l2.323.239c2.47.253 4.94.495 7.411.734 19.897 1.93 34.877 3.474 48.637 19.332 3.96 5.117 5.417 9.072 5.05 15.542-1.326 8.982-3.5 15.61-10.58 21.5-4.065 2.912-8.444 4.835-13.044 6.75l-3.014 1.283c-17.462 7.236-41.224 15.896-60.111 9.03-5.12-2.493-7.647-5.734-10.5-10.625-1.33-5.32-1.532-10.618.5-15.75 2.323-2.564 3.317-3.612 6.812-4 1.715 1.223 1.715 1.223 3.625 2.875 5.01 4.111 9.124 3.635 15.375 3.125 4.94-.64 9.805-1.524 14.688-2.5l1.994-.392c10.794-2.159 19.894-5.475 29.318-11.108l3-1c-.113-1.959-.113-1.959-1-4-4.771-2.644-10.314-2.804-15.637-3.402l-6.377-.76c-3.332-.389-6.665-.775-9.998-1.158-3.23-.374-6.459-.76-9.687-1.145l-2.978-.332c-9.76-1.172-19.234-2.901-26.323-10.203-5.37-7.407-7.987-13.829-7-23 1.924-8.332 9.19-12.652 16-17 11.95-7.013 28.171-11.501 42-10ZM594 82c12.05 7.132 17.413 18.595 23.005 30.803 6.38 13.653 15.11 25.862 24.995 37.197l2.262 2.664c2.777 3.255 2.777 3.255 5.738 6.336h2c1.696-11.086 2.05-22.177 1.992-33.375l-.01-2.233c-.02-3.74-.054-7.478-.107-11.218l-.035-4.197-.051-3.78c.201-3.052.43-4.736 2.211-7.197 5.564-1.855 9.616-.532 14.758 1.781 3.147 1.71 4.627 2.988 6.242 6.219 1.248 6.898.973 13.69.441 20.64l-.42 6.144-.227 3.203c-1.19 16.79-2.204 33.47-1.682 50.305.23 9.991.23 9.991-3.112 14.708-3.89 1.945-8.123 1.424-12.246.492-7.432-2.653-10.523-8.16-14.754-14.492a464.45 464.45 0 0 0-5.688-7.688l-1.527-2.038c-7.395-9.808-15.105-19.427-23.289-28.59-1.658-1.867-3.263-3.774-4.871-5.684L607 139h-1a195.114 195.114 0 0 0-.922 23.715c.027 2.171.053 4.342.078 6.514.044 3.373.095 6.745.166 10.118.067 3.29.102 6.578.131 9.868l.088 3.055c.027 6.985.027 6.985-2.929 10.865-3.446 2.46-5.305 2.532-9.401 2.287-5.616-1.072-9.077-4.895-12.211-9.422-1.454-4.36-1.19-8.553-1.188-13.125l-.001-3.243c.065-10.811.625-21.588 1.189-32.382 2.185-25.666 2.185-25.666-1.383-50.867-.934-3.605-.727-5.83.383-9.383 3.975-5.071 7.736-7.01 14-5Z"/><path fill="#FFF" d="M747.25 93.813c5.976 4.753 9.107 10.306 12.25 17.124l1.178 2.528c6.606 14.45 10.685 28.563 10.635 44.535l.048 3.078c.008 11.878-3.311 22.176-11.33 31.117-10.95 10.434-22.129 12.995-36.718 13.118l-3.436.087c-10.329.078-17.713-2.557-26.252-8.338l-2.96-1.964c-9.94-7.826-11.8-20.212-13.426-32.062-1.62-13.814 1.759-23.744 7.761-36.036l1.41-3.148C693.467 108.558 706.737 96.926 722 90c8.899-2.775 17.322-.609 25.25 3.813ZM722 118l-1.785 1.242C709.152 127.663 701.035 142.366 699 156c-.838 13.493-.838 13.493 3.2 26.09 4.192 4.447 11.908 4.776 17.75 5.047 10.957-.547 19.794-6.122 27.05-14.137 6.546-9.498 7.174-18.566 5.387-29.883-1.508-7.249-3.89-13.809-7.324-20.367l-.981-1.878c-2.148-3.845-4.322-6.553-8.082-8.872-5.875-.958-9.52 2.662-14 6ZM87 86c4.484-.149 8.967-.257 13.452-.33 1.525-.03 3.05-.07 4.574-.123 2.195-.073 4.388-.106 6.583-.133.68-.03 1.359-.062 2.059-.094 1.94-.001 1.94-.001 5.332.68 3.338 3.823 5.091 8.216 6.98 12.895l.783 1.917c.815 1.998 1.62 3.999 2.424 6 .817 2.02 1.636 4.037 2.457 6.054.739 1.817 1.472 3.635 2.204 5.454.901 2.553.901 2.553 2.152 3.68l1.361-3.197c1.662-3.902 3.327-7.802 4.993-11.702.721-1.69 1.442-3.38 2.162-5.072 1.033-2.426 2.069-4.85 3.105-7.275l.979-2.304c2.286-5.336 2.286-5.336 3.4-6.45a168.29 168.29 0 0 1 7.316-.098l2.216.005c2.343.005 4.687.018 7.03.03A4809.622 4809.622 0 0 1 185 86c-.542 4.601-1.757 7.854-4.035 11.874l-1.931 3.465-1.035 1.838c-16.966 30.318-31.67 56.829-27.188 92.664L151 199c-2.685 2.685-4.065 2.258-7.813 2.266l-3.507.007-3.68-.023-3.68.023-3.507-.007-3.231-.007C123 201 123 201 121 199c-.164-2.91-.164-2.91-.055-6.633.03-1.37.057-2.74.084-4.11.017-.716.034-1.432.05-2.17.313-15.295-.371-28.166-7.516-42.107l-1.038-2.05c-1.171-2.313-2.348-4.621-3.525-6.93a8394.24 8394.24 0 0 1-10.003-19.731 1948.483 1948.483 0 0 0-3.037-5.972 1871.61 1871.61 0 0 1-4.429-8.746l-1.382-2.686-1.256-2.512-1.112-2.189C86.878 90.662 86.86 88.64 87 86ZM851 64c2.15 3.224 2.383 4.267 2 8-2.513 2.513-3.775 2.432-7.266 2.86l-3.344.434-3.64.456c-12.023 1.597-23.844 3.734-35.71 6.231-11.285 2.36-21.965 3.23-33.476 3.26-2.23.009-4.458.04-6.687.072-8.295.06-15.73-.576-23.807-2.623-10.661-2.396-20.634.012-30.921 2.83-5.215 1.166-10.367 1.606-15.7 1.69l-3.767.081-3.995.084c-13.429.33-26.587 1.613-39.916 3.295-9.298 1.108-18.48 1.823-27.771.33v-4c10.598-3.173 20.513-4.289 31.553-4.496 9.26-.258 18.327-1.2 27.51-2.361 4.608-.581 9.22-1.139 13.83-1.697l2.962-.36c11.56-1.392 23.137-2.637 34.715-3.875l3.285-.352c7.756-.831 15.513-1.658 23.27-2.484 7.837-.835 15.674-1.671 23.51-2.511 3.058-.327 6.115-.651 9.172-.975 11.033-1.178 22.045-2.455 33.043-3.929 10.25-1.334 20.96-2.105 31.15.04Z"/></svg>