<svg xmlns="http://www.w3.org/2000/svg" width="1096" height="1226"><path fill="#FFF" d="m376 632 2.07.667c26.005 8.562 49.664 23.126 72.875 37.36 15.934 9.71 33.535 17.675 52.13 20.383C505 691 505 691 507 694c.336 2.996.336 2.996.375 6.438l.086 3.433C507 707 507 707 505.555 709.266c-3.698 2.51-7.471 3.146-11.805 4.047-19.673 4.546-36.875 14.612-54 25.062-49.57 30.164-102.248 49.544-160.474 35.779-32.191-8.011-60.746-24.06-89.339-40.466-2.544-1.458-5.09-2.916-7.636-4.372-1.453-.83-2.905-1.664-4.356-2.5-12.5-7.155-26.412-13.88-40.914-15.234-2.834-.812-3.59-2.056-5.031-4.582-1.069-4.009-1.255-7.825-.375-11.875 3.41-5.27 9.482-6.048 15.188-7.375 17.966-4.494 33.739-13.344 49.46-22.946C225.812 646.767 256.814 631.47 291 625l3.48-.688c27.485-4.554 55.27-.86 81.52 7.688Zm-92 16-4.152 1.027c-23.604 6.14-49.34 17.22-68.848 31.973v1c6.99-.465 13.95-1.068 20.906-1.902l2.112-.252c2.852-.342 5.704-.687 8.555-1.041 25.007-3.091 50.034-4.19 75.22-4.123 2.124.006 4.248.008 6.372.01 21.943.033 43.715.706 65.543 3.06 2.462.266 4.924.525 7.387.783A2296.33 2296.33 0 0 1 428 682c-2.854-2.346-5.631-4.505-8.863-6.297l-2.162-1.203-2.288-1.25-2.412-1.324C392.676 661.241 372.798 652.186 351 647l-3.848-.969c-20.63-4.46-42.84-3.488-63.152 1.969Zm-21 58c-1.35 12.148 5.7 22.901 12.656 32.219 8.968 10.998 22.098 17.66 36.078 19.562 17.674 1.184 33.86-3.417 47.516-14.968 9.956-9.435 16.312-22.018 16.75-35.813-3.59-3.59-9.125-2.763-14-3l-3.543-.2-3.457-.112-3.188-.114c-3.588.543-4.613 1.586-6.812 4.426-1.274 2.36-1.274 2.36-2.313 4.875-2.765 5.77-6.223 9.36-11.917 12.262-6.785 2.115-16.575 1.956-23.332-.2-7.687-4.332-11.164-9.59-14.493-17.68-.748-2.186-.748-2.186-1.945-3.257-14.895-1.354-14.895-1.354-28 2Zm52-2c1.165 1.666 1.165 1.666 3 3 2.655-.23 2.655-.23 5-1v-2h-8Zm-85.566 3.926-2.17.326a836.57 836.57 0 0 0-4.52.699c-2.3.36-4.603.705-6.906 1.047-1.468.225-2.936.45-4.404.678l-2.078.31c-3.443.55-6.347 1.216-9.356 3.014 13.19 9.075 27.317 16.954 41.75 23.875l2.11 1.029c3.934 1.919 3.934 1.919 8.14 1.096l-1.426-3.191c-4.152-9.536-7-18.512-8.574-28.809-4.364-1.201-8.17-.77-12.566-.074ZM397 710c-.898 2.036-.898 2.036-1.465 4.438l-.736 2.714-.736 2.848c-1.903 7.232-4.129 14.115-7.063 21 17.523-5.007 35.177-15.5 50-26-3.312-2.947-5.987-3.578-10.34-4.168l-3.72-.518-3.877-.501-3.866-.538c-9.49-1.9-9.49-1.9-18.197.725ZM772.242 624.797l2.325-.017c1.619-.01 3.237-.016 4.856-.02 2.411-.01 4.822-.04 7.233-.072 16.11-.113 31.103 2.43 46.469 7.312 1.235.39 2.47.78 3.742 1.18 24.108 7.85 46.21 20.261 67.93 33.16 18.463 10.958 36.345 20.62 57.586 24.95C965 692 965 692 967 694c.371 3.117.371 3.117.438 6.875l.12 3.742C967 708 967 708 964.962 710.332c-3.504 1.974-6.869 2.76-10.774 3.48-18.55 3.932-35.405 13.98-51.468 23.747C876.156 753.674 848.37 767.79 818 775l-3.855.969C792.773 780.73 766.21 780.26 745 775l-2.48-.602c-34.19-8.528-64.918-26.037-95.122-43.668-20.95-12.3-20.95-12.3-44.336-18.105-3.062-.625-3.062-.625-5.5-2.5-2.283-4.567-2.54-9.119-1.562-14.125 2.146-3.847 3.43-4.833 7.695-6.082 1.475-.255 2.952-.498 4.43-.73 23.99-4.662 45.214-19.642 66.125-31.625 29.946-17.143 62.742-32.556 97.992-32.766Zm-87.93 50.453-2.287 1.25c-3.976 2.213-7.558 4.518-11.025 7.5l1.775-.228c36.14-4.62 71.944-8.18 108.402-8.09 2.235.006 4.47.007 6.703.009 22.815.027 45.44.662 68.12 3.309l3.744.437a789.888 789.888 0 0 1 15.658 2.012c3.91.522 7.658.664 11.598.551-18.24-21.146-62.97-34.729-90-37-41.903-1.795-76.404 10.324-112.688 30.25ZM777 704v3c4.102 1.015 4.102 1.015 8 0l-1-3h-7Zm-50 3c-2.301 6.903.6 14.766 3.563 21.125 7.328 13.48 19.595 23.041 34.023 28.164 15.428 4.544 30.348 2.542 44.527-4.93A106.794 106.794 0 0 0 817 746l2.172-1.582c10.528-8.386 16.3-20.507 18.703-33.543L838 708c-3.74-3.74-9.933-2.746-15-3l-3.574-.34c-5.979-.616-5.979-.616-11.14 1.809-1.315 2.116-2.296 4.246-3.286 6.531-4.092 7.334-7.845 11.178-15.953 13.578-8.838 1.822-17.527.081-25.235-4.453-3.875-3.555-5.986-8.717-8.296-13.36-1.225-2.857-1.225-2.857-3.516-3.765-3.078-.238-6.164-.185-9.25-.188l-2.566-.037c-4.736-.01-8.825.136-13.184 2.225Zm-34.879 1.059-2.327.329c-1.621.23-3.243.461-4.864.693a2957 2957 0 0 1-7.46 1.054l-4.724.674-2.26.315c-3.863.522-3.863.522-7.486 1.876v2c1.724 1.327 1.724 1.327 4.004 2.617l2.652 1.573 2.907 1.685 2.964 1.734c7.238 4.191 14.566 8.195 21.973 12.078l2.908 1.53c4.455 2.302 8.747 4.402 13.592 5.783l-1.25-4.188-.824-2.761a497.37 497.37 0 0 0-1.946-6.258c-1.877-5.929-3.502-11.722-4.488-17.867-.374-2.148-.374-2.148-2.492-3.926-3.685 0-7.24.539-10.879 1.059ZM858 709l-.664 2.973c-2.027 8.732-4.655 16.865-8.164 25.113-1.296 2.7-1.296 2.7-1.172 4.914 5.5-.928 9.926-3.197 14.875-5.688l2.883-1.442C876.873 729.2 887.451 722.649 898 716l-1-2c-2.055-.643-2.055-.643-4.566-1.035l-2.89-.513-3.106-.514-3.136-.535c-8.433-1.381-16.761-2.155-25.302-2.403ZM553 261c3.53.998 5.755 2.101 8 5a109.388 109.388 0 0 1 1.75 7.688c4.713 21.646 17.365 40.893 28.313 59.875 16.472 28.591 30.83 57.53 35.937 90.437l.313 2c2.552 19.178 2.28 41.203-2.313 60l-.602 2.49c-7.537 30.203-21.914 57.585-37.94 84.082-11.434 19.045-21.511 37.884-25.685 59.916C560 635 560 635 557 637c-2.813.23-2.813.23-6 .188l-3.188-.02C545 637 545 637 542 636c-.872-2.063-.872-2.063-1.578-4.785l-.818-3.023-.854-3.255c-5.56-19.97-14.732-37.28-25.374-55.016-31.527-52.616-50.018-107.069-34.813-168.296 7.379-27.66 21.878-52.294 36.307-76.773 10.376-17.693 20.386-35.358 24.7-55.563 1.91-8.526 5.377-9.111 13.43-8.289Zm-3 44-1.187 2.145a13939.69 13939.69 0 0 1-5.563 10.043l-1.028 1.853c-4.45 8.023-8.953 16.01-13.534 23.959-3.847 6.7-7.614 13.434-11.25 20.25l-1.23 2.273c-2.642 5.012-4.575 10.054-6.208 15.477l3.5-1.188c4.534-1.504 9.075-2.983 13.625-4.437l2.025-.66c18.268-5.79 37.744-3.023 55.143 4.2 2.244.9 4.35 1.579 6.707 2.085-6.38-19.324-17.413-36.973-27.707-54.402-4.213-7.135-8.267-14.356-12.293-21.598h-1Zm-42 105c-12.07 14.66-15.505 30.46-14 49 2.957 16.515 13.46 29.794 27.02 39.242 12.883 7.599 28.477 10.466 43.144 6.887 15.514-4.898 28.524-13.095 36.559-27.54 7.28-14.759 9.455-30.94 4.59-46.839-6.284-16.92-18.274-28.695-34.434-36.2-21.694-7.875-47.314-1.397-62.879 15.45Zm0 105c9.989 22.28 22.272 43.408 34.45 64.547 2.564 4.458 5.065 8.95 7.55 13.453 2.414-2.209 3.9-4.375 5.426-7.262l1.392-2.603 1.495-2.822A627.92 627.92 0 0 1 572 556.125a411.508 411.508 0 0 0 13.813-25.375l1.544-3.085c2.824-5.648 2.824-5.648 4.643-11.665-4.393.682-8.3 2.231-12.375 3.938-21.254 8.877-41.024 6.85-62.066-1.536A158.34 158.34 0 0 0 508 515ZM789.656 814.766c5.644 3.082 8.36 8.297 10.344 14.234.65 5.223.586 10.384.488 15.633-.01 1.488-.016 2.976-.021 4.463-.02 3.884-.068 7.766-.124 11.65-.051 3.975-.074 7.95-.099 11.926-.053 7.776-.141 15.552-.244 23.328h-20l-.06-5.564c-.068-6.091-.145-12.182-.228-18.273-.05-3.69-.096-7.38-.134-11.07-.037-3.567-.083-7.133-.136-10.699-.027-2.011-.045-4.023-.063-6.035.014-10.946.014-10.946-4.067-20.859-3.359-2.179-5.36-2.027-9.312-1.5-10.393 3.394-18.995 12.544-24 22-.935 4.142-.958 8.118-.902 12.352l-.038 3.454c-.031 3.607-.015 7.212.003 10.819-.014 2.46-.03 4.92-.05 7.379-.04 5.999-.038 11.997-.013 17.996h-20v-80h20l1 21 3.5-4.563c10.9-13.538 26.289-22.821 44.156-17.671ZM343.656 814.766c5.644 3.082 8.36 8.297 10.344 14.234.65 5.223.586 10.384.488 15.633-.01 1.488-.016 2.976-.021 4.463-.02 3.884-.068 7.766-.124 11.65-.051 3.975-.074 7.95-.099 11.926-.053 7.776-.141 15.552-.244 23.328h-20l-.06-5.564c-.068-6.091-.145-12.182-.228-18.273-.05-3.69-.096-7.38-.134-11.07-.037-3.567-.083-7.133-.136-10.699-.027-2.011-.045-4.023-.063-6.035.014-10.946.014-10.946-4.067-20.859-3.359-2.179-5.36-2.027-9.312-1.5-10.393 3.394-18.995 12.544-24 22-.935 4.142-.958 8.118-.902 12.352l-.038 3.454c-.031 3.607-.015 7.212.002 10.819-.013 2.46-.029 4.92-.048 7.379-.041 5.999-.04 11.997-.014 17.996h-20v-80h20l1 21 3.5-4.563c10.9-13.538 26.289-22.821 44.156-17.671ZM972.438 812.625l3.062.005c8.626.142 15.079 1.642 22.438 6.183 5.5 5.833 7.191 11.65 7.176 19.516v3.882l-.016 4.18-.005 4.287c-.003 3.755-.013 7.51-.024 11.265-.01 3.834-.015 7.668-.02 11.502-.01 7.519-.028 15.037-.049 22.555h-20l-1-10-1.836 1.61c-8.96 7.553-17.974 12.127-29.89 11.171-7.825-1.12-13.814-3.81-19.149-9.718-4.599-6.628-4.911-13.182-4.125-21.063 2.294-9.559 7.914-16.141 15.938-21.563C955.918 839.84 971.005 832 984 832c-.86-6.726-.86-6.726-4-12.563-4.224-3.035-7.921-3-13-2.437-9.437 2.79-16.494 8.935-22.555 16.46L943 835h-2c-.67-2.124-1.336-4.25-2-6.375l-1.125-3.586C937 822 937 822 937 820c2.122-.8 4.247-1.59 6.375-2.375l3.586-1.336c8.396-2.833 16.648-3.679 25.476-3.664ZM958 847.879c-6.59 7.015-9 14.537-9 24.121.662 6.425 2.443 11.943 7.5 16.29 4.091 2.783 7.4 3.146 12.234 2.315 6.48-1.731 12.427-4.926 16.266-10.605.81-3.492.702-6.861.586-10.43l-.026-3c-.033-3.15-.109-6.297-.185-9.445-.03-2.14-.057-4.281-.082-6.422-.066-5.235-.166-10.469-.293-15.703-9.669 0-20.108 6.404-27 12.879ZM254.875 824.125c8.854 9.807 11.6 22.104 11.305 34.938-.69 11.259-4.516 22.615-13.051 30.406-12.898 9.277-25.79 9.557-41.129 8.531-9.689-1.8-17.527-7.508-23.684-15.074-8.116-11.874-8.012-27.995-5.668-41.723 2.975-9.813 9.353-18.175 18.352-23.203 17.592-7.592 39.022-7.11 53.875 6.125Zm-46.492 1.828c-5.99 8.865-7.769 19.869-7.696 30.36l.013 2.505c.229 12.459 3.45 24.121 12.3 33.182 4.789 3.265 9.359 3.986 15 3 6.817-2.57 10.822-7.625 14-14 6.681-16.479 6.32-33.596-.441-50.008-3.021-5.8-7.289-11.564-13.559-13.992-8.815-1.378-14.163 2.27-19.617 8.953ZM697.805 820.023c5.947 5.051 10.6 10.152 12.195 17.977.088 1.344.13 2.692.133 4.04l.004 2.257-.012 2.328.012 2.352c-.01 5.77-.01 5.77-1.137 8.023h-59c2.415 18.845 2.415 18.845 13.063 33.813 5.044 3.756 9.843 3.924 15.937 3.187 10.895-3.452 19.004-12.347 26-21 2.161 2.161 2.716 3.521 3.688 6.375l.824 2.336c.556 2.608.58 3.856-.512 6.289-11.949 10.02-26.63 11.068-41.51 10.223-11.28-1.01-20.61-6.882-28.303-14.973-9.484-11.48-10.466-24.995-9.187-39.25 2.4-10.532 8.864-18.604 17.875-24.375 14.511-7.867 35.978-9.667 49.93.398Zm-40.422 5.782C651.6 834.985 650 843.28 650 854h41c1.159-11.59 1.085-22.214-6-32-3.542-3.297-6.734-4.796-11.5-5.563-6.786 1.091-11.836 3.963-16.117 9.368ZM587 801l-1 14c-5.615-2.246-5.615-2.246-8.375-4.531l-1.797-1.457-3.656-3.024c-6.71-5.44-11.175-6.388-19.828-5.511-9.836 1.54-16.766 6.079-23.344 13.523-8.673 12.865-10.536 29.859-7.785 44.836 2.913 11.74 8.557 21.9 18.625 28.883 6.679 3.961 14.285 6.969 22.16 6.281 6.847-2.11 11.905-6.322 16.992-11.23 1.93-1.7 3.664-2.745 6.008-3.77.336 1.937.669 3.875 1 5.813l.563 3.269C587 891 587 891 587 894c-10.636 3.114-20.779 4.407-31.875 4.438l-3.38.029c-14.023-.141-28.678-3.857-39.16-13.725-11.473-12.604-14.298-27.077-13.721-43.63.873-13.54 7.29-25.036 17.136-34.112 18.41-13.86 50.262-16.369 71-6ZM177 801l-1 14c-5.615-2.246-5.615-2.246-8.375-4.531l-1.797-1.457-3.656-3.024c-6.71-5.44-11.175-6.388-19.828-5.511-9.836 1.54-16.766 6.079-23.344 13.523-8.673 12.865-10.536 29.859-7.785 44.836 2.913 11.74 8.557 21.9 18.625 28.883 6.679 3.961 14.285 6.969 22.16 6.281 6.847-2.11 11.905-6.322 16.992-11.23 1.93-1.7 3.664-2.745 6.008-3.77.336 1.937.669 3.875 1 5.813l.563 3.269C177 891 177 891 177 894c-10.636 3.114-20.779 4.407-31.875 4.438l-3.38.029c-14.023-.141-28.678-3.857-39.16-13.725-11.473-12.604-14.298-27.077-13.721-43.63.873-13.54 7.29-25.036 17.136-34.112 18.41-13.86 50.262-16.369 71-6ZM432 816c.926 3.644.986 6.174.063 9.813l-.59 2.394L431 830a177.384 177.384 0 0 1-8.707-3.656l-2.03-.91a703.731 703.731 0 0 1-4.117-1.868c-7.041-3.14-13.505-4.852-21.271-4.879l-3.508-.05c-3.906.421-7.511 1.507-10.367 4.363-.67 2.786-.67 2.786 0 6 5.482 5.497 11.775 8.773 18.625 12.313C431.156 858.016 431.156 858.016 435 870c.61 5.523.798 10.277-1.563 15.375L431 888l-1.367 1.547c-8.636 8.679-20.318 8.862-31.82 8.953-10.762-.063-21.654-.655-31.813-4.5-1.21-3.632-.628-5.065.438-8.688l.87-3.011L368 880c3.493 1.294 6.449 2.841 9.563 4.875 9.434 5.777 21.733 10.044 32.847 7.594 3.404-1.019 5.996-1.962 8.715-4.282 1.282-3.205.925-4.906-.125-8.187-3.33-4.492-6.853-7.653-11.563-10.688l-1.932-1.272c-5.449-3.518-11.106-6.6-16.817-9.665C367.762 847.107 367.762 847.107 364 838c-1.02-4.503-1.007-8.183 1.262-12.277 7.082-8.865 17.138-10.818 27.886-12.098 13.023-1.192 26.08-.466 38.852 2.375Z"/><path fill="#FFF" d="M567.191 426.441c6.308 5.007 9.297 10.118 10.22 18.118.322 8.215-.383 14.77-5.411 21.441-5.936 6.415-11.484 9.342-20.188 10.016-8.875-.05-15.646-2.598-21.968-8.829-5.205-6.175-7.247-12.882-7.125-20.94.887-7.09 4.232-13.313 9.281-18.247 10.422-7.655 24.063-8.878 35.191-1.559ZM545 445c-1.162 2.394-1.162 2.394-1 5 1.434 2.869 2.44 3.785 5.438 4.938 2.59.242 2.59.242 4.875-.938 1.999-2.02 1.999-2.02 2.25-5.5-.183-3.645-.183-3.645-3-5.438-3.948-1.636-5.075-.59-8.563 1.938ZM885 817c1.073 3.272.893 5.43.063 8.75l-.59 2.422L884 830c-3.893 0-4.68-1.214-7.563-3.75-6.494-5.349-13.87-9.097-22.437-9.25-7.437 1.325-11.746 3.623-16.3 9.75-8.24 12.056-8.653 26.561-6.493 40.594 1.89 8.713 5.092 17.327 12.383 22.863 4.96 3.183 9.926 4.292 15.754 3.457 10.182-2.481 17.998-9.857 25.656-16.664a302.865 302.865 0 0 1 1.563 4.688l.878 2.636c.642 3.073.741 4.755-.441 7.676-12.497 7.714-29.42 8.355-43.387 5.246-7.102-1.971-12.813-4.715-18.613-9.246l-2.523-1.863c-2.619-2.26-4.259-4.408-6.102-7.324l-1.727-2.668c-3.897-7.436-5.182-14.16-5.086-22.52l.023-2.798c.256-10.56 3.049-19.069 10.415-26.827 16.757-15.565 44.708-13.866 65-7ZM898 816h20v80h-20v-80ZM599 816h20v80h-20v-80ZM793 933c2.375 1.375 2.375 1.375 4 3v2h208v4H797l-2 4c-1 1-1 1-4.875 1.313-3.816-.062-3.816-.062-6.125-1.938-1.296-3.078-1.483-5.064-1-8.375 2.799-4.09 5.17-4.704 10-4ZM316.313 932.625C320 933 320 933 322.5 935.063c1.95 3.817 1.654 5.859.5 9.937-3.695 2.463-5.633 2.39-10 2-1.938-1.375-1.938-1.375-3-3v-2H102v-4h208l2-4c1-1 1-1 4.313-1.375ZM176 628c8.363 1.173 15.842 3.55 23.688 6.625l3.318 1.273c2.668 1.026 5.332 2.06 7.994 3.102.407 4.494.407 4.494-1.39 6.73l-1.934 1.532-2.12 1.7c-.74.57-1.48 1.14-2.244 1.726l-2.185 1.76c-3.547 2.801-6.742 5.211-11.127 6.552-3.653-5.52-6.607-11.124-9.25-17.188l-1.063-2.365c-1.69-3.83-2.956-7.304-3.687-11.447ZM879 601c.229 25.717.229 25.717-1 32l-2 2c-6.033-2.478-11.778-5.382-17.5-8.5-.719-.38-1.437-.76-2.178-1.15-5.16-2.86-5.16-2.86-6.027-5.489L850 618c21.447-17 21.447-17 29-17ZM458 627c-.606 6.636-1.758 12.915-3.375 19.375l-.633 2.691-.64 2.582-.568 2.318c-.88 2.284-1.951 3.444-3.784 5.034-5.23-1.59-8.971-4.904-13.125-8.313l-2.168-1.724-2.09-1.701-1.887-1.533c-2.039-2.038-3.336-4.217-4.73-6.729 3.851-1.632 7.707-3.254 11.563-4.875l3.29-1.395C453.516 627 453.516 627 458 627ZM219 602c6.56 1.926 12.32 4.556 18.25 7.938l2.352 1.302c4.07 2.289 7.953 4.57 11.398 7.76v2c-3.53 2.02-7.076 4.013-10.625 6l-3.027 1.734-2.95 1.641-2.697 1.523c-3.081 1.257-5.405 1.305-8.701 1.102-1.684-6.25-2.782-12.468-3.688-18.875l-.431-2.875-.393-2.742-.358-2.48C218 604 218 604 219 602ZM637 629c8.534 1.927 16.596 4.532 24.75 7.688 1.09.415 2.181.83 3.305 1.26 2.65 1.01 5.299 2.028 7.945 3.052-3.81 8.164-13.105 14.883-21 19h-3a2001.662 2001.662 0 0 1-5.438-11.563l-1.564-3.29c-2.52-5.42-4.662-10.144-4.998-16.147ZM420 602a288.43 288.43 0 0 1-.375 20.5c-.03.682-.062 1.364-.094 2.066-.214 3.589-.604 6.363-2.531 9.434-3.483-.571-6.2-1.439-9.285-3.145l-2.358-1.302-2.42-1.365c-.802-.44-1.604-.878-2.431-1.33-4.018-2.245-7.465-4.322-10.506-7.858 6.553-6.233 14.185-10.544 22-15l2.207-1.266C416 602 416 602 420 602ZM917 627c-.846 7.966-2.222 15.604-4.375 23.313l-.596 2.263c-1.484 5.07-1.484 5.07-3.869 6.62-7.633-.69-17.005-10.789-22.16-16.196l-1-3c4.093-2.602 8.313-4.58 12.75-6.5l2.143-.932C912.846 627 912.846 627 917 627ZM679 604c11.528 3.236 22.024 9.485 32 16-1.164 3.491-1.7 3.698-4.79 5.41-.776.433-1.554.865-2.355 1.31l-2.48 1.342-2.41 1.354c-4.578 2.514-8.835 4.522-13.965 5.584l-2-1a113.448 113.448 0 0 1-2.125-8.313l-.542-2.454c-1.344-6.458-1.799-12.636-1.333-19.233ZM833 585c1.533 4.953 2.519 9.782 3.125 14.938l.262 2.013c.576 4.712.687 9.303.613 14.049-6.44-.17-12.268-1.511-18.375-3.438l-2.09-.658c-3.314-1.08-6.479-2.22-9.535-3.904 3.89-5.722 8.37-10.562 13.25-15.438l1.899-1.9C827.879 585 827.879 585 833 585ZM267 582c3.867 1.805 6.725 4.285 9.813 7.188l1.603 1.494a856.87 856.87 0 0 1 3.148 2.961 553.152 553.152 0 0 0 3.706 3.462c3.213 3.065 5.526 5.481 6.73 9.895-4.59 2.503-8.963 3.97-14 5.188l-2.078.537c-4.048 1-7.754 1.56-11.922 1.275-1.668-1.668-1.252-3.574-1.313-5.875.033-8.916 2.29-17.49 4.313-26.125ZM778 577c3.272 1.357 4.642 2.525 6.254 5.668l1.15 2.209 1.159 2.31 1.17 2.252c6.408 12.458 6.408 12.458 5.955 15.999L793 607c-3.038.882-5.755 1.129-8.914 1.133l-2.805.004-2.906-.012-2.93.012-2.797-.004-2.557-.004C768 608 768 608 766 607c.485-6.442 2.162-11.416 4.875-17.25l1.066-2.39c1.707-3.756 3.356-7.198 6.059-10.36ZM372 583c2.487 2.487 2.606 4.026 3.29 7.453l.663 3.317.672 3.48.695 3.434c1.025 5.205 1.81 9.993 1.68 15.316-6.848-.16-13.058-1.404-19.563-3.438l-2.128-.658c-2.998-.974-5.05-1.645-7.309-3.904.228-4.42 1.927-6.396 5.063-9.375l2.453-2.348a358.126 358.126 0 0 1 8.754-7.77c2.005-1.746 3.888-3.589 5.73-5.507ZM319 575h2c14.566 25.462 14.566 25.462 13.527 30.122L334 607c-3.937.197-7.875.38-11.813.563l-3.392.17-3.252.146-3 .143C310 608 310 608 307 607c-.273-5.181.32-8.517 2.625-13.152l1.64-3.35 1.735-3.436 1.734-3.517c1.41-2.855 2.832-5.702 4.266-8.545ZM726 585c8.042 1.819 13.791 9.68 19.5 15.313l1.927 1.887 1.792 1.788 1.623 1.61C752 607 752 607 752 609c-20.666 6.794-20.666 6.794-27 7-2.455-2.455-2.297-3.116-2.313-6.5.122-8.271 1.814-16.39 3.313-24.5ZM911 788c5.579 3.158 5.579 3.158 7 6 .615 4.963.736 8.773-1.875 13.125-4.385 2.631-8.134 2.924-13.125 1.875-2.824-2.19-4.415-3.83-6-7-.042-4.38.213-7.95 2.875-11.5 3.65-2.577 6.753-2.929 11.125-2.5ZM612 788c5.579 3.158 5.579 3.158 7 6 .615 4.963.736 8.773-1.875 13.125-4.385 2.631-8.134 2.924-13.125 1.875-2.824-2.19-4.415-3.83-6-7-.042-4.38.213-7.95 2.875-11.5 3.65-2.577 6.753-2.929 11.125-2.5ZM548 920c4.273 1.068 4.554 1.206 6.797 4.598l1.465 2.177 1.488 2.288 1.535 2.298A630.957 630.957 0 0 1 563 937c3.807-4.58 6.875-9.49 10-14.55l2-2.45h4v31h-3l-1-23-10 15c-4.954-1.239-6.137-3.527-8.75-7.563L552 929l-1 22h-3v-31ZM327 920c4.375 1.094 4.708 1.424 7.129 4.895l1.697 2.396 1.736 2.521 3.442 4.895 1.526 2.202c1.448 2.06 2.959 4.076 4.47 6.091l1-23h3v31c-5-1-5-1-6.514-2.487l-1.24-1.9-1.4-2.095-1.409-2.206-1.42-2.146a455.904 455.904 0 0 1-2.632-4.032c-1.77-2.728-3.581-5.429-5.385-8.134l-1 23h-3v-31ZM602 927c3.25 1.828 4.56 3.183 6.313 6.438C609 936 609 936 609 941h-20c2.167 5.833 2.167 5.833 5 7 3.913.435 5.475.39 8.688-2l2.312-2h3c-.305 2.85-1.044 4.052-2.938 6.25-4.357 2.49-8.152 2.55-13.062 1.75-3.186-1.792-4.526-3.164-6.313-6.313-1.208-4.723-1.194-8.368.563-12.937 4.01-6.303 8.708-6.777 15.75-5.75Zm-13 8v3h16c-.502-4.783-.502-4.783-2.688-6.813-5.94-3.05-9.372-1.17-13.312 3.813ZM762.375 926.625l2.273-.086c3.564.699 4.981 1.679 7.352 4.461.615 3.436.47 6.774.313 10.25l-.069 2.836c-.059 2.306-.14 4.61-.244 6.914-3.729.674-7.335 1.179-11.125 1.25l-2.508.078c-2.95-.409-4.272-1.228-6.367-3.328-.863-6.8-.863-6.8 1.61-10.238 3.193-2.354 5.218-2.169 9.14-2.012l3.547.11L769 937c-1.088-3.25-1.088-3.25-3-6-4.737-.552-4.737-.552-8.75 1.5L756 934h-3c1.784-5.214 3.748-7.279 9.375-7.375ZM755 943c.29 3.307.29 3.307 2 6 4.477.517 6.335.524 9.938-2.313 2.366-2.519 2.366-2.519 2.062-5.687a531.951 531.951 0 0 0-5.875-.125l-3.305-.07c-2.957-.106-2.957-.106-4.82 2.195ZM642.375 926.625l2.273-.086c3.564.699 4.981 1.679 7.352 4.461.615 3.436.47 6.774.313 10.25l-.069 2.836c-.059 2.306-.14 4.61-.244 6.914-3.729.674-7.335 1.179-11.125 1.25l-2.508.078c-2.95-.409-4.272-1.228-6.367-3.328-.863-6.8-.863-6.8 1.61-10.238 3.193-2.354 5.218-2.169 9.14-2.012l3.547.11L649 937c-1.088-3.25-1.088-3.25-3-6-4.737-.552-4.737-.552-8.75 1.5L636 934h-3c1.784-5.214 3.748-7.279 9.375-7.375ZM635 943c.29 3.307.29 3.307 2 6 4.477.517 6.335.524 9.938-2.313 2.366-2.519 2.366-2.519 2.062-5.687a531.951 531.951 0 0 0-5.875-.125l-3.305-.07c-2.957-.106-2.957-.106-4.82 2.195ZM493 927c3.252 1.792 4.503 3.124 6.313 6.313 1.208 4.723 1.194 8.368-.563 12.937-1.783 2.802-2.945 4.045-5.75 5.75-5.039.834-9.56.793-14.063-1.688-3.813-4.551-4.454-8.418-3.937-14.312 3.48-9.047 8.936-10.21 18-9Zm-11.875 5.125C478.74 935.352 478 936.999 478 941c1.529 3.975 2.428 5.619 6 8 4.38.568 6.279.533 9.875-2.125C496.26 943.648 497 942.001 497 938c-1.529-3.975-2.428-5.619-6-8-4.38-.568-6.279-.533-9.875 2.125ZM703 927c2.688 2.313 2.688 2.313 4 5v3h-3l-1.25-2c-1.714-2.434-1.714-2.434-5.438-2.25L694 931l-1 4 3.688 1.313c3.7 1.384 7.47 2.845 10.312 5.687.313 3.375.313 3.375 0 7-2.818 2.792-5.02 3.452-8.938 3.5-3.93-.11-4.889-.372-8.187-2.813C688 947 688 947 688 944c1.875.313 1.875.313 4 1l2 3c1.977.363 1.977.363 4.125.188L702 948l1-4c-3.269-2.18-6.218-3.094-9.941-4.219C691 939 691 939 689 937c-.563-6.193-.563-6.193 1.18-8.691 3.695-2.657 8.503-2.013 12.82-1.309ZM740 927c3.496 1.927 4.682 2.925 5.813 6.75L746 936h-3l-2.313-2.5c-2.465-2.743-2.465-2.743-5.75-3.063-3.65.7-4.793 1.545-6.937 4.563-1.258 3.857-1.193 5.513.313 9.313 1.412 2.766 1.412 2.766 3.687 3.687 2.873.501 2.873.501 6 0a282.478 282.478 0 0 0 5-5c2.313.188 2.313.188 4 1-3.625 5.75-3.625 5.75-7 8-4.768.695-8.766.694-13-1.688-3.07-3.55-3.888-6.085-4.313-10.75.41-4.676 1.601-7.999 5.114-11.207 3.84-2.367 7.84-1.99 12.199-1.355ZM453 927c3.496 1.927 4.682 2.925 5.813 6.75L459 936h-3l-2.313-2.5c-2.465-2.743-2.465-2.743-5.75-3.063-3.65.7-4.793 1.545-6.937 4.563-1.258 3.857-1.193 5.513.313 9.313 1.412 2.766 1.412 2.766 3.687 3.687 2.873.501 2.873.501 6 0a282.478 282.478 0 0 0 5-5c2.313.188 2.313.188 4 1-3.625 5.75-3.625 5.75-7 8-4.768.695-8.766.694-13-1.688-3.07-3.55-3.888-6.085-4.313-10.75.41-4.676 1.601-7.999 5.114-11.207 3.84-2.367 7.84-1.99 12.199-1.355ZM517.375 926.563l2.273-.122c3.759.893 5.103 2.448 7.352 5.559.593 3.297.474 6.476.313 9.813l-.069 2.677c-.059 2.17-.148 4.34-.244 6.51h-3l-.113-3.36a4512.69 4512.69 0 0 0-.2-4.39l-.068-2.21c-.21-4.194-.444-7.121-3.619-10.04-3.247-.474-5.108-.646-7.813 1.313-2.572 3.655-2.471 7.545-2.75 11.875l-.253 3.855L509 951h-3v-23l4 1c3.022-2.015 3.917-2.337 7.375-2.438ZM360 928h3l.184 3.36.253 4.39.12 2.21c.204 3.467.528 6.693 1.443 10.04 4.875.449 4.875.449 9.188-1.5 2.489-3.434 2.482-6.655 2.562-10.75l.09-2.258c.07-1.83.117-3.661.16-5.492h3v23h-5l-1 1c-4.113.434-7.796.632-11.5-1.313-2.468-2.776-2.623-5.364-2.598-8.917l.01-2.432.026-2.525.013-2.561c.012-2.084.03-4.168.049-6.252ZM674 917v3l-3.375.625c-3.891.991-3.891.991-5.063 4.5L665 928h9v3h-9v20h-3v-20h-5v-3h5l-.188-2.75c.207-3.576.693-4.755 3.188-7.25 3.196-1.065 5.657-1.074 9-1ZM618 922h2v6h8v3h-8c.141 2.104.288 4.209.438 6.313.08 1.171.162 2.343.246 3.55.203 3.163.203 3.163 1.316 6.137l6 1v3c-6.625.25-6.625.25-10-2-1.206-3.619-1.108-6.925-1.063-10.688l.014-2.126c.012-1.729.03-3.458.049-5.186h-5v-3l1.875-.188c2.403-.64 2.403-.64 3.375-3.375L618 922ZM391 922h2v6h8v3h-8c.141 2.104.288 4.209.438 6.313.08 1.171.162 2.343.246 3.55.203 3.163.203 3.163 1.316 6.137l6 1v3c-6.625.25-6.625.25-10-2-1.206-3.619-1.108-6.925-1.063-10.688l.014-2.126c.012-1.729.03-3.458.049-5.186h-5v-3l1.875-.188c2.403-.64 2.403-.64 3.375-3.375L391 922ZM446 852h40v3h-40v-3ZM408 928h3l1 2 2-2c3.625-.125 3.625-.125 7 0v3l-3.375.688c-3.7.889-3.7.889-4.813 3.468-.93 3.26-1.232 6.275-1.437 9.657l-.227 3.519L411 951h-3v-23ZM714 928h3v23h-3v-23ZM678 928h3v23h-3v-23ZM466 928h3v23h-3v-23ZM427 928h3v23h-3v-23ZM680 917h3c-.875 5.75-.875 5.75-2 8h-3c.875-6.875.875-6.875 2-8ZM488 917h3c-.875 4.75-.875 4.75-2 7l-4-1 3-6ZM714 919h4v5l-5-1 1-4ZM466 919h4v5l-5-1 1-4ZM427 919h4v5l-5-1 1-4Z"/></svg>