<svg xmlns="http://www.w3.org/2000/svg" width="4501" height="4500"><path fill="#FFF" d="M4260.355 2029.516c4.842 4.596 9.592 9.284 14.333 13.984l2.663 2.624c5.985 5.977 11.422 12.229 16.649 18.876l1.9 2.403c15.046 19.248 27.277 39.72 38.1 61.597l1.217 2.428c20.862 42.052 30 89.908 30.033 136.572l.002 2.656c-.091 75.365-26.712 147.07-74.252 205.344l-1.324 1.64c-11.51 14.184-24.483 28.137-39.001 39.267-2.792 2.184-5.474 4.469-8.167 6.773-6.23 5.245-12.828 9.848-19.633 14.32l-1.784 1.179c-9.772 6.45-19.643 12.522-30.091 17.821l-2.785 1.427c-15.326 7.795-30.865 14.256-47.215 19.573l-3.01.98c-15.436 4.937-31.005 8.407-46.99 11.02l-2.888.5c-31.485 5.289-66.681 4.947-98.112-.5l-3.181-.52c-15.97-2.645-31.413-6.53-46.819-11.48l-2.663-.852c-12.855-4.166-25.176-9.263-37.337-15.148l-2.926-1.414c-25.25-12.34-49.915-27.785-70.449-47.137a219.678 219.678 0 0 0-6.41-5.726c-11.033-9.617-21.24-20.17-30.215-31.723-.9-1.091-1.804-2.18-2.71-3.266-54.193-65.36-77.714-151.577-70.465-235.536 3.82-37.634 13.94-74.064 30.175-108.198l1.167-2.484c12.177-25.768 28.04-49.124 46.833-70.516l1.476-1.737c4.838-5.649 10.017-10.943 15.274-16.199 1.489-1.49 2.97-2.989 4.45-4.488A213.1 213.1 0 0 1 3836 2016l2.214-1.755c49.77-39.199 109.53-63.643 172.786-69.245l3.637-.336c89.442-6.916 180.047 23.415 245.718 84.852Zm-305.71-9.3-1.77 1.784-1.797 1.803c-3.082 3.112-6.093 6.252-8.953 9.572l-1.508 1.72c-1.608 1.831-1.608 1.831-2.822 3.643-5.784 7.303-15.146 7.85-23.76 9.446-1.762.346-3.523.695-5.283 1.046-4.614.913-9.233 1.794-13.854 2.668-4.723.899-9.44 1.829-14.158 2.756A4676.876 4676.876 0 0 1 3853 2060c-2.498 12.49 2.092 25.407 4 38l76 1 .168 22.267a3377114.991 3377114.991 0 0 0 .632 83.714l.017 2.294a1212351.032 1212351.032 0 0 1 .4 53.16 302046.466 302046.466 0 0 0 .55 72.056c.136 17.565.267 35.13.393 52.695.082 11.477.166 22.953.253 34.43.05 6.708.1 13.417.145 20.126.248 38.64.248 38.64 1.442 77.258h17v-37l8.29.092c12.966.142 25.932.277 38.898.408l3.558.036c34.44.346 68.875.559 103.316.526l2.808-.002c11.043-.011 22.087-.03 33.13-.06l.076 3.472c.094 4.237.194 8.472.296 12.708.044 1.837.085 3.673.125 5.51.058 2.633.122 5.266.187 7.9l.05 2.503c-.256 3.762-.256 3.762 1.266 6.907 2.703-.091 5.367-.237 8.063-.438l4.125-.292 3.812-.27c1.037-16.718 1.464-33.453 1.91-50.195.085-3.229.173-6.458.26-9.687.207-7.645.412-15.29.614-22.935.207-7.793.419-15.586.633-23.378.185-6.769.368-13.537.548-20.306.106-4.008.214-8.015.325-12.023.566-20.498.83-40.97.71-61.476l4.503 2.641 2.533 1.486c1.764 1.036 3.527 2.074 5.29 3.113l2.322 1.354 2.38 1.396c1.9 1.162 1.9 1.162 3.972 1.01.106-10.245 0-20.445-.504-30.68l-.144-3.03c-.115-2.43-.233-4.86-.352-7.29a23094.86 23094.86 0 0 0-38.5-.063l-3.015-.002c-40.435-.03-80.865.231-121.297.565l-2.198.018c-18.663.154-37.327.314-55.99.482l.017-2.36c.153-25.437-.363-50.842-.994-76.27-.14-5.67-.275-11.339-.41-17.008-.23-9.506-.46-19.012-.694-28.518-.298-12.103-.59-24.206-.881-36.309a128948.222 128948.222 0 0 0-1.006-41.59c-.58-23.986-1.196-47.967-2.032-71.945-2.285 0-3.816 2.683-5.355 4.216ZM464.438 1943.688l3.45.004c17.89.042 35.386.734 53.112 3.308l3.097.422c34.616 4.785 67.567 15.227 98.903 30.578l2.5 1.205c25.472 12.362 48.651 29.533 69.774 48.274 2.881 2.539 5.803 5.03 8.726 7.521-1.618 3.408-3.478 5.795-6.063 8.563a209.995 209.995 0 0 0-9.25 10.75c-3.89 4.813-8.016 9.335-12.243 13.848-3.918 4.208-7.555 8.593-11.155 13.077-3.008 3.63-6.186 7.081-9.39 10.537A309.033 309.033 0 0 0 646 2103c-3.562-1.524-5.903-3.642-8.688-6.313-7.346-6.787-15.285-12.734-23.312-18.687l-1.89-1.408c-8.702-6.46-17.705-12.21-27.11-17.592l-3.402-1.988c-52.418-29.422-117.697-36.745-175.473-20.762-29.811 8.64-57.362 22.713-81.125 42.75l-1.665 1.396c-9.536 8.009-18.198 15.99-26.019 25.729a292.523 292.523 0 0 1-4.539 5.5c-10.701 12.683-19.1 26.704-26.777 41.375l-.972 1.856c-13.05 25.383-20.635 53.888-24.028 82.144l-.286 2.349c-.943 8.865-.958 17.745-.964 26.651l-.002 2.535c.065 50.756 12.822 103.958 43.252 145.465l2.066 2.887c20.315 27.801 45.64 49.717 75.934 66.113l2.112 1.143c57.229 30.316 127.11 32.821 188.388 14.67 26.622-8.242 53.574-19.985 74.75-38.438C629 2458 629 2458 631 2458v-90H530v-79h193c.524 51.637.524 51.637.635 73.303.077 14.95.167 29.9.346 44.85.13 10.888.213 21.776.242 32.665.017 5.763.057 11.524.151 17.287.09 5.432.116 10.86.096 16.293.004 1.986.03 3.973.08 5.958.396 16.523.396 16.523-6.041 23.46-2.705 2.581-5.55 4.902-8.509 7.184a3648.76 3648.76 0 0 0-5.375 4.563A2000.395 2000.395 0 0 1 699 2519c-1.142.93-2.283 1.863-3.422 2.797-13.765 11.246-28.124 21.412-43.578 30.203l-2.408 1.39C568.813 2599.827 464.13 2606.182 375 2583c-15.995-4.381-31.667-9.682-47-16l-2.473-1.018C299.738 2555.213 275.79 2540.45 254 2523l-2.785-2.2c-14.46-11.588-28.494-24.508-40.02-39.05-2.247-2.815-4.59-5.525-6.945-8.25-21.662-25.974-37.585-56.94-49.25-88.5l-.995-2.66c-29.447-79.74-25.224-174.853 9.906-251.987A391.418 391.418 0 0 1 173 2112l1.111-2.126c9.195-17.48 20.304-33.664 32.889-48.874l1.434-1.746c12.42-15.026 26.103-29.346 41.566-41.254a805.741 805.741 0 0 0 3.469-2.844A261.833 261.833 0 0 1 280 1996l1.746-1.11c38.01-24.015 80.283-39.517 124.504-47.14l2.644-.458c18.456-2.972 36.88-3.665 55.543-3.604ZM2007 1950c1.767 1.025 1.767 1.025 3.39 2.3l1.873 1.444 1.987 1.569c1.433 1.103 2.868 2.205 4.305 3.304l2.23 1.71c3.47 2.621 7.025 5.119 10.59 7.61 8.176 5.731 16.274 11.564 24.359 17.422 3.752 2.717 7.51 5.429 11.266 8.141l4.5 3.25 2.25 1.625a1070783.67 1070783.67 0 0 1 13.491 9.743c3.8 2.745 7.6 5.49 11.4 8.237A3748.273 3748.273 0 0 0 2119 2031c9.143 6.517 18.234 13.107 27.332 19.687 7.544 5.455 15.087 10.91 22.668 16.313 9.143 6.517 18.234 13.107 27.332 19.687 7.544 5.455 15.087 10.91 22.668 16.313 9.143 6.517 18.234 13.107 27.332 19.687 7.544 5.455 15.087 10.91 22.668 16.313 9.143 6.517 18.234 13.107 27.332 19.687 8.096 5.854 16.195 11.702 24.332 17.499 5.61 4 11.192 8.04 16.77 12.085 5.483 3.97 11.018 7.845 16.566 11.729v-244h91v626h-91v-269l-4-2a145.72 145.72 0 0 1-4.02-2.652l-2.324-1.587c-.815-.56-1.63-1.12-2.468-1.698l-2.57-1.764a614.628 614.628 0 0 1-17.06-12.207c-4.577-3.39-9.21-6.693-13.87-9.967a1393.362 1393.362 0 0 1-17.5-12.5A1255.09 1255.09 0 0 0 2271 2255a1401.238 1401.238 0 0 1-21.42-15.244c-7.808-5.658-15.691-11.21-23.58-16.756a2459.193 2459.193 0 0 1-28.267-20.142c-7.863-5.688-15.794-11.277-23.733-16.858a2459.193 2459.193 0 0 1-28.267-20.142c-7.863-5.688-15.794-11.277-23.733-16.858-9.78-6.875-19.524-13.793-29.2-20.812l-2.167-1.57-1.91-1.388A179.251 179.251 0 0 0 2084 2122l-1 460h-92v-628c11-5 11-5 16-4ZM831 1956h95l.06 37.595a301598.55 301598.55 0 0 0 .257 137.759l.008 3.727c.04 19.887.072 39.774.102 59.662.032 20.421.07 40.843.116 61.265.028 12.59.05 25.181.064 37.772.01 8.646.029 17.292.052 25.938.013 4.98.024 9.961.025 14.942-.327 32.995-.327 32.995 4.566 65.528l.655 2.76c3.577 14.577 8.975 27.862 16.095 41.052l1.75 3.281c4.03 7.24 8.818 13.478 14.25 19.719l2.152 2.559c21.01 24.352 52.246 38.822 84.137 41.312 38.554 1.833 72.446-9.492 101.22-35.486 21.433-19.904 34.985-47.64 41.303-75.885l.591-2.618c3.143-15.116 3.896-30.452 3.875-45.846l.018-5.16c.016-4.666.02-9.332.02-13.998.004-5.054.02-10.108.033-15.162.022-8.737.038-17.474.048-26.21.014-12.633.04-25.264.068-37.896.045-20.499.082-40.997.113-61.496.03-19.902.065-39.803.105-59.705l.007-3.723.037-18.493c.104-51.064.191-102.129.273-153.193h94a255142.854 255142.854 0 0 1 .167 185.839c.013 20.635.037 41.27.064 61.904.029 21.194.045 42.39.051 63.584.004 13.064.017 26.127.042 39.19.016 8.976.02 17.95.017 26.926-.002 5.167 0 10.335.017 15.502.12 40.407.12 40.407-3.358 60.055l-.55 3.13c-6.636 37.27-21.185 73.538-45.45 102.87l-1.307 1.61c-9.772 12.037-20.354 22.952-32.693 32.39l-3.063 2.355C1190.37 2563.037 1173.2 2572.18 1155 2579l-2.401.917c-20.602 7.747-42.67 12.317-64.599 14.083l-3.734.332c-55.932 4.28-117.213-5.313-163.266-39.332l-3.145-2.29c-7.61-5.638-14.618-11.83-21.458-18.376a339.145 339.145 0 0 0-3.604-3.38c-40.35-38.46-60.675-100.158-62.018-154.734-.198-10.778-.157-21.558-.123-32.338.013-5.22.008-10.442.006-15.663-.001-9.016.008-18.031.025-27.047.024-13.034.032-26.069.036-39.103.006-21.155.026-42.31.055-63.465.027-20.532.048-41.065.061-61.598l.003-3.844.011-19.096c.031-52.689.086-105.377.151-158.066ZM2799 1949h23a545.054 545.054 0 0 1 13.336 28.152c1.73 3.94 3.473 7.874 5.215 11.809l1.1 2.488c4.072 9.203 8.21 18.377 12.349 27.551a6696.537 6696.537 0 0 1 17 38c7.552 17.03 15.195 34.018 22.849 51.003 4.89 10.856 9.757 21.722 14.624 32.589l4.617 10.299a47709.773 47709.773 0 0 1 19.512 43.574c4.628 10.347 9.26 20.693 13.898 31.035a36442.037 36442.037 0 0 1 15 33.5 52101.107 52101.107 0 0 0 21.5 48 54894.91 54894.91 0 0 1 22.598 50.456A49919.412 49919.412 0 0 0 3026 2403c7.543 16.818 15.077 33.64 22.602 50.465 4.628 10.347 9.26 20.693 13.898 31.035 5.735 12.787 11.458 25.58 17.179 38.373a13139.084 13139.084 0 0 0 15.036 33.518c2.583 5.75 5.138 11.514 7.648 17.296l1.529 3.512C3105 2580 3105 2580 3105 2582h-104c-4.362-8.724-8.572-17.334-12.424-26.27-1.493-3.466-3-6.926-4.506-10.386l-.977-2.25a2807.097 2807.097 0 0 0-7.663-17.438l-1.203-2.716c-1.565-3.533-3.13-7.066-4.699-10.597-8.313-18.723-16.396-37.538-24.528-56.343l-271-1-2 6c-.54 1.335-1.1 2.662-1.686 3.978l-.978 2.211-1.055 2.362-1.12 2.528c-.8 1.802-1.6 3.604-2.402 5.405-2.16 4.854-4.313 9.713-6.466 14.57l-1.34 3.022a6631.163 6631.163 0 0 0-12.03 27.328c-5.947 13.57-11.91 27.133-17.914 40.678-.71 1.601-1.419 3.203-2.127 4.806-.97 2.195-1.943 4.388-2.917 6.58l-.872 1.976c-1.979 4.442-1.979 4.442-3.093 5.556a57.992 57.992 0 0 1-4.106.12l-2.682.004-2.964-.01h-3.104c-3.404 0-6.807-.009-10.21-.016l-7.058-.005c-6.207-.003-12.413-.013-18.619-.024-6.327-.01-12.654-.015-18.982-.02-12.425-.01-24.85-.028-37.275-.049.46-1.413.922-2.825 1.386-4.237l.779-2.383c1.324-3.773 3.009-7.353 4.722-10.962l1.132-2.421c.802-1.713 1.606-3.426 2.411-5.137 2.163-4.597 4.309-9.203 6.453-13.81l1.318-2.831c4.058-8.736 7.978-17.53 11.861-26.344A2132.189 2132.189 0 0 1 2560 2476.5a2181.437 2181.437 0 0 0 17-37.5c5.908-13.385 11.98-26.686 18.14-39.957 5.852-12.614 11.559-25.284 17.176-38.003 4.8-10.863 9.725-21.655 14.763-32.41 4.322-9.263 8.479-18.593 12.608-27.943A2251.37 2251.37 0 0 1 2657 2262.5a2144.829 2144.829 0 0 0 16.938-37.375c6.166-13.977 12.532-27.854 18.98-41.704a2361.344 2361.344 0 0 0 16.308-35.75c4.134-9.274 8.352-18.506 12.586-27.733a2775.018 2775.018 0 0 0 16.063-35.688c5.952-13.467 12.067-26.851 18.265-40.206a2246.102 2246.102 0 0 0 17.166-37.982 1541.77 1541.77 0 0 1 15.36-33.71c3.622-7.716 7.007-15.504 10.334-23.352Zm10 190-.718 1.693c-11.165 26.312-22.374 52.6-33.782 78.807a6803.463 6803.463 0 0 0-23.438 54.5c-6.461 15.204-12.933 30.403-19.5 45.563l-.948 2.19a11343.65 11343.65 0 0 1-9.993 23.005c-1.511 3.472-3.02 6.944-4.528 10.416-1.07 2.462-2.145 4.921-3.22 7.38l-1.936 4.458-.906 2.064c-1.527 3.34-1.527 3.34-2.031 6.924h202c-1.892-5.677-3.787-11.135-6.125-16.61l-.905-2.143c-.987-2.334-1.979-4.665-2.97-6.997l-2.13-5.033c-1.509-3.567-3.02-7.133-4.532-10.699-2.322-5.479-4.638-10.96-6.951-16.444l-1.165-2.76-2.348-5.566a235239.064 235239.064 0 0 1-19.19-45.442l-5.934-14.056-2.375-5.625-1.188-2.813-4.75-11.249a747854.65 747854.65 0 0 0-8.279-19.611c-3.7-8.763-7.4-17.526-11.105-26.287a73582.716 73582.716 0 0 1-7.719-18.255c-1.153-2.724-2.304-5.448-3.455-8.172l-1.014-2.393c-2.36-5.587-4.63-11.207-6.865-16.845h-2ZM1613 1949h23c4.373 8.558 8.391 17.207 12.26 26.001 1.746 3.966 3.501 7.928 5.256 11.89l1.109 2.506c4.084 9.22 8.229 18.411 12.375 27.603a6399.466 6399.466 0 0 1 16.938 37.875c6.278 14.167 12.646 28.291 19.043 42.404a4927.45 4927.45 0 0 1 17.203 38.373c3.064 6.917 6.157 13.82 9.254 20.723l.823 1.836 4.115 9.171c2.626 5.851 5.25 11.703 7.874 17.555l1.594 3.555a42733.71 42733.71 0 0 1 14.758 32.973c4.628 10.347 9.26 20.693 13.898 31.035a36442.037 36442.037 0 0 1 15 33.5 52101.107 52101.107 0 0 0 21.5 48 54894.91 54894.91 0 0 1 22.598 50.456A49919.412 49919.412 0 0 0 1852 2430c7.543 16.818 15.077 33.64 22.602 50.465 4.628 10.347 9.26 20.692 13.898 31.035l6.5 14.5 1.02 2.274a44342.559 44342.559 0 0 1 8.931 19.94c2.027 4.522 4.049 9.045 6.063 13.571.672 1.51 1.345 3.019 2.019 4.527.995 2.232 1.986 4.465 2.975 6.7l.917 2.05c2.075 4.709 2.075 4.709 2.075 6.938h-104c-4.944-9.888-9.696-19.607-14-29.75a4614.652 4614.652 0 0 0-3.395-7.902c-.291-.68-.583-1.358-.884-2.058-3.402-7.898-6.906-15.75-10.409-23.602-5.7-12.797-11.384-25.601-17.03-38.422-.809-1.834-1.618-3.668-2.429-5.5-1.13-2.557-2.256-5.114-3.38-7.672l-1.024-2.309c-1.432-3.267-2.58-6.312-3.449-9.785l-271 1-14 32c-3.079 6.981-6.16 13.961-9.25 20.938a8133.52 8133.52 0 0 0-14.79 33.57l-1.238 2.83a9348.924 9348.924 0 0 0-5.848 13.39l-2.116 4.838-.932 2.148c-2.43 5.544-5.108 10.849-7.826 16.286h-105c1.994-5.983 3.998-11.5 6.668-17.145l1.065-2.286c.755-1.619 1.511-3.237 2.27-4.854 2.046-4.364 4.074-8.737 6.102-13.11l1.255-2.702c3.977-8.592 7.82-17.24 11.64-25.903 5.906-13.386 11.98-26.686 18.14-39.957 5.852-12.614 11.559-25.284 17.176-38.003 4.8-10.863 9.725-21.655 14.763-32.41 4.322-9.263 8.479-18.593 12.609-27.943A2251.37 2251.37 0 0 1 1436 2339.5a2144.829 2144.829 0 0 0 16.938-37.375c6.166-13.977 12.532-27.854 18.98-41.704a2361.344 2361.344 0 0 0 16.308-35.75c4.134-9.274 8.352-18.506 12.586-27.733a2775.018 2775.018 0 0 0 16.063-35.688c5.953-13.47 12.07-26.858 18.27-40.217A2059.53 2059.53 0 0 0 1551 2086c5.908-13.385 11.98-26.686 18.14-39.957a2251.642 2251.642 0 0 0 17.167-37.983 1725.686 1725.686 0 0 1 15.365-33.751A895.08 895.08 0 0 0 1613 1949Zm10 190-.763 1.783c-11.38 26.586-22.77 53.168-34.237 79.717a19873.234 19873.234 0 0 0-22.875 53.188l-1.494 3.486L1553 2302c-3.562 8.32-7.125 16.639-10.688 24.957a101653.181 101653.181 0 0 1-8.222 19.199l-1.35 3.152c-1.97 4.596-3.95 9.186-5.974 13.758l-1.01 2.285a838.152 838.152 0 0 1-1.825 4.084c-1.468 3.16-1.468 3.16-1.931 6.565h202c-2.221-6.815-2.221-6.815-4.783-13.438l-.969-2.294-1.03-2.409-1.107-2.615c-1.2-2.833-2.406-5.663-3.611-8.494l-2.557-6.03c-1.768-4.172-3.539-8.344-5.31-12.515-3.667-8.637-7.314-17.283-10.962-25.929-1.972-4.676-3.947-9.35-5.921-14.026l-2.375-5.625-1.188-2.813-22.562-53.437-1.187-2.812-2.378-5.631c-1.965-4.656-3.931-9.31-5.9-13.965-3.73-8.82-7.447-17.644-11.133-26.482-1.75-4.194-3.505-8.387-5.26-12.579a2419.22 2419.22 0 0 1-2.508-6.024 2297.885 2297.885 0 0 0-3.478-8.327l-1.03-2.503-.968-2.295-.829-1.99c-1.061-1.965-2.31-3.27-3.954-4.767ZM3428.938 1943.688l3.54.006c88.113.26 169.491 31.648 234.522 91.306-1.527 3.427-3.543 6.058-5.938 8.938l-2.44 2.94a2567.493 2567.493 0 0 1-3.942 4.692c-3.685 4.377-7.39 8.736-11.096 13.096-4.72 5.555-9.425 11.115-14.021 16.771-4.125 5.076-8.375 10.035-12.666 14.969-2.737 3.096-2.737 3.096-4.897 6.594-4-.55-5.847-2.485-8.688-5.25-48.284-45.51-116.325-71.46-182.428-69.66-33.903 1.469-67.069 10.819-96.884 26.91l-3.5 1.86c-28.618 15.74-53.722 38.48-72.5 65.14l-1.357 1.908c-28.321 40.124-43.049 88.172-44.643 137.092l-.125 3.21c-1.282 64.905 22.12 129.812 67.125 176.79l1.67 1.77c9.344 9.856 19.245 18.384 30.33 26.23l1.743 1.24c17.165 12.033 36.446 21.075 56.257 27.76l2.224.752c65.103 21.557 134.4 8.271 194.385-21.81 9.165-4.729 17.83-10.203 26.391-15.942l1.96-1.313c10.284-6.955 20.429-14.71 29.04-23.687 2.937 1.314 4.898 2.685 7.066 5.055l1.704 1.843 1.793 1.977 1.882 2.047c1.857 2.02 3.707 4.049 5.555 6.078a4465.03 4465.03 0 0 0 2.871 3.133c1.765 1.924 3.528 3.85 5.29 5.777 3.822 4.17 7.69 8.298 11.555 12.43a2044.72 2044.72 0 0 1 13.378 14.449A226.776 226.776 0 0 0 3672 2497c-1.492 3.598-3.513 5.589-6.438 8.125-3.655 3.2-7.255 6.44-10.812 9.75-67.217 61.004-158.312 83.388-247.317 79.989-72.867-3.554-145.046-28.578-199.941-77.535a434.944 434.944 0 0 0-4.05-3.552c-11.435-10.045-22.046-20.806-31.442-32.777l-2.086-2.453c-11.077-13.037-20.576-27.624-28.914-42.547l-1.37-2.45c-43.985-79.54-52.444-177.37-27.507-264.41 13.101-43.59 35.08-84.165 65.772-117.816a268.134 268.134 0 0 0 5.418-6.199c7.32-8.37 15.23-16.027 23.94-22.934 2.791-2.226 5.481-4.547 8.184-6.879 18.657-15.507 39.636-27.949 61.516-38.338a443.415 443.415 0 0 0 4.192-2.022c45.747-22.289 97.218-31.433 147.793-31.264Z"/></svg>