<svg xmlns="http://www.w3.org/2000/svg" width="500" height="500"><path fill="#FCFCFC" d="M206.113 242.676c1.637.824 1.637.824 3.887 2.324l1-3h11c.1 5.692.172 11.384.22 17.078.02 1.934.047 3.868.082 5.801.049 2.79.071 5.58.089 8.371l.062 2.593c.002 5.877-1.171 10.236-4.453 15.157-4.777 4.777-10.026 6.232-16.71 6.38l-2.04-.005-2.12-.003c-5.783-.131-11.243-1.059-16.13-4.372-1-3-1-3-.223-4.824L184 283l1.836.656c5.99 1.99 11.846 3.563 18.164 2.344 3.193-2.106 3.193-2.106 5-5v-3l-3.375 1.563c-5.787 2.136-11.224 1.904-16.898-.543-5.46-3.136-8.712-6.974-10.727-13.02-.743-6.855-.052-12.316 4-18 6.43-6.265 15.503-8.078 24.113-5.324ZM192 255c-1.54 3.616-2.253 5.888-1.375 9.75 1.648 2.696 2.51 3.855 5.375 5.25 3.083.466 5.923.526 9 0 2.502-1.876 3.62-3.239 5-6 .4-3.597.22-5.568-1.438-8.813-4.82-4.115-11.804-4.801-16.562-.187ZM119.438 229.75l3.49-.063c8.29-.037 16.628.441 23.51 5.563 3.986 4.279 5.69 8.386 6 14.188-.207 4.858-1.446 8.701-4.438 12.562-8.001 7.116-17.807 7.343-28 7l.035 2.809.028 3.628.035 3.622C120 282 120 282 119 283c-1.998.099-4 .13-6 .125l-3.313.008C107 283 107 283 106 282a78.421 78.421 0 0 1-.13-4.78l-.009-3.083.006-3.356-.003-3.419c0-2.39.001-4.781.006-7.172.005-3.674 0-7.348-.007-11.022 0-2.316.002-4.633.004-6.95l-.006-3.355.01-3.084.002-2.73c.339-5.47 9.47-3.281 13.564-3.299ZM120 241v17l5.188.125 2.917.07c3.974-.268 6.826-1.162 9.708-3.945 1.59-3.012 1.677-4.888 1.187-8.25-1.867-2.303-3.356-3.678-6-5-4.336-.14-8.66-.043-13 0ZM118 162h12c4.434 8.526 8.295 17.194 12.015 26.052l1.13 2.678 1.01 2.42c.703 1.825.703 1.825 1.845 2.85l1.253-2.906c1.535-3.554 3.076-7.105 4.619-10.656.667-1.538 1.332-3.076 1.996-4.615.953-2.211 1.913-4.42 2.874-6.628l.897-2.09c1.221-2.792 2.185-4.93 4.361-7.105 2.602-.195 2.602-.195 5.625-.125l3.04.055L173 162l1 2c-.937 2.556-.937 2.556-2.43 5.8-.544 1.197-1.088 2.393-1.65 3.625l-1.795 3.887c-1.204 2.636-2.403 5.273-3.602 7.91l-.91 1.998c-3.115 6.847-6.068 13.76-8.984 20.695l-1.02 2.413-.876 2.09C152 214 152 214 151 215c-2.363.309-2.363.309-5.313.438l-2.925.183C140 215 140 215 138 212.345c-1.864-3.118-3.363-6.148-4.77-9.493l-1.495-3.526a9495.4 9495.4 0 0 1-1.548-3.701c-.797-1.892-1.595-3.783-2.394-5.675a8209.9 8209.9 0 0 1-2.344-5.554 420.717 420.717 0 0 0-3.824-8.689l-1.012-2.239c-.861-1.89-1.73-3.774-2.601-5.66C117 165 117 165 118 162ZM386.75 243.75c5.223 3.616 7.114 7.041 8.25 13.25.262 4.295.234 8.574.188 12.875l-.002 3.492c-.046 8.493-.046 8.493-1.186 9.633-2.215.203-2.215.203-4.938.25l-2.714.078L384 283l-2-3-1.813 1.5c-5.181 2.438-10.873 2.559-16.351.809-3.03-1.541-4.849-3.326-6.836-6.059-1.352-4.395-1.086-6.763 0-11.25 2.887-3.783 5.995-5.511 10.563-6.625 4.816-.525 9.597-.453 14.437-.375-1.309-3.122-1.309-3.122-4-5a72.466 72.466 0 0 0-4.875-.188l-2.617-.042c-2.657.244-4.178.997-6.508 2.23h-3c-3.063-5.39-3.063-5.39-2.785-8.094.785-1.906.785-1.906 3.91-3.656 7.551-2.467 17.338-2.914 24.625.5Zm-17.605 23.762L368 269l2 5c5.433.366 5.433.366 10.5-1.188 1.961-2.37 1.618-3.816 1.5-6.812a286.15 286.15 0 0 0-5.313-.188l-2.988-.105c-2.745.05-2.745.05-4.554 1.805ZM310.75 243.75c5.223 3.616 7.114 7.041 8.25 13.25.262 4.295.234 8.574.188 12.875l-.002 3.492c-.046 8.493-.046 8.493-1.186 9.633-2.215.203-2.215.203-4.938.25l-2.714.078L308 283l-2-3-1.813 1.5c-5.181 2.438-10.873 2.559-16.351.809-3.03-1.541-4.849-3.326-6.836-6.059-1.352-4.395-1.086-6.763 0-11.25 2.887-3.783 5.995-5.511 10.563-6.625 4.816-.525 9.597-.453 14.437-.375-1.309-3.122-1.309-3.122-4-5a72.466 72.466 0 0 0-4.875-.188l-2.617-.042c-2.657.244-4.178.997-6.508 2.23h-3c-3.063-5.39-3.063-5.39-2.785-8.094.785-1.906.785-1.906 3.91-3.656 7.551-2.467 17.338-2.914 24.625.5Zm-17.605 23.762L292 269l2 5c5.433.366 5.433.366 10.5-1.188 1.961-2.37 1.618-3.816 1.5-6.812a286.15 286.15 0 0 0-5.313-.188l-2.988-.105c-2.745.05-2.745.05-4.554 1.805ZM369.75 175.75c5.223 3.616 7.114 7.041 8.25 13.25.262 4.295.234 8.574.188 12.875l-.002 3.492c-.046 8.493-.046 8.493-1.186 9.633-2.215.203-2.215.203-4.938.25l-2.714.078L367 215l-2-3-1.813 1.5c-5.181 2.438-10.873 2.559-16.351.809-3.03-1.541-4.849-3.326-6.836-6.059-1.352-4.395-1.086-6.763 0-11.25 2.887-3.783 5.995-5.511 10.563-6.625 4.816-.525 9.597-.453 14.437-.375-1.309-3.122-1.309-3.122-4-5a72.466 72.466 0 0 0-4.875-.188l-2.617-.042c-2.657.244-4.178.997-6.508 2.23h-3c-3.063-5.39-3.063-5.39-2.785-8.094.785-1.906.785-1.906 3.91-3.656 7.551-2.467 17.338-2.914 24.625.5Zm-17.605 23.762L351 201l2 5c5.433.366 5.433.366 10.5-1.188 1.961-2.37 1.618-3.816 1.5-6.812a286.15 286.15 0 0 0-5.313-.188l-2.988-.105c-2.745.05-2.745.05-4.554 1.805ZM201.75 175.75c5.223 3.616 7.114 7.041 8.25 13.25.262 4.295.234 8.574.188 12.875l-.002 3.492c-.046 8.493-.046 8.493-1.186 9.633-2.215.203-2.215.203-4.938.25l-2.714.078L199 215l-2-3-1.813 1.5c-5.181 2.438-10.873 2.559-16.351.809-3.03-1.541-4.849-3.326-6.836-6.059-1.352-4.395-1.086-6.763 0-11.25 2.887-3.783 5.995-5.511 10.563-6.625 4.816-.525 9.597-.453 14.437-.375-1.309-3.122-1.309-3.122-4-5a72.466 72.466 0 0 0-4.875-.188l-2.617-.042c-2.657.244-4.178.997-6.508 2.23h-3c-3.063-5.39-3.063-5.39-2.785-8.094.785-1.906.785-1.906 3.91-3.656 7.551-2.467 17.338-2.914 24.625.5Zm-17.605 23.762L183 201l2 5c5.433.366 5.433.366 10.5-1.188 1.961-2.37 1.618-3.816 1.5-6.812a286.15 286.15 0 0 0-5.313-.188l-2.988-.105c-2.745.05-2.745.05-4.554 1.805ZM232 242h12v3l2.25-1.5c5.383-2.673 12.33-2.616 17.977-.773 4.449 2.328 6.83 5.314 8.335 10.038.561 2.864.568 5.578.57 8.497l.005 3.638-.012 3.788.012 3.822-.004 3.627-.004 3.334C273 282 273 282 272 283c-1.831.099-3.666.13-5.5.125l-3.031.008C261 283 261 283 260 282a119.518 119.518 0 0 1-.246-5.715l-.1-3.517c-.06-2.466-.118-4.933-.172-7.399l-.103-3.521-.076-3.25c-.05-2.758-.05-2.758-2.303-4.598-5.883-.51-5.883-.51-11 2-.995 2.985-1.18 5.165-1.281 8.29l-.114 3.1-.21 6.493-.114 3.094-.092 2.846C244 282 244 282 243 283c-1.664.098-3.333.13-5 .125l-2.75.008C233 283 233 283 232 282a245.7 245.7 0 0 1-.098-8.848l.005-2.686c.005-2.843.018-5.686.03-8.529.006-1.922.01-3.845.014-5.767.011-4.723.028-9.447.049-14.17ZM291 174h12v3l2.25-1.5c5.383-2.673 12.33-2.616 17.977-.773 4.449 2.328 6.83 5.314 8.335 10.038.561 2.864.568 5.578.57 8.497l.005 3.638-.012 3.787.012 3.823-.004 3.627-.004 3.334C332 214 332 214 331 215c-1.831.099-3.666.13-5.5.125l-3.031.008C320 215 320 215 319 214a119.518 119.518 0 0 1-.246-5.715l-.1-3.517c-.06-2.466-.118-4.933-.172-7.399l-.103-3.521-.076-3.25c-.05-2.758-.05-2.758-2.303-4.598-5.883-.51-5.883-.51-11 2-.995 2.985-1.18 5.165-1.281 8.29l-.114 3.1-.21 6.493-.114 3.094-.092 2.846C303 214 303 214 302 215c-1.664.098-3.333.13-5 .125l-2.75.008C292 215 292 215 291 214a245.7 245.7 0 0 1-.098-8.848l.005-2.686c.005-2.843.018-5.686.03-8.529.006-1.922.01-3.845.014-5.767.011-4.723.028-9.447.049-14.17ZM219 174h12v3l2.25-1.5c5.383-2.673 12.33-2.616 17.977-.773 4.449 2.328 6.83 5.314 8.335 10.038.561 2.864.568 5.578.57 8.497l.005 3.638-.012 3.787.012 3.823-.004 3.627-.004 3.334C260 214 260 214 259 215c-1.831.099-3.666.13-5.5.125l-3.031.008C248 215 248 215 247 214a119.518 119.518 0 0 1-.246-5.715l-.1-3.517c-.06-2.466-.118-4.933-.172-7.399l-.103-3.521-.076-3.25c-.05-2.758-.05-2.758-2.303-4.598-5.883-.51-5.883-.51-11 2-.995 2.985-1.18 5.165-1.281 8.29l-.114 3.1-.21 6.493-.114 3.094-.092 2.846C231 214 231 214 230 215c-1.664.098-3.333.13-5 .125l-2.75.008C220 215 220 215 219 214a245.7 245.7 0 0 1-.098-8.848l.005-2.686c.005-2.843.018-5.686.03-8.529.006-1.922.01-3.845.014-5.767.011-4.723.028-9.447.049-14.17ZM332.469 232.867l3.031.008 3.031-.008C341 233 341 233 342 234c.142 3.003.042 5.992 0 9h9v10h-9c.14 2.98.287 5.958.438 8.938l.119 2.576.127 2.45.11 2.27c.024 1.79.024 1.79 1.206 2.766 2.333.04 4.667.042 7 0l3 9c-4.803 2.561-9.699 2.662-15 2-3.848-1.261-6.39-3.09-8.68-6.5-1.78-4.72-1.646-8.881-1.507-13.875l.04-2.809c.036-2.272.085-4.544.147-6.816h-6v-10h6l-.035-1.934c-.01-.826-.018-1.652-.027-2.504l-.036-2.496c.144-3.047.51-3.034 3.567-3.199ZM159 242h12c.025 5.678.043 11.357.055 17.035.005 1.933.012 3.866.02 5.8.013 2.772.018 5.545.023 8.317l.015 2.636c0 2.071-.05 4.142-.113 6.212-1 1-1 1-3.25 1.133l-2.75-.008-2.75.008C160 283 160 283 159 282a245.7 245.7 0 0 1-.098-8.848l.005-2.686c.005-2.843.018-5.686.03-8.529.006-1.922.01-3.845.014-5.767.011-4.723.028-9.447.049-14.17ZM269 174h12c.025 5.678.043 11.357.055 17.035.005 1.933.012 3.866.02 5.8.013 2.772.018 5.545.023 8.317l.015 2.636c0 2.071-.05 4.142-.113 6.212-1 1-1 1-3.25 1.133l-2.75-.008-2.75.008C270 215 270 215 269 214a245.7 245.7 0 0 1-.098-8.848l.005-2.686c.005-2.843.018-5.686.03-8.529.006-1.922.01-3.845.014-5.767.011-4.723.028-9.447.049-14.17ZM207 315c4.345 2.172 6.334 4.648 9.125 8.438l1.34 1.775A168.942 168.942 0 0 1 223 333l1-17 3-1v26c-4.345-2.172-6.334-4.648-9.125-8.438l-1.34-1.775A168.942 168.942 0 0 1 211 323l-1 17-3 1v-26ZM190 316c3.004 1.796 5.408 3.816 7 7 .51 4.054.893 8.177-.941 11.922-2.545 3.222-5.055 5.259-9.059 6.078-4.838.224-8.757-.253-12.5-3.5-2.713-3.16-3.543-6.128-3.73-10.254.411-4.014 1.733-6.044 4.23-9.246 4.8-3.572 9.41-3.667 15-2Zm-14 5c-1.894 3.1-2.003 4.908-1.875 8.563.954 3.748 1.88 5.077 4.875 7.437 3.515 1.758 7.282.944 11 0 2.66-2.141 3.725-3.569 4.371-6.934.24-3.852-.127-5.684-2.246-9.003-2.748-2.667-3.572-3.021-7.438-3.313-3.945.268-5.666.747-8.687 3.25ZM266 315h16l1 3h-14v8h12v3h-12v9h14v3h-17v-26ZM320 315c3 1 3 1 4.259 2.978l1.221 2.573 1.338 2.806 1.37 2.955 1.404 2.92C333 336.475 333 336.475 333 341l-3-1-2-6h-14l-2 6-3 1c.602-3.545 1.547-6.557 3.031-9.828l1.207-2.672 1.262-2.75 1.262-2.797c3.094-6.809 3.094-6.809 4.238-7.953Zm1 5c-.836 1.645-1.669 3.29-2.5 4.938l-1.406 2.777c-1.166 2.013-1.166 2.013-1.094 3.285h10c-1.213-3.724-2.509-7.378-4-11h-1ZM165.063 223.5c3.265.556 4.685 1.081 6.937 3.5 1.248 3.162 1.165 4.545 0 7.75-2 2.25-2 2.25-5.375 3.25-4.037 0-5.65-.287-8.625-3-1.125-2.875-1.125-2.875-1-6 2.447-3.41 3.882-4.818 8.063-5.5ZM275.063 155.5c3.265.556 4.685 1.081 6.937 3.5 1.248 3.162 1.165 4.545 0 7.75-2 2.25-2 2.25-5.375 3.25-4.037 0-5.65-.287-8.625-3-1.125-2.875-1.125-2.875-1-6 2.447-3.41 3.882-4.818 8.063-5.5ZM249.563 315.25l2.316.266C254 316 254 316 257 318l-1 3-1.563-1c-3.9-1.6-7.615-1.099-11.75-.875-1.98.817-1.98.817-3 3.5-.985 4.839-.234 8.735 1.313 13.375 3.489 1.476 7.28 1.2 11 1 2.354-.88 2.354-.88 4-2v4c-4.644 2.547-9.008 2.413-14 1-3.32-2.613-5.402-5.114-7-9-.334-4.788.331-8.15 3.313-11.938 3.903-2.995 6.281-4.45 11.25-3.812ZM157.563 315.25l2.316.266C162 316 162 316 165 318l-1 3-1.563-1c-3.9-1.6-7.615-1.099-11.75-.875-1.98.817-1.98.817-3 3.5-.985 4.839-.234 8.735 1.313 13.375 3.489 1.476 7.28 1.2 11 1 2.354-.88 2.354-.88 4-2v4c-4.644 2.547-9.008 2.413-14 1-3.32-2.613-5.402-5.114-7-9-.334-4.788.331-8.15 3.313-11.938 3.903-2.995 6.281-4.45 11.25-3.812ZM291 315h11c.108 3.772.187 7.54.25 11.313l.102 3.248.039 3.115.063 2.872C302 338 302 338 300.198 339.837c-3.36 1.778-5.61 1.142-9.198.163-1.938-2.063-1.938-2.063-3-4h4l1 1h5l1-19h-8v-3ZM341 315l3 1v22h13v3h-16v-26Z"/></svg>