<svg xmlns="http://www.w3.org/2000/svg" width="1081" height="1081"><path fill="#FFF" d="m589 82 3.442.375C641.438 87.82 689.319 101.189 734 122c1.8.82 3.601 1.639 5.402 2.457 40.425 18.581 77.385 44.492 110.227 74.39a358.137 358.137 0 0 0 4.648 4.15c5.494 4.834 10.727 9.902 15.91 15.065l2.017 2.003c4.468 4.482 8.666 9.141 12.796 13.935a1588.96 1588.96 0 0 0 3.07 3.465c22.386 25.365 41.834 53.609 57.796 83.428a508.81 508.81 0 0 0 3.36 6.123C976.902 377.32 992.972 435.104 999 492l.316 2.928c9.318 90.405-9.643 181.11-101.004 336.447-4.237 5.198-8.57 10.286-13.117 15.219a156.213 156.213 0 0 0-3.571 4.023c-5.169 6.054-10.758 11.67-16.394 17.283-1.664 1.66-3.323 3.324-4.982 4.989-5.577 5.58-11.218 11.018-17.248 16.111l-2.922 2.563C814.118 913.937 785.227 932.92 755 949l-2.613 1.394c-59.172 31.258-128.372 50.547-195.473 50.81l-3.659.02c-3.877.018-7.753.025-11.63.026h-2.004c-20.05.002-39.754-.297-59.621-3.25l-4.227-.602C432.235 991.13 390.056 979.325 350 961l-3.156-1.437c-43.351-19.882-83.05-46.53-118.008-78.946a530.407 530.407 0 0 0-7.899-7.117c-7.474-6.718-14.622-13.777-21.144-21.43-2.124-2.453-4.335-4.817-6.543-7.195-5.296-5.81-10.131-11.92-14.92-18.15a592.315 592.315 0 0 0-3.756-4.803C124.728 758.289 94.476 681.749 83 602l-.505-3.366C76.981 560.26 77.18 517.307 83 479l.602-4.12C90.122 430.804 102.5 388.552 121 348l1.19-2.662C134.584 317.595 150.757 291.262 169 267l1.395-1.859C176.073 257.605 181.961 250.25 188 243l2.53-3.05c7.267-8.67 14.993-16.784 23.016-24.756 2.025-2.015 4.04-4.04 6.054-6.067 6.399-6.406 12.82-12.535 19.93-18.153 2.45-1.958 4.778-4.003 7.103-6.107 4.25-3.814 8.669-7.324 13.242-10.742l2.554-1.91C279.834 159.365 297.976 147.32 317 137l2.684-1.458C401.446 91.412 496.355 71.345 589 82Zm-106 25-3.781.536C402.55 118.723 329.507 149.446 269 198l-3.121 2.48c-5.251 4.232-10.32 8.634-15.297 13.184a197.107 197.107 0 0 1-4.256 3.765c-5.723 4.898-11.06 10.152-16.372 15.486-1.514 1.52-3.033 3.034-4.554 4.548-5.343 5.34-10.513 10.772-15.4 16.537l-2.563 2.922c-74.904 86.909-111.066 201.92-103.492 315.96C110.675 661.176 144.082 746.287 220 838l1.689 1.842c6.705 7.296 13.378 14.525 20.87 21.03 2.278 1.986 4.488 4.032 6.691 6.1 6.322 5.91 12.961 11.297 19.83 16.554a922.627 922.627 0 0 1 6.06 4.704C347.228 944.31 437.812 975.77 529 978l2.463.066C618.644 980.09 706.265 955.026 779 907l2.1-1.386c17.63-11.717 34.548-24.693 50.1-39.06a283.15 283.15 0 0 1 6.472-5.706c5.192-4.53 10.03-9.405 14.89-14.285l2.749-2.737c5.106-5.113 10.007-10.323 14.689-15.826l2.563-2.922C891.885 802.66 908.817 777.968 923 752l1.435-2.617c24.925-45.77 41.293-95.113 48.815-146.696l.458-3.135c2.636-19.292 3.673-38.528 3.605-57.99l-.006-3.287C977.027 438.617 942.147 340.507 876 261l-1.31-1.567c-12.216-14.597-25.05-29.121-39.514-41.535-2.483-2.165-4.887-4.407-7.301-6.648-5.774-5.258-11.821-10.086-18.021-14.83a884.688 884.688 0 0 1-5.495-4.256C786.641 178.487 767.61 166.748 748 156l-2.503-1.389c-43.342-23.941-90.934-38.545-139.684-46.361l-3.699-.602c-20.477-3.136-40.984-4.03-61.677-3.96l-3.428.005c-18.175.05-35.995.72-54.009 3.307Z"/><path fill="#FFF" d="M714 392c-.577 3.134-1.391 4.763-3.66 6.988l-1.644 1.63-1.759 1.695c-.592.582-1.184 1.164-1.793 1.765-3.04 2.969-6.129 5.825-9.394 8.547-16.077 13.785-28.62 36.16-30.621 57.316L665 472l-.16 2.34c-.677 19.568 5.516 37.014 18.734 51.476 5.162 5.295 10.58 10.145 16.364 14.746 2.273 1.81 4.518 3.64 6.75 5.5 8.412 6.987 17.052 13.364 26.127 19.458 4.073 2.76 8.095 5.591 12.122 8.418a11940.517 11940.517 0 0 1 7.605 5.337c2.361 1.657 4.724 3.312 7.087 4.967 13.91 9.759 27.468 19.533 39.371 31.758l1.465 1.328c21.34 19.884 35.248 51.315 36.662 80.268C838.167 735.764 826.588 769.424 801 798l-1.957 2.215c-27.67 29.478-74.905 43.77-114.115 45.043-38.918.946-76.084-5.031-105.74-32.508-15.247-16.182-20.735-35.19-20.47-56.98.222-6.835 1.516-12.477 4.282-18.77l1.098-2.648c5.21-11.481 13.772-21.23 25.394-26.477A60.058 60.058 0 0 1 596 706l2.938-.688c13.126-1.339 25.456.89 35.996 9.215 8.606 7.866 11.469 18.065 12.379 29.348-.32 9.893-3.384 19.081-10.32 26.18-3.702 3.417-7.414 6.251-11.743 8.82-5.103 3.289-7.398 7.416-9.25 13.125-1.344 9.406 2.92 18.371 8.305 25.934 7.028 8.566 15.543 13.02 26.258 15.254l2.372.502c28.517 5.752 62.578-.924 86.996-16.96C760.353 802.536 770.362 780.892 775 757c.528-3.015.872-5.943 1-9l.121-2.71c.538-24.097-7.238-46.066-23.634-63.742C744.949 673.7 736.557 666.7 728 660l-3.074-2.441c-9.152-7.078-19.003-12.906-29.031-18.637-7.743-4.468-14.87-9.398-21.895-14.922l-2.277-1.786a510.931 510.931 0 0 1-5.848-4.714l-2.057-1.679c-5.422-4.45-10.716-9.005-15.818-13.821l-2.582-2.422c-17.366-16.767-28.068-40.151-28.719-64.398-.02-2.435-.023-4.87-.011-7.305l.017-3.888c.123-9.657.825-18.636 3.295-27.987l.618-2.367c10.61-39.608 32.414-72.956 68.419-93.882 17.817-10.01 17.817-10.01 24.963-7.751Z"/><path fill="#FFF" d="m379.625 239.625 2.64-.043c12.464.093 21.744 4.616 30.798 12.98 46.81 49.036 58.289 148.869 69.528 212.766C493.349 545.596 493.349 545.596 532 614l2.207 2.426c10.299 11.063 24.389 19.546 39.668 20.812 18.41.438 31.866-7.972 44.879-20.152a110.635 110.635 0 0 1 6.558-5.649l1.801-1.44c2.401-1.269 4.212-1.177 6.887-.997 2.837 10.167-2.814 20.504-7.584 29.326-12.893 22.666-34.395 41.348-59.53 48.932-21.853 5.619-42.143 2.385-61.823-8.383-7.007-4.215-13.02-9.406-19.063-14.875l-2.21-1.992c-56.415-53.651-65.522-140.421-76.177-213.223C403.118 418.073 398.28 387.706 389 358l-1.04-3.342c-11.537-40.898-11.537-40.898-38.198-71.818-5.984-2.853-13.023-2.764-19.387-1.192-11.135 4.176-19.964 11.326-28.125 19.79l-2.418 2.447c-4.295 4.375-8.386 8.83-12.235 13.604-1.834 1.736-3.132 2.123-5.597 2.511 0-18.18 15.731-36.433 27.797-48.895C323.323 257.675 339.14 249.243 357 243l3.082-1.105c6.458-1.968 12.84-2.191 19.543-2.27Z"/><path fill="#FFF" d="M414 510h2c3.035 6.83 4.29 13.15 1.863 20.395-3.721 8.563-8.277 16.695-12.863 24.818-1.495 2.673-2.93 5.377-4.363 8.084A699.78 699.78 0 0 1 392 579l-1.16 2.076c-9.664 17.197-22.192 32.586-34.365 48.047a766.47 766.47 0 0 0-3.71 4.768c-5.098 6.532-10.656 12.6-16.351 18.612a410.767 410.767 0 0 0-3.691 3.974c-17.784 18.744-43.944 30.791-69.758 31.742-19.748.457-39.784-1.173-54.965-15.219-12.745-12.182-17.59-28.228-18.25-45.5.22-15.878 4.883-30.417 15.25-42.5l1.934-2.508C213.66 574.38 224.48 566.89 235 565c10.213-.913 18.286.694 26.313 7.25 8.146 7.736 11.728 17.031 12.125 28.188-.16 6.482-1.807 11.685-4.438 17.562l-1.121 2.543a250.351 250.351 0 0 1-2.047 4.484c-2.95 6.995-3.114 16.299-1.113 23.594 2.501 5.336 5.866 8.322 11.281 10.692 11.418 2.706 24.442-1.392 34.598-6.66 10.74-6.802 19.944-16.572 28.195-26.165 2.362-2.663 4.792-5.253 7.235-7.842 6.285-6.665 12.37-13.387 17.972-20.646l2.207-2.77C375.64 582.794 382.656 568.728 390 555l1.128-2.108a5530.859 5530.859 0 0 0 13.001-24.476A2286.894 2286.894 0 0 1 414 510ZM678.152 247.66c10.81 10.005 16.11 25.093 17.055 39.485.096 3.33.122 6.65.106 9.98l-.015 3.586c-.256 19.243-3.613 37.029-17.86 50.976-10.14 8.555-23.62 10.075-36.372 9.492-8.744-.758-17.573-4.221-24.066-10.179-7.104-8.77-7.966-17.054-7-28 1.273-5.905 3.96-10.94 6.788-16.239 3.303-6.261 5.877-11.57 4.212-18.761-1.952-5.806-4.626-10.984-10-14.215-5.2-2.04-9.769-1.596-14.957.29-7.18 3.364-13.066 7.774-19.043 12.925l-3.031 2.477c-13.672 11.26-27.154 23.84-37.922 37.941-1.867 2.355-3.815 4.564-5.828 6.793-4.08 4.563-7.815 9.318-11.469 14.226l-1.938 2.59c-4.915 6.624-9.562 13.4-14.043 20.324l-1.378 2.122-1.187 1.851c-1.258 1.751-2.641 3.195-4.204 4.676.692-4.163 2.825-7.604 4.883-11.219l1.207-2.13c4.57-7.955 9.65-15.553 14.785-23.151a6584.43 6584.43 0 0 0 2.777-4.145c17.295-25.788 17.295-25.788 26.41-38.043.59-.794 1.178-1.589 1.784-2.408 22.319-30.053 42.269-56.046 81.404-62.216 17.657-2.076 34.42-.199 48.902 10.972ZM827 395c14.65 10.148 24.263 24.606 28.531 41.984 2.254 14.496.042 26.989-8.531 39.016-5.874 7.47-15.374 14.022-24.816 15.79-14.795 1.428-26.806-1.56-38.371-11.04-7.894-7.28-11.753-15.594-13.313-26.125.775-5.617 3.234-10.462 5.5-15.625 4.53-11.287 6.828-23.95 3.145-35.691-4.514-9.104-13.231-12.82-22.356-16.105-4.56-1.53-9.16-2.9-13.789-4.204v-4c27.286-7.025 60.512 1.14 84 16Z"/></svg>